<svg xmlns="http://www.w3.org/2000/svg" viewBox="0 0 36.47 21.29"><defs><style>.cls-1{fill:#323e48}.cls-2{fill:#f4cb19}</style></defs><g id="Layer_2" data-name="Layer 2"><g id="Layer_1-2" data-name="Layer 1"><path class="cls-1" d="M3.28 8.34V13a.61.61 0 01-.92.53.59.59 0 01-.31-.53v-1.7H.62a.61.61 0 01-.54-.3.62.62 0 010-.62.61.61 0 01.54-.38h1.43V8.34a.6.6 0 01.17-.44.65.65 0 01.88 0 .63.63 0 01.18.44z"/><path class="cls-2" d="M6.76 4.3V17a.62.62 0 01-.93.53.64.64 0 01-.3-.53V4.3a.62.62 0 01.18-.44.65.65 0 01.44-.18.59.59 0 01.43.19.56.56 0 01.18.43zM30.92 4.3V17a.62.62 0 01-.3.53.62.62 0 01-.93-.53V4.3a.63.63 0 01.19-.44.62.62 0 01.43-.18.63.63 0 01.44.19.58.58 0 01.17.43zM27.44.61v20.06a.59.59 0 01-.3.53.62.62 0 01-.62 0 .6.6 0 01-.31-.53v-9.42h-16v9.42a.61.61 0 01-.3.53.64.64 0 01-.63 0 .61.61 0 01-.3-.53V.61a.6.6 0 01.35-.53.62.62 0 01.62 0 .61.61 0 01.3.53V10h16V.61a.57.57 0 01.18-.43.63.63 0 01.87 0 .6.6 0 01.14.43z"/><path class="cls-1" d="M36.39 11a.65.65 0 01-.54.3H34.4V13a.6.6 0 01-.3.53.62.62 0 01-.62 0 .61.61 0 01-.31-.53V8.34a.62.62 0 01.31-.54.64.64 0 01.62 0 .61.61 0 01.3.54V10h1.45a.62.62 0 01.53.3.65.65 0 01.01.7z"/></g></g></svg>