<svg xmlns="http://www.w3.org/2000/svg" viewBox="0 0 32.99 36.47"><defs><style>.cls-2{fill:#323e48}</style></defs><g id="Layer_2" data-name="Layer 2"><g id="Layer_1-2" data-name="Layer 1"><path d="M31.29 2A5.77 5.77 0 0027 0H6a5.74 5.74 0 00-4.3 1.92A6 6 0 000 6.53l1.9 24.39a6 6 0 006 5.55h17.15a6 6 0 006-5.55L33 6.52A5.91 5.91 0 0031.29 2zm-1.46 28.76A4.77 4.77 0 0128.32 34 4.85 4.85 0 0125 35.24h-7.89V22.3a.61.61 0 00-.31-.53.62.62 0 00-.62 0 .6.6 0 00-.3.53v12.94H7.94a4.81 4.81 0 01-4.79-4.48L1.25 6.37a4.9 4.9 0 011.29-3.55A4.45 4.45 0 016 1.23h21a4.51 4.51 0 013.44 1.63 4.7 4.7 0 011.26 3.49z" fill="#f4cb19"/><path class="cls-2" d="M17.1 5.54v5a.61.61 0 01-.61.61.61.61 0 01-.61-.61v-5a.62.62 0 01.61-.61.61.61 0 01.61.61zM11.75 12.82a.62.62 0 01-.81-.29L8.84 8a.66.66 0 010-.46.61.61 0 01.32-.35.58.58 0 01.26 0 .59.59 0 01.55.35L12 12a.61.61 0 01-.25.82zM24.14 8l-2.09 4.5a.62.62 0 01-.81.29.61.61 0 01-.3-.81L23 7.52a.63.63 0 01.34-.32.78.78 0 01.21 0 .62.62 0 01.26.06.6.6 0 01.31.35.57.57 0 01.02.39z"/></g></g></svg>