<svg xmlns="http://www.w3.org/2000/svg" viewBox="0 0 36.47 17.02"><defs><style>.cls-2{fill:#323e48}</style></defs><g id="Layer_2" data-name="Layer 2"><g id="Layer_1-2" data-name="Layer 1"><path d="M28 0a8.45 8.45 0 00-5.52 2.05h-.06a17.67 17.67 0 01-4.13.57 17.6 17.6 0 01-4.13-.57h-.07A8.51 8.51 0 108.52 17 8.45 8.45 0 0014 15h.07a17.6 17.6 0 014.13-.57 17.67 17.67 0 014.13.57h.06A8.51 8.51 0 1028 0zM13.52 14a6.73 6.73 0 01-.58.48c-.18.14-.36.27-.55.39A7.4 7.4 0 118.52 1.11a7.47 7.47 0 013.87 1.09 5.23 5.23 0 01.56.4c.22.17.41.32.58.48a7.39 7.39 0 010 10.87zm7.21-.48a16.05 16.05 0 00-2.49-.22 16.07 16.07 0 00-2.5.22l-.34.06.19-.29a8.46 8.46 0 000-9.44l-.2-.29.35.05a15.81 15.81 0 002.5.21 16 16 0 002.5-.21l.34-.05-.2.29a8.46 8.46 0 000 9.44l.2.29zM28 15.91a7.41 7.41 0 01-3.86-1.09 7.02 7.02 0 01-.56-.39 6.41 6.41 0 01-.58-.49 7.36 7.36 0 010-10.86c.17-.16.35-.31.58-.49a5.58 5.58 0 01.56-.39A7.4 7.4 0 1128 15.91z" fill="#f4cb19"/><path class="cls-2" d="M11.31 10.89a.48.48 0 01-.17.37.62.62 0 01-.45.14h-3.1a.83.83 0 01-.59-.18.84.84 0 01-.18-.6V5.75A.87.87 0 017 5.19.61.61 0 017.44 5a.58.58 0 01.46.2.78.78 0 01.17.56v4.63h2.62a.7.7 0 01.46.14.47.47 0 01.16.36zM30.57 10.58a5 5 0 00-.37-.73 5.23 5.23 0 00-.56-.75 2.26 2.26 0 00-.39-.37L29 8.55l.28-.08a2.17 2.17 0 00.91-.53 1.56 1.56 0 00.4-1.12 1.62 1.62 0 00-.12-.64 1.47 1.47 0 00-.35-.54 1.59 1.59 0 00-.51-.36 2 2 0 00-.55-.15H26.24a.81.81 0 00-.58.18.8.8 0 00-.18.59v4.86a.87.87 0 00.16.58.56.56 0 00.46.19.59.59 0 00.46-.18.9.9 0 00.17-.59v-2h.46a1.37 1.37 0 01.58.1 1 1 0 01.44.34 3.49 3.49 0 01.5.72l.67 1.08.13.2a.84.84 0 00.23.23.54.54 0 00.37.11.71.71 0 00.31-.06.51.51 0 00.2-.18.48.48 0 00.09-.26 1.2 1.2 0 00-.14-.46zm-1.9-2.86a3.4 3.4 0 01-.78.08h-1.16V6h1.2a2.3 2.3 0 01.89.1.87.87 0 01.37.29.86.86 0 01.14.48.81.81 0 01-.17.54.89.89 0 01-.49.31z"/></g></g></svg>