<svg xmlns="http://www.w3.org/2000/svg" viewBox="0 0 26.73 36.46"><defs><style>.cls-1{fill:#323e48}</style></defs><g id="Layer_2" data-name="Layer 2"><g id="Layer_1-2" data-name="Layer 1"><path class="cls-1" d="M20 23.09a6.69 6.69 0 106.69 6.69A6.7 6.7 0 0020 23.09zm0 12.15a5.47 5.47 0 115.46-5.46A5.47 5.47 0 0120 35.24z"/><path class="cls-1" d="M22.71 29.78a.64.64 0 01-.64.63h-1.4v1.4a.63.63 0 01-1.26 0v-1.4H18a.64.64 0 110-1.27h1.4v-1.4a.63.63 0 111.26 0v1.4h1.4a.63.63 0 01.65.64z"/><path d="M24.11 13.92A6.91 6.91 0 0023 11.58l-3.54-4.82V.61a.61.61 0 00-.62-.61H5.43a.6.6 0 00-.6.61v6.14l-3.56 4.83a6.76 6.76 0 00-1 2.18A5.57 5.57 0 000 15.54V31a3 3 0 003 3h7.6a.61.61 0 00.6-.62.6.6 0 00-.6-.61H3A1.83 1.83 0 011.21 31v-4.14h9.34a.6.6 0 00.61-.6.61.61 0 00-.61-.62H1.21v-11l.76.07h21.1v5.61a.61.61 0 101.21 0v-4.79a7.36 7.36 0 00-.17-1.61zM6 1.22h12.2v5.09H6zM1.39 13.49l4.37-6h12.76l4.29 6z" fill="#f4cb19"/></g></g></svg>