<svg xmlns="http://www.w3.org/2000/svg" viewBox="0 0 36.47 19.72"><defs><style>.cls-2{fill:#323e48}</style></defs><g id="Layer_2" data-name="Layer 2"><g id="Layer_1-2" data-name="Layer 1"><path d="M35.84 9L30 .89A2 2 0 0028.48 0a2 2 0 00-1.6.62l-1.35 1.4a.62.62 0 000 .87.63.63 0 00.87 0l1.35-1.4a.85.85 0 01.65-.24.8.8 0 01.6.35l4.4 6.11H22.15a3.27 3.27 0 00-2.29 1 3.53 3.53 0 00-.56.77v.08h-2.09l-.05-.08a3.19 3.19 0 00-2.84-1.72H3.15l4.33-6.2a.84.84 0 01.59-.32h.06a.83.83 0 01.57.22L10.22 3a.64.64 0 00.45.17.6.6 0 00.59-.62.58.58 0 00-.18-.43L9.56.57a2 2 0 00-3.07.29L1 8.59l-.08.07A3.2 3.2 0 000 11a8.76 8.76 0 0015 6.19 8.71 8.71 0 002.57-6.21v-.19h1.39V11a8.77 8.77 0 0017.54 0 3.19 3.19 0 00-.66-2zm-21.75 7.28a7.47 7.47 0 01-5.32 2.2 7.56 7.56 0 01-5.34-2.22 7.48 7.48 0 01-2.2-5.33 2 2 0 012-2h11.1a2 2 0 012 2 7.5 7.5 0 01-2.24 5.35zm18.93 0a7.54 7.54 0 01-12.86-5.35 2 2 0 01.58-1.41 2 2 0 011.41-.58h11.1a2 2 0 012 2A7.5 7.5 0 0133 16.28z" fill="#f4cb19"/><path class="cls-2" d="M31.41 14.7a.63.63 0 01-.86-.16.61.61 0 01.17-.85 3.38 3.38 0 001.37-1.54l.08-.2h-5.39a.62.62 0 01-.62-.62.61.61 0 01.62-.61h6a.61.61 0 01.6.47c.03.07.44 1.89-1.97 3.51zM14.26 11.33a.62.62 0 01-.61.62h-6a.61.61 0 01-.65-.62.61.61 0 01.61-.61h6a.61.61 0 01.65.61z"/></g></g></svg>