<svg version="1.1" id="Layer_1" xmlns="http://www.w3.org/2000/svg" x="0" y="0" viewBox="0 0 135 135" xml:space="preserve"><style>.st1{fill:#383f4c}</style><path class="st1" d="M93.3 51.5V5.6c0-1.2-1-2.2-2.2-2.2-1.2 0-2.2 1-2.2 2.2V13l-11 11.8V10.2c0-1.2-1-2.2-2.2-2.2-1.2 0-2.2 1-2.2 2.2v19.4l-5.7 6.1-4.8-5.2V16.9c0-1.2-1-2.2-2.2-2.2-1.2 0-2.2 1-2.2 2.2v8.8L46.6 13V4.8c0-1.2-1-2.2-2.2-2.2-1.2 0-2.2 1-2.2 2.2v47.5c0 12.5 10.3 22.8 23.3 23.8v21L45.6 75.4c-.8-.9-2.3-1-3.2-.2-.9.8-1 2.3-.1 3.2l23.2 25.3v10.7L45.6 92.7c-.8-.9-2.3-1-3.2-.1-.9.8-1 2.3-.1 3.2l23.2 25.3v9.1c0 1.2 1 2.2 2.2 2.2s2.2-1 2.2-2.2V76.1C83 75 93.3 64.8 93.3 52.3v-.4-.4zM46.6 19.6l18.8 20.2v15.1L46.6 34.7V19.6zm0 32.7v-.4-10.6l18.8 20.2v10.1c-10.5-1-18.8-9.3-18.8-19.3zM70 39.9l18.8-20.2v15.1L70 54.9v-15zm18.8 12v.4c0 10-8.3 18.3-18.8 19.3V61.5l18.8-20.2v10.6z"/><path class="st1" d="M78.1 132.5c-1.2 0-2.2-1-2.2-2.2V83.5c0-1.2 1-2.2 2.2-2.2s2.2 1 2.2 2.2v46.7c.1 1.3-.9 2.3-2.2 2.3z"/><circle class="st1" cx="52.7" cy="54.9" r="2.3"/><circle class="st1" cx="83.9" cy="32.7" r="2.3"/><circle class="st1" cx="60.1" cy="40.9" r="2.3"/></svg>