<svg xmlns="http://www.w3.org/2000/svg" viewBox="0 0 131.52 56.32"><defs><style>.cls-1,.cls-3{fill:none;stroke-miterlimit:10;stroke:#323e48}.cls-2{fill:#323e48}.cls-3{stroke-width:.75px;stroke-dasharray:5.55 5.55}</style></defs><g id="Layer_2" data-name="Layer 2"><g id="Layer_1-2" data-name="Layer 1"><path class="cls-1" d="M16 15.88a24.25 24.25 0 014 4.88 16 16 0 012.52 8.1 16.49 16.49 0 01-3.09 9 23.27 23.27 0 01-3.35 4"/><path class="cls-1" d="M19.26 37.84a17.15 17.15 0 01-2.89-9 16.91 16.91 0 012.33-8.1c.33-.56.56-.88.56-.88"/><path class="cls-1" d="M19.26 10L.67 28.56a.55.55 0 000 .8l18.4 18.4"/><path class="cls-2" d="M22.47 28.86a16.56 16.56 0 01-3.08 9h-.13a17.15 17.15 0 01-2.89-9 16.91 16.91 0 012.33-8.1H20a16 16 0 012.47 8.1z"/><path class="cls-3" d="M31.07 28.86l71.81 21.16"/><path class="cls-2" d="M101.09 50.81l1.58-.86-.86-1.58 1.03.31.86 1.58-1.58.86-1.03-.31z"/><path class="cls-3" d="M31.07 28.86L102.88 7.9"/><path class="cls-2" d="M101.8 9.53l.87-1.57-1.58-.87 1.03-.3 1.58.87-.86 1.57-1.04.3z"/><path class="cls-1" d="M84.52.5h47M84.52 55.82h47"/><path d="M109.56 6.11a37.64 37.64 0 010 45.7" stroke="#f4cb19" fill="none" stroke-miterlimit="10"/><circle class="cls-2" cx="109.36" cy="51.7" r="1.77"/><circle class="cls-2" cx="109.36" cy="6.02" r="1.77"/></g></g></svg>