<svg xmlns="http://www.w3.org/2000/svg" viewBox="0 0 151.81 52.07"><defs><style>.cls-1,.cls-4{fill:none;stroke-miterlimit:10;stroke:#323e48}.cls-2{fill:#323e48}.cls-4{fill-rule:evenodd}</style></defs><g id="Layer_2" data-name="Layer 2"><g id="Layer_1-2" data-name="Layer 1"><path class="cls-1" d="M16 19.84a24.25 24.25 0 014 4.88 16 16 0 012.52 8.1 16.49 16.49 0 01-3.09 9 23.27 23.27 0 01-3.35 4"/><path class="cls-1" d="M19.26 41.8a17.15 17.15 0 01-2.89-9 16.91 16.91 0 012.33-8.1c.33-.56.56-.88.56-.88"/><path class="cls-1" d="M19.26 13.92L.67 32.52a.55.55 0 000 .8l18.4 18.4"/><path class="cls-2" d="M22.47 32.82a16.56 16.56 0 01-3.08 9h-.13a17.15 17.15 0 01-2.89-9 16.91 16.91 0 012.33-8.1H20a16 16 0 012.47 8.1z"/><path stroke="#f4cb19" fill="none" stroke-miterlimit="10" d="M27.36 29.92l86.5-8.54"/><circle class="cls-2" cx="113.86" cy="21.38" r="1.77"/><path class="cls-4" d="M120 9.07s8.72-.25 8.72 9.2M137.46 9.07s-8.71-.25-8.71 9.2M136.74.5s7.53-.21 7.53 7.94M151.79.5s-7.52-.21-7.52 7.94"/></g></g></svg>