<svg xmlns="http://www.w3.org/2000/svg" viewBox="0 0 63.6 53.22"><defs><style>.cls-3,.cls-4{fill:none;stroke-miterlimit:10}.cls-2{fill:#323e48}.cls-3,.cls-4{stroke:#323e48}.cls-3{stroke-width:.75px;stroke-dasharray:5 5}</style></defs><g id="Layer_2" data-name="Layer 2"><g id="Layer_1-2" data-name="Layer 1"><path stroke="#f4cb19" fill="none" stroke-miterlimit="10" d="M31.8 53.22V37.59"/><circle class="cls-2" cx="31.8" cy="36.73" r="1.77"/><path class="cls-3" d="M40.9 13.14L63.1.32"/><path class="cls-2" d="M42.83 13.5l-1.74-.47.47-1.74-.94.55-.46 1.73 1.74.47.93-.54z"/><path class="cls-3" d="M22.7 13.14L.5.32"/><path class="cls-2" d="M22.04 11.29l.47 1.74-1.74.47.94.54 1.73-.47-.46-1.73-.94-.55z"/><path class="cls-4" d="M50.34 33.21c-6.08 0-11.18-4.63-12.59-6a.57.57 0 010-.8c1.41-1.4 6.51-6 12.59-6s11.19 4.64 12.59 6a.55.55 0 010 .8c-1.4 1.37-6.51 6-12.59 6z"/><path class="cls-2" d="M47.07 21.59a5.19 5.19 0 11-5.19 5.18 5.19 5.19 0 015.19-5.18m0-1a6.19 6.19 0 106.18 6.18 6.19 6.19 0 00-6.18-6.18z"/><circle class="cls-2" cx="44.02" cy="27.77" r="3.13"/><path class="cls-4" d="M13.26 20.33c6.08 0 11.18 4.64 12.59 6a.55.55 0 010 .8c-1.41 1.41-6.51 6-12.59 6S2.08 28.58.67 27.17a.55.55 0 010-.8c1.41-1.37 6.51-6.04 12.59-6.04z"/><path class="cls-2" d="M16.54 21.59a5.19 5.19 0 11-5.19 5.18 5.19 5.19 0 015.19-5.18m0-1a6.19 6.19 0 106.18 6.18 6.19 6.19 0 00-6.18-6.18z"/><circle class="cls-2" cx="19.58" cy="27.77" r="3.13"/></g></g></svg>