<svg xmlns="http://www.w3.org/2000/svg" viewBox="0 0 159.03 80.49"><defs><style>.cls-3,.cls-6{fill:none;stroke-miterlimit:10}.cls-2{fill:#323e48}.cls-3,.cls-6{stroke:#323e48}.cls-3{stroke-width:.75px}</style></defs><g id="Layer_2" data-name="Layer 2"><g id="Layer_1-2" data-name="Layer 1"><path stroke="#f4cb19" fill="none" stroke-miterlimit="10" d="M53.94 22.34v30.31l50.51-30.31v30.31L53.94 22.34z"/><circle class="cls-2" cx="79.2" cy="37.5" r="1.77"/><circle class="cls-2" cx="104.45" cy="22.34" r="1.77"/><circle class="cls-2" cx="104.45" cy="52.65" r="1.77"/><circle class="cls-2" cx="53.94" cy="22.34" r="1.77"/><circle class="cls-2" cx="53.94" cy="52.65" r="1.77"/><path class="cls-3" d="M44.02 21.43v2.5"/><path stroke-dasharray="5.6 5.6" stroke-width=".75" stroke="#323e48" fill="none" stroke-miterlimit="10" d="M44.02 29.53v19.59"/><path class="cls-3" d="M44.02 51.92v2.5"/><path class="cls-2" d="M42.75 22.92l1.27-1.27 1.27 1.27v-1.08l-1.27-1.27-1.27 1.27v1.08z"/><path class="cls-3" d="M60.35 61.07l2.14-1.29"/><path stroke-dasharray="5.66 5.66" stroke-width=".75" stroke="#323e48" fill="none" stroke-miterlimit="10" d="M67.34 56.87l7.29-4.37"/><path class="cls-3" d="M77.05 51.05l2.15-1.29"/><path class="cls-2" d="M62.28 61.39l-1.74-.43.43-1.75-.92.56-.44 1.74 1.75.44.92-.56z"/><path class="cls-6" d="M46.91 67.11c-6.08 0-11.18 4.63-12.59 6a.55.55 0 000 .8c1.41 1.4 6.51 6 12.59 6s11.18-4.64 12.59-6a.55.55 0 000-.8c-1.41-1.37-6.5-6-12.59-6z"/><path class="cls-2" d="M43.63 68.37A5.18 5.18 0 1140 69.88a5.14 5.14 0 013.66-1.51m0-1A6.18 6.18 0 1048 69.18a6.16 6.16 0 00-4.38-1.81z"/><circle class="cls-2" cx="41.48" cy="75.7" r="3.13"/><path class="cls-6" d="M13.26 67.11c-6.08 0-11.18 4.63-12.59 6a.55.55 0 000 .8c1.41 1.4 6.51 6 12.59 6s11.18-4.64 12.59-6a.55.55 0 000-.8c-1.41-1.37-6.51-6-12.59-6z"/><path class="cls-2" d="M10 68.37a5.18 5.18 0 11-3.66 1.51A5.14 5.14 0 0110 68.37m0-1a6.18 6.18 0 104.38 1.81A6.16 6.16 0 0010 67.37z"/><circle class="cls-2" cx="7.83" cy="75.7" r="3.13"/><path class="cls-6" d="M112.12 13.38c6.08 0 11.18-4.64 12.59-6a.55.55 0 000-.8c-1.41-1.41-6.51-6-12.59-6s-11.18 4.63-12.59 6a.55.55 0 000 .8c1.41 1.36 6.47 6 12.59 6z"/><path class="cls-2" d="M115.4 1.76a5.18 5.18 0 11-3.67 1.51 5.18 5.18 0 013.67-1.51m0-1a6.18 6.18 0 104.37 1.81A6.16 6.16 0 00115.4.76z"/><circle class="cls-2" cx="117.55" cy="4.78" r="3.13"/><path class="cls-6" d="M145.77 13.38c6.08 0 11.18-4.64 12.59-6a.55.55 0 000-.8c-1.41-1.41-6.51-6-12.59-6s-11.18 4.63-12.59 6a.55.55 0 000 .8c1.41 1.36 6.51 6 12.59 6z"/><path class="cls-2" d="M149.05 1.76a5.18 5.18 0 11-3.67 1.51 5.18 5.18 0 013.67-1.51m0-1a6.18 6.18 0 00-4.37 10.55 6.18 6.18 0 008.74 0A6.18 6.18 0 00149.05.76z"/><circle class="cls-2" cx="151.2" cy="4.78" r="3.13"/></g></g></svg>