<svg xmlns="http://www.w3.org/2000/svg" viewBox="0 0 158.91 53.56"><defs><style>.cls-3,.cls-4,.cls-5{fill:none;stroke-miterlimit:10}.cls-2{fill:#323e48}.cls-3,.cls-4,.cls-5{stroke:#323e48}.cls-3,.cls-4{stroke-width:.75px}.cls-4{stroke-dasharray:4.95 4.95}</style></defs><g id="Layer_2" data-name="Layer 2"><g id="Layer_1-2" data-name="Layer 1"><path stroke="#f4cb19" fill="none" stroke-miterlimit="10" d="M3.13 26.78h152.6"/><circle class="cls-2" cx="155.72" cy="26.78" r="1.77"/><circle class="cls-2" cx="3.13" cy="26.78" r="1.77"/><path class="cls-3" d="M157.5 46.62H155"/><path class="cls-4" d="M150.05 46.62H93.17"/><path class="cls-3" d="M90.7 46.62h-2.5"/><path class="cls-2" d="M156 45.35l1.28 1.27L156 47.9h1.08l1.27-1.28-1.27-1.27H156z"/><path class="cls-3" d="M1.36 6.94h2.5"/><path class="cls-4" d="M8.8 6.94h56.88"/><path class="cls-3" d="M68.16 6.94h2.5"/><path class="cls-2" d="M2.85 8.21L1.58 6.94l1.27-1.27H1.77L.5 6.94l1.27 1.27h1.08z"/><path class="cls-5" d="M145.65 13.38c-6.08 0-11.18-4.64-12.59-6a.57.57 0 010-.8c1.41-1.41 6.51-6 12.59-6s11.19 4.63 12.6 6a.57.57 0 010 .8c-1.41 1.36-6.52 6-12.6 6z"/><path class="cls-2" d="M142.38 1.76a5.18 5.18 0 11-5.19 5.18 5.19 5.19 0 015.19-5.18m0-1a6.18 6.18 0 106.18 6.18 6.18 6.18 0 00-6.18-6.18z"/><circle class="cls-2" cx="139.33" cy="6.94" r="3.13"/><path class="cls-5" d="M112 13.38c-6.08 0-11.18-4.64-12.59-6a.57.57 0 010-.8c1.41-1.41 6.51-6 12.59-6s11.19 4.63 12.6 6a.57.57 0 010 .8c-1.41 1.36-6.52 6-12.6 6z"/><path class="cls-2" d="M108.73 1.76a5.18 5.18 0 11-5.19 5.18 5.19 5.19 0 015.19-5.18m0-1a6.18 6.18 0 106.18 6.18 6.18 6.18 0 00-6.18-6.18z"/><circle class="cls-2" cx="105.68" cy="6.94" r="3.13"/><path class="cls-5" d="M13.2 40.19c5.94 0 11 4.42 12.49 5.93a.71.71 0 010 1c-1.54 1.51-6.55 5.93-12.49 5.93S2.25 48.64.71 47.13a.71.71 0 010-1c1.54-1.52 6.55-5.94 12.49-5.94z"/><path class="cls-2" d="M16.48 41.44a5.19 5.19 0 11-5.19 5.18 5.19 5.19 0 015.19-5.18m0-1a6.19 6.19 0 106.18 6.18 6.19 6.19 0 00-6.18-6.18z"/><circle class="cls-2" cx="19.53" cy="46.62" r="3.13"/><path class="cls-5" d="M46.85 40.19c5.94 0 10.95 4.42 12.49 5.93a.71.71 0 010 1c-1.54 1.51-6.55 5.93-12.49 5.93s-11-4.42-12.49-5.93a.71.71 0 010-1c1.54-1.51 6.55-5.93 12.49-5.93z"/><path class="cls-2" d="M50.13 41.44A5.19 5.19 0 1145 46.62a5.19 5.19 0 015.18-5.18m0-1a6.19 6.19 0 106.18 6.18 6.18 6.18 0 00-6.18-6.18z"/><circle class="cls-2" cx="53.18" cy="46.62" r="3.13"/></g></g></svg>