<svg xmlns="http://www.w3.org/2000/svg" viewBox="0 0 141.31 52.9"><defs><style>.cls-1,.cls-3,.cls-4{fill:none;stroke:#323e48;stroke-miterlimit:10}.cls-1{stroke-width:.75px;stroke-dasharray:5.55 5.55}.cls-2{fill:#323e48}.cls-4{stroke-linecap:round}</style></defs><g id="Layer_2" data-name="Layer 2"><g id="Layer_1-2" data-name="Layer 1"><path class="cls-1" d="M30.03 37.89v14.15"/><path class="cls-2" d="M28.75 50.54l1.28 1.28 1.27-1.28v1.08l-1.27 1.28-1.28-1.28v-1.08z"/><path class="cls-1" d="M30.03 15.01V.86"/><path class="cls-2" d="M31.3 2.35l-1.27-1.27-1.28 1.27V1.27L30.03 0l1.27 1.27v1.08z"/><path class="cls-1" d="M111.23 52.9V38.74"/><path class="cls-2" d="M112.5 40.24l-1.27-1.27-1.27 1.27v-1.08l1.27-1.27 1.27 1.27v1.08z"/><path class="cls-1" d="M111.23 0v14.15"/><path class="cls-2" d="M109.96 12.66l1.27 1.27 1.27-1.27v1.08l-1.27 1.27-1.27-1.27v-1.08z"/><path class="cls-3" d="M13.26 20c6.08 0 11.18 4.63 12.59 6a.55.55 0 010 .8c-1.41 1.4-6.51 6-12.59 6S2.08 28.25.67 26.85a.55.55 0 010-.8C2.08 24.64 7.18 20 13.26 20z"/><path class="cls-2" d="M13.26 21.26a5.19 5.19 0 11-3.66 1.52 5.13 5.13 0 013.66-1.52m0-1a6.19 6.19 0 104.37 1.82 6.17 6.17 0 00-4.37-1.82z"/><circle class="cls-2" cx="13.26" cy="26.45" r="3.13"/><path class="cls-3" d="M46.91 20c6.08 0 11.18 4.63 12.59 6a.55.55 0 010 .8c-1.41 1.4-6.51 6-12.59 6s-11.18-4.64-12.59-6a.55.55 0 010-.8c1.41-1.36 6.51-6 12.59-6z"/><path class="cls-2" d="M46.91 21.26a5.19 5.19 0 11-3.66 1.52 5.17 5.17 0 013.66-1.52m0-1a6.19 6.19 0 104.37 1.82 6.17 6.17 0 00-4.37-1.82z"/><circle class="cls-2" cx="46.91" cy="26.45" r="3.13"/><path class="cls-4" d="M107.6 26.45s-5.81 6.44-13 6.44-13-6.44-13-6.44M94.62 32.89v3.18M100.53 31.7l1.34 2.88M88.72 31.7l-1.34 2.88M105.34 28.65l1.81 2.15M83.91 28.65L82.1 30.8M140.81 26.45s-5.81 6.44-13 6.44-13-6.44-13-6.44M127.83 32.89v3.18M133.74 31.7l1.34 2.88M121.93 31.7l-1.34 2.88M138.55 28.65l1.81 2.15M117.12 28.65l-1.81 2.15"/></g></g></svg>