<svg xmlns="http://www.w3.org/2000/svg" viewBox="0 0 172.11 67.29"><defs><style>.cls-1,.cls-2,.cls-4{fill:none;stroke-miterlimit:10}.cls-1{stroke:#f4cb19}.cls-2,.cls-4{stroke:#323e48}.cls-2{stroke-width:.75px;stroke-dasharray:5.55 5.55}.cls-3{fill:#323e48}</style></defs><g id="Layer_2" data-name="Layer 2"><g id="Layer_1-2" data-name="Layer 1"><path class="cls-1" d="M40.15 66.79a32.51 32.51 0 1132.51-32.51 32.5 32.5 0 01-32.51 32.51z"/><path class="cls-2" d="M72.49 10.11a39.85 39.85 0 01-.8 47.67"/><path class="cls-3" d="M71.54 55.81l.26 1.78 1.78-.26-.65.86-1.78.26-.26-1.78.65-.86z"/><path class="cls-2" d="M7.9 58.45a39.85 39.85 0 01.8-47.67"/><path class="cls-3" d="M8.85 12.76l-.26-1.78-1.78.26.65-.87 1.77-.26.26 1.78-.64.87z"/><path class="cls-4" d="M57 40.72c-6 0-11-4.42-12.51-5.94a.7.7 0 010-1C46 32.27 51 27.84 57 27.84s11 4.43 12.49 5.94a.7.7 0 010 1c-1.56 1.52-6.57 5.94-12.49 5.94z"/><path class="cls-3" d="M53.7 29.1a5.19 5.19 0 11-3.7 1.52 5.15 5.15 0 013.7-1.52m0-1a6.18 6.18 0 104.37 1.81 6.16 6.16 0 00-4.37-1.81z"/><circle class="cls-3" cx="51.55" cy="32.13" r="3.13"/><path class="cls-4" d="M23.33 40.72c-5.94 0-10.95-4.42-12.49-5.94a.7.7 0 010-1c1.54-1.51 6.55-5.94 12.49-5.94s11 4.43 12.49 5.94a.7.7 0 010 1c-1.54 1.52-6.55 5.94-12.49 5.94z"/><path class="cls-3" d="M20.05 29.1a5.19 5.19 0 11-3.66 1.52 5.15 5.15 0 013.66-1.52m0-1a6.18 6.18 0 104.37 1.81 6.16 6.16 0 00-4.37-1.81z"/><circle class="cls-3" cx="17.9" cy="32.13" r="3.13"/><circle class="cls-3" cx="40.15" cy="1.77" r="1.77"/><path class="cls-1" d="M131.92 66.79a32.51 32.51 0 1132.51-32.51 32.5 32.5 0 01-32.51 32.51z"/><path class="cls-2" d="M164.71 10.81a39.83 39.83 0 01-1.83 47.64"/><path class="cls-3" d="M164.47 12.77l.35-1.76 1.76.35-.6-.9-1.76-.35-.35 1.77.6.89z"/><path class="cls-2" d="M99.13 57.75A39.83 39.83 0 01101 10.11"/><path class="cls-3" d="M99.37 55.79l-.35 1.76-1.76-.35.6.9 1.76.35.35-1.76-.6-.9z"/><path class="cls-4" d="M115.09 27.84c6.09 0 11.19 4.64 12.6 6a.57.57 0 010 .8c-1.41 1.41-6.51 6-12.6 6s-11.19-4.64-12.59-6a.56.56 0 010-.79c1.4-1.37 6.5-6.01 12.59-6.01z"/><path class="cls-3" d="M118.37 29.1a5.19 5.19 0 11-3.66 1.52 5.15 5.15 0 013.66-1.52m0-1a6.18 6.18 0 104.37 1.81 6.16 6.16 0 00-4.37-1.81z"/><circle class="cls-3" cx="120.53" cy="36.44" r="3.13"/><path class="cls-4" d="M148.75 27.84c6.08 0 11.18 4.64 12.59 6a.57.57 0 010 .8c-1.41 1.41-6.51 6-12.59 6s-11.2-4.64-12.6-6a.56.56 0 010-.79c1.4-1.37 6.51-6.01 12.6-6.01z"/><path class="cls-3" d="M152 29.1a5.19 5.19 0 11-3.66 1.52A5.15 5.15 0 01152 29.1m0-1a6.18 6.18 0 104.37 1.81A6.16 6.16 0 00152 28.1z"/><circle class="cls-3" cx="154.18" cy="36.44" r="3.13"/><circle class="cls-3" cx="131.92" cy="1.77" r="1.77"/></g></g></svg>