<svg xmlns="http://www.w3.org/2000/svg" viewBox="0 0 178.87 64.99"><defs><style>.cls-3,.cls-4{fill:none;stroke-miterlimit:10}.cls-2{fill:#323e48}.cls-3,.cls-4{stroke:#323e48}.cls-3{stroke-width:.75px;stroke-dasharray:5 5}</style></defs><g id="Layer_2" data-name="Layer 2"><g id="Layer_1-2" data-name="Layer 1"><path stroke="#f4cb19" fill="none" stroke-miterlimit="10" d="M89.43 62.36V2.63"/><circle class="cls-2" cx="89.43" cy="1.77" r="1.77"/><circle class="cls-2" cx="89.43" cy="63.22" r="1.77"/><path class="cls-3" d="M99.36 64.13V32.49"/><path class="cls-2" d="M100.63 62.64l-1.27 1.27-1.28-1.27v1.08l1.28 1.27 1.27-1.27v-1.08z"/><path class="cls-3" d="M79.51.86v31.63"/><path class="cls-2" d="M78.24 2.35l1.27-1.27 1.27 1.27V1.27L79.51 0l-1.27 1.27v1.08z"/><path class="cls-4" d="M46.91 38.93c-6.08 0-11.18-4.63-12.59-6a.55.55 0 010-.8c1.41-1.4 6.51-6 12.59-6s11.18 4.64 12.59 6a.55.55 0 010 .8c-1.41 1.37-6.5 6-12.59 6z"/><path class="cls-2" d="M46.91 27.05a5.19 5.19 0 11-5.18 5.19 5.19 5.19 0 015.18-5.19m0-1a6.19 6.19 0 106.18 6.19 6.19 6.19 0 00-6.18-6.19z"/><circle class="cls-2" cx="46.91" cy="29.19" r="3.13"/><path class="cls-4" d="M13.26 38.93c-6.08 0-11.18-4.63-12.59-6a.55.55 0 010-.8c1.41-1.4 6.51-6 12.59-6s11.18 4.64 12.59 6a.55.55 0 010 .8c-1.41 1.37-6.51 6-12.59 6z"/><path class="cls-2" d="M13.26 27.05a5.19 5.19 0 11-5.18 5.19 5.19 5.19 0 015.18-5.19m0-1a6.19 6.19 0 106.18 6.19 6.19 6.19 0 00-6.18-6.19z"/><circle class="cls-2" cx="13.26" cy="29.19" r="3.13"/><path class="cls-4" d="M132 26.05c6.08 0 11.18 4.64 12.59 6a.57.57 0 010 .8c-1.41 1.41-6.51 6-12.59 6s-11.19-4.63-12.59-6a.55.55 0 010-.8c1.36-1.36 6.47-6 12.59-6z"/><path class="cls-2" d="M132 27.57a5.18 5.18 0 11-5.19 5.18 5.18 5.18 0 015.19-5.18m0-1a6.18 6.18 0 106.18 6.18 6.19 6.19 0 00-6.18-6.18z"/><circle class="cls-2" cx="131.96" cy="35.8" r="3.13"/><path class="cls-4" d="M165.61 26.05c6.08 0 11.18 4.64 12.59 6a.57.57 0 010 .8c-1.41 1.41-6.51 6-12.59 6s-11.19-4.63-12.59-6a.55.55 0 010-.8c1.4-1.36 6.51-6 12.59-6z"/><path class="cls-2" d="M165.61 27.57a5.18 5.18 0 11-5.18 5.18 5.18 5.18 0 015.18-5.18m0-1a6.18 6.18 0 106.18 6.18 6.18 6.18 0 00-6.18-6.18z"/><circle class="cls-2" cx="165.61" cy="35.8" r="3.13"/></g></g></svg>