<svg viewBox="0 0 32 32" xmlns="http://www.w3.org/2000/svg"><defs><style>.cls-1{fill:#458ff6}</style></defs><g data-name="7. Health Chat" id="_7._Health_Chat"><path class="cls-1" d="M13 32a12.69 12.69 0 01-4.08-.67 2 2 0 00-.92-.11L1.11 32a1 1 0 01-.82-.28 1 1 0 01-.29-.83L.78 24a2.06 2.06 0 00-.11-.93A13 13 0 0110.94 6.16a13 13 0 015 25.51A13.39 13.39 0 0113 32zm-4.82-2.8a4.15 4.15 0 011.36.24 11 11 0 101.7-21.3 11 11 0 00-8.68 14.32 4 4 0 01.21 1.79l-.63 5.61 5.61-.63a3 3 0 01.43-.03z"/><path d="M15 26h-4a1 1 0 01-1-1v-3H7a1 1 0 01-1-1v-4a1 1 0 011-1h3v-3a1 1 0 011-1h4a1 1 0 011 1v3h3a1 1 0 011 1v4a1 1 0 01-1 1h-3v3a1 1 0 01-1 1zm-3-2h2v-3a1 1 0 011-1h3v-2h-3a1 1 0 01-1-1v-3h-2v3a1 1 0 01-1 1H8v2h3a1 1 0 011 1z" fill="#458ff6"/><path class="cls-1" d="M29 20.65a1 1 0 01-1-1 1 1 0 01.17-.56A10.83 10.83 0 0030 13 11 11 0 0019 2a10.83 10.83 0 00-6.08 1.85 1 1 0 01-.56.17 1 1 0 01-.48-1.88A12.83 12.83 0 0119 0a13 13 0 0113 13 12.81 12.81 0 01-2.17 7.16 1 1 0 01-.83.49z"/></g></svg>