<svg viewBox="0 0 32 32" xmlns="http://www.w3.org/2000/svg"><g data-name="32. Network" fill="#458ff6"><path d="M29.83 17.16a15.1 15.1 0 10-12.67 12.67 9 9 0 0012.67-12.67zM15.41 28a18.64 18.64 0 01-4.72-8h3.84a8.81 8.81 0 00-.53 3 9 9 0 001.51 5zm.11-10h-5.25a17.52 17.52 0 01-.27-3 18.59 18.59 0 01.26-3h9.48a17.63 17.63 0 01.26 2.53A9.09 9.09 0 0015.52 18zM2 15a12.9 12.9 0 01.36-3h5.88A21.18 21.18 0 008 15a21.18 21.18 0 00.24 3H2.36A12.9 12.9 0 012 15zm17.31-5h-8.62A18.3 18.3 0 0115 2.43 18.3 18.3 0 0119.31 10zM22 14.07a20.15 20.15 0 00-.24-2.07h5.88a12.9 12.9 0 01.36 3v.51A9 9 0 0023 14a9.26 9.26 0 00-1 .07zM27 10h-5.64a19.9 19.9 0 00-3.9-7.76A13 13 0 0127 10zM12.54 2.24A19.9 19.9 0 008.64 10H3a13 13 0 019.54-7.76zM3 20h5.63a20.34 20.34 0 003.91 7.76A13 13 0 013 20zm20 10a7 7 0 117-7 7 7 0 01-7 7z"/><path d="M26 22h-2v-2a1 1 0 00-2 0v2h-2a1 1 0 000 2h2v2a1 1 0 002 0v-2h2a1 1 0 000-2z"/></g></svg>