<svg viewBox="0 0 32 32" xmlns="http://www.w3.org/2000/svg"><defs><style>.cls-1{fill:#458ff6}</style></defs><g data-name="23. Herbal" id="_23._Herbal"><path class="cls-1" d="M17 7h-3a3.93 3.93 0 00-2.85 1.21A5 5 0 007 6H3a1 1 0 00-1 1v2a5 5 0 005 5h7a4 4 0 004-4V8a1 1 0 00-1-1zM4 9V8h3a3 3 0 013 3v1H7a3 3 0 01-3-3zm12 1a2 2 0 01-2 2h-2v-1a2 2 0 012-2h2z"/><path d="M31 12h-2.54L29 9.56a5 5 0 00-.76-9.41 5 5 0 00-4.33.92A5 5 0 0022 5a5.13 5.13 0 001.24 3.32L22.42 12H1a1 1 0 00-1 1v4a1 1 0 001 1h1v3a11 11 0 0011 11h6a11 11 0 0011-11v-3h1a1 1 0 001-1v-4a1 1 0 00-1-1zm-6.25-5a3 3 0 01.4-4.33 3 3 0 012.62-.55 3 3 0 01.43 5.64 1.89 1.89 0 00-1.13 1.33L26.42 12h-2l.72-3.24A2 2 0 0024.75 7zM28 21a9 9 0 01-9 9h-6a9 9 0 01-9-9v-3h24zm2-5H2v-2h28z" fill="#458ff6"/><path class="cls-1" d="M18 23h-1v-1a1 1 0 00-2 0v1h-1a1 1 0 000 2h1v1a1 1 0 002 0v-1h1a1 1 0 000-2zM7 4a1 1 0 010-2 1 1 0 010 2zM15 5a1 1 0 010-2 1 1 0 010 2zM11 2a1 1 0 010-2 1 1 0 010 2z"/></g></svg>