<svg viewBox="0 0 32 32" xmlns="http://www.w3.org/2000/svg"><defs><style>.cls-1{fill:#458ff6}</style></defs><g data-name="21. Clipboard" id="_21._Clipboard"><path class="cls-1" d="M19 6h-1a2 2 0 00-2-2h-1V3a3 3 0 00-6 0v1H8a2 2 0 00-2 2H5a3 3 0 00-3 3v20a3 3 0 003 3h14a3 3 0 003-3V9a3 3 0 00-3-3zm-8-3a1 1 0 012 0v1h-2zM8 6h8v2H8zm12 23a1 1 0 01-1 1H5a1 1 0 01-1-1V9a1 1 0 011-1h1a2 2 0 002 2h8a2 2 0 002-2h1a1 1 0 011 1zM27 6a3 3 0 00-3 3v19a1 1 0 00.17.55l2 3a1 1 0 001.66 0l2-3A1 1 0 0030 28V9a3 3 0 00-3-3zm0 2a1 1 0 011 1v2h-2V9a1 1 0 011-1zm0 21.2l-1-1.5V13h2v14.7z"/><path d="M14 26h-4a1 1 0 01-1-1v-2H7a1 1 0 01-1-1v-4a1 1 0 011-1h2v-2a1 1 0 011-1h4a1 1 0 011 1v2h2a1 1 0 011 1v4a1 1 0 01-1 1h-2v2a1 1 0 01-1 1zm-3-2h2v-2a1 1 0 011-1h2v-2h-2a1 1 0 01-1-1v-2h-2v2a1 1 0 01-1 1H8v2h2a1 1 0 011 1z" fill="#458ff6"/></g></svg>