<svg xmlns="http://www.w3.org/2000/svg" viewBox="0 0 64 64"><style>.st0{display:none}.st2{fill:none;stroke:#fff;stroke-width:2;stroke-miterlimit:10}.st2,.st3{display:inline}.st4{stroke-dasharray:1.9857,1.9857}.st4,.st5,.st6,.st7{fill:none;stroke:#fff;stroke-width:2;stroke-miterlimit:10}.st6,.st7{display:inline;stroke-dasharray:1.9857,1.9857}.st7{stroke-dasharray:1.986,1.9857}.st8{fill:#fff}.st9{font-family:&apos;Montserrat-Bold&apos;}.st10{font-size:7px}</style><g id="bg" class="st0"><path id="XMLID_119_" display="inline" fill="#fff" d="M-218-268.2h500v600.3h-500z"/></g><g id="icons"><g id="XMLID_62_" class="st0"><path id="XMLID_44_" class="st2" d="M40.3 52.1H23.7l-1.1-2.4v-7.1h18.8v7z"/><path id="XMLID_29_" class="st2" d="M29.4 52.1h5.3v3h-5.3z"/><path id="XMLID_25_" class="st2" d="M45.3 28.1c0-7.3-5.9-13.3-13.3-13.3s-13.3 5.9-13.3 13.3c0 4.7 2.4 8.8 6.1 11.1v3.3h14.4v-3.3c3.7-2.3 6.1-6.4 6.1-11.1z"/><path id="XMLID_21_" class="st2" d="M22.6 47.3h8.2"/><g id="XMLID_16_" class="st3"><path id="XMLID_17_" class="st4" d="M15.5 39.7c-2.1-3.1-3.3-6.9-3.3-11C12.2 17.8 21.1 9 32 9s19.8 8.9 19.8 19.8c0 4.4-1.5 8.5-3.9 11.8"/></g><path id="XMLID_14_" class="st2" d="M26 27.5l4 4 8-8"/></g><g id="XMLID_64_"><path id="XMLID_7_" transform="rotate(-45.001 48.046 48.047)" class="st5" d="M46.1 42.5H50v11h-3.9z"/><path id="XMLID_9_" class="st5" d="M41.5 41.5l2.2 2.2"/><path id="XMLID_36_" class="st5" d="M45.5 26.2c1.5 5.3.2 11.2-4 15.3-6.1 6.1-16 6.1-22.1 0-6.1-6.1-6.1-16 0-22.1 6.1-6.1 16-6.1 22.1 0 .8.8 1.6 1.8 2.2 2.7"/><path id="XMLID_8_" class="st5" d="M16.8 38.9l11.9-12 6.6 6.7L51 18"/><path id="XMLID_2_" class="st5" d="M48.5 17.2h3.3v3.3"/><path id="XMLID_40_" class="st4" d="M39.5 48.1c-2.7 1.4-5.8 2.2-9.1 2.2-10.9 0-19.8-8.9-19.8-19.8s8.9-19.8 19.8-19.8c5.4 0 10.3 2.2 13.9 5.7"/></g><g id="XMLID_99_" class="st0"><path id="XMLID_77_" class="st2" d="M38.9 40.8V52c0 1.2-1 2.2-2.2 2.2H14.8c-1.2 0-2.2-1-2.2-2.2V12c0-1.2 1-2.2 2.2-2.2h21.9c1.2 0 2.2 1 2.2 2.2v8.4"/><path id="XMLID_68_" class="st2" d="M12.5 16.5h26.4"/><path id="XMLID_69_" class="st2" d="M21.5 13.3H30"/><path id="XMLID_67_" class="st2" d="M12.5 47.5h26.4"/><path id="XMLID_70_" class="st2" d="M49.4 39h-18l-4.9 4.2h-.1v-19c0-1.2 1-2.1 2.1-2.1h20.9c1.2 0 2.1 1 2.1 2.1v12.7c0 1.1-1 2.1-2.1 2.1z"/><g id="XMLID_76_" class="st3"><path id="XMLID_72_" class="st5" d="M43.1 26.3h-4.3c-1.2 0-2.1 1-2.1 2.1 0 1.2 1 2.1 2.1 2.1h2.1c1.2 0 2.1 1 2.1 2.1 0 1.2-1 2.1-2.1 2.1h-4.5"/><path id="XMLID_73_" class="st5" d="M39.9 24.1v2.2"/><path id="XMLID_71_" class="st5" d="M39.9 34.9V37"/></g></g><g id="XMLID_100_" class="st0"><g id="XMLID_94_" class="st3"><path id="XMLID_98_" class="st5" d="M34.8 22.2h-3.6c-1 0-1.8.8-1.8 1.8s.8 1.8 1.8 1.8h1.7c1 0 1.8.8 1.8 1.8s-.8 1.8-1.8 1.8h-3.8"/><path id="XMLID_97_" class="st5" d="M32.1 20.4v1.8"/><path id="XMLID_95_" class="st5" d="M32.1 29.4v1.8"/></g><path id="XMLID_80_" class="st2" d="M50.5 36.6h-37c-1.1 0-2-.9-2-2V16.9c0-1.1.9-2 2-2h37.1c1.1 0 2 .9 2 2v17.7c-.1 1.1-1 2-2.1 2z"/><path id="XMLID_82_" class="st2" d="M17.9 15c0 3.5-2.8 6.4-6.4 6.4"/><path id="XMLID_83_" class="st2" d="M46.1 15c0 3.5 2.8 6.4 6.4 6.4"/><path id="XMLID_87_" class="st2" d="M17.9 36.6c0-3.5-2.8-6.4-6.4-6.4"/><path id="XMLID_86_" class="st2" d="M46.1 36.6c0-3.5 2.8-6.4 6.4-6.4"/><circle id="XMLID_85_" class="st2" cx="32" cy="25.8" r="7.5"/><path id="XMLID_89_" class="st2" d="M19.8 25.8h2.4"/><path id="XMLID_88_" class="st2" d="M41.5 25.8h2.4"/><path id="XMLID_91_" class="st2" d="M11.5 41.1h41"/><path id="XMLID_90_" class="st2" d="M11.5 45h41"/><path id="XMLID_92_" class="st2" d="M11.5 49h41"/></g><g id="XMLID_105_" class="st0"><path id="XMLID_145_" class="st2" d="M40.3 52.1H23.7l-1.1-2.4v-7.1h18.8v7z"/><path id="XMLID_144_" class="st2" d="M29.4 52.1h5.3v3h-5.3z"/><path id="XMLID_143_" class="st2" d="M45.3 28.1c0-7.3-5.9-13.3-13.3-13.3s-13.3 5.9-13.3 13.3c0 4.7 2.4 8.8 6.1 11.1v3.3h14.4v-3.3c3.7-2.3 6.1-6.4 6.1-11.1z"/><path id="XMLID_142_" class="st2" d="M22.6 47.3h8.2"/><g id="XMLID_135_" class="st3"><path id="XMLID_136_" class="st4" d="M15.5 39.7c-2.1-3.1-3.3-6.9-3.3-11C12.2 17.8 21.1 9 32 9s19.8 8.9 19.8 19.8c0 4.4-1.5 8.5-3.9 11.8"/></g><g id="XMLID_146_" class="st3"><path id="XMLID_148_" class="st5" d="M41.3 29.2v-2l-3.2-.5c-.2-.7-.4-1.3-.8-1.9l1.9-2.6-1.4-1.4-2.6 1.9c-.6-.4-1.2-.6-1.9-.8l-.3-3h-2l-.4 3.1c-.7.2-1.3.4-1.9.8l-2.6-1.9-1.4 1.4 1.9 2.6c-.4.6-.6 1.2-.8 1.9l-3.2.5v2l3.2.5c.2.7.4 1.3.8 1.9l-1.9 2.6 1.4 1.4 2.6-1.9c.6.4 1.2.6 1.9.8l.5 3.2h2l.5-3.2c.7-.2 1.3-.4 1.9-.8l2.6 1.9 1.4-1.4-1.9-2.6c.4-.6.6-1.2.8-1.9l2.9-.6z"/><circle id="XMLID_147_" class="st5" cx="32" cy="28.2" r="2.8"/></g></g><g id="XMLID_150_" class="st0"><g id="XMLID_84_" class="st3"><path id="XMLID_107_" class="st5" d="M32.1 35.8v-2.4l-3.8-.5c-.2-.8-.5-1.5-.9-2.2l2.3-3-1.7-1.8-3 2.3c-.7-.4-1.4-.7-2.2-.9l-.5-3.8h-2.4l-.5 3.8c-.8.2-1.5.5-2.2.9l-3-2.3-1.7 1.7 2.3 3c-.4.7-.7 1.4-.9 2.2l-3.8.5v2.4l3.8.6c.2.8.5 1.5.9 2.2l-2.3 3 1.7 1.7 3-2.3c.7.4 1.4.7 2.2.9l.5 3.8h2.4l.5-3.8c.8-.2 1.5-.5 2.2-.9l3 2.3 1.7-1.7-2.3-3c.4-.7.7-1.4.9-2.2l3.8-.5z"/><circle id="XMLID_81_" class="st5" cx="21" cy="34.6" r="3.4"/></g><path id="XMLID_93_" class="st2" d="M54.1 48.9c0-5.2-7.6-3.9-7.6-3.9V11.3h3.8c2.1 0 3.8 1.7 3.8 3.8v33.8z"/><path id="XMLID_102_" class="st2" d="M20.9 21v-2.2c0-1 .8-1.8 1.8-1.8h21.4"/><path id="XMLID_96_" class="st2" d="M54.1 42.3v6.1c0 2.4-1.9 4.3-4.3 4.3h-27c-1 0-1.8-.8-1.8-1.8V48"/><path id="XMLID_104_" class="st6" d="M28.3 21c5.8 2 9.9 7.5 9.9 14 0 6-3.6 11.2-8.8 13.5"/></g><g id="XMLID_112_" class="st0"><g id="XMLID_128_" class="st3"><path id="XMLID_133_" class="st5" d="M25.2 36.2h-5c-1.4 0-2.5 1.1-2.5 2.5s1.1 2.5 2.5 2.5h2.4c1.4 0 2.5 1.1 2.5 2.5s-1.1 2.5-2.5 2.5h-5.2"/><path id="XMLID_132_" class="st5" d="M21.5 33.6v2.6"/><path id="XMLID_131_" class="st5" d="M21.5 46.2v2.4"/></g><circle id="XMLID_120_" class="st2" cx="21.3" cy="41.1" r="12"/><path id="XMLID_108_" class="st2" d="M12.1 41.1H15"/><path id="XMLID_106_" class="st2" d="M27.6 41.1h2.9"/><path id="XMLID_121_" class="st2" d="M39.9 30.3v-7h5.4c.2 0 .3-.2.1-.3L33.3 10.8c-.1-.1-.2-.1-.3 0L20.8 23c-.1.1 0 .3.1.3h5.4v4.5"/><path id="XMLID_117_" class="st2" d="M50.4 53.2V41.5h4.2c.1 0 .2-.2.1-.3l-9.4-9.4c-.1-.1-.2-.1-.2 0l-2.4 2.4"/><path id="XMLID_110_" class="st6" d="M39.9 52.1V30.3"/></g><g id="XMLID_123_" class="st0"><path id="XMLID_109_" class="st2" d="M53.3 31.8v.2C52.2 33.2 40.7 45.6 32 45.6c-8.7 0-20.2-12.5-21.3-13.7v-.2C11.8 30.5 23.3 18 32 18c8.7.1 20.2 12.6 21.3 13.8z"/><path id="XMLID_114_" class="st2" d="M41.4 34.6c-1.1 4.2-5 7.3-9.6 7.3-5.5 0-9.9-4.4-9.9-9.9 0-4.6 3.1-8.4 7.4-9.6"/><path id="XMLID_113_" class="st2" d="M31.8 20v12h12.7"/><path id="XMLID_111_" class="st2" d="M31.6 22.1c5.5 0 9.9 4.4 9.9 9.9"/><path id="XMLID_116_" class="st2" d="M31.9 11.1v4.3"/><path id="XMLID_122_" class="st2" d="M42.2 13.8L40 17.5"/><path id="XMLID_115_" class="st2" d="M21.5 14l2.1 3.7"/><path id="XMLID_126_" class="st2" d="M31.9 52.9v-4.3"/><path id="XMLID_125_" class="st2" d="M42.2 50.2L40 46.5"/><path id="XMLID_124_" class="st2" d="M21.5 50l2.1-3.7"/><path id="XMLID_137_" class="st2" d="M36.5 32c0 2.6-2.1 4.7-4.7 4.7s-4.7-2.1-4.7-4.7 2.1-4.7 4.7-4.7"/></g><g id="XMLID_161_" class="st0"><path id="XMLID_153_" class="st2" d="M14.4 55V42c0-.9.6-1.6 1.4-1.9L27 36.2v-4.3"/><path id="XMLID_157_" class="st2" d="M49.6 55V42c0-.9-.6-1.6-1.4-1.9L37 36.2v-4.3"/><path id="XMLID_162_" class="st2" d="M40.4 19.3l.1-1.8c0-4.7-3.8-8.5-8.5-8.5s-8.5 3.8-8.5 8.5l.1 1.8h-.1c-1 0-1.7.9-1.5 1.9l.1.3c.2.9 1 1.6 1.9 1.7l.4 4.5c.1 1.4.9 2.6 2.1 3.3l4.1 2.7h2.7l4.3-2.7c1.2-.6 2-1.9 2.1-3.3l.4-4.5c.8-.2 1.4-.9 1.6-1.7l.1-.3c.2-.9-.5-1.8-1.4-1.9z"/><path id="XMLID_151_" class="st2" d="M30.2 43.9l-1.1-3.3 2.8-2 2.8 2-1.1 3.3h-3.4z"/><path id="XMLID_160_" class="st2" d="M30.2 43.9L29.1 55"/><path id="XMLID_156_" class="st2" d="M33.4 43.9L34.5 55"/><path id="XMLID_163_" class="st2" d="M27 36.2l3.2 3.6"/><path id="XMLID_164_" class="st2" d="M37.2 36.2L34 39.8"/><path id="XMLID_165_" class="st2" d="M19.4 48.3h6v4L24 54h-1.6"/><path id="XMLID_166_" class="st2" d="M23.4 45.3v3"/></g><g id="XMLID_179_" class="st0"><g id="XMLID_169_" class="st3"><path id="XMLID_174_" class="st5" d="M27.4 24.3H11.5c-.4 0-.8.4-.8.8v24.3"/><path id="XMLID_173_" class="st5" d="M49.6 49.4V34.7"/><path id="XMLID_175_" class="st5" d="M27.4 27.6h-13v19.9"/><path id="XMLID_172_" class="st5" d="M45.9 47.5V37.4"/><path id="XMLID_797_" class="st5" d="M49.9 52.9H10.2c-.5 0-.9-.4-1-.9l-.4-2.3h17.6l.7 1H32l.7-1h18.6l-.4 2.3c-.1.5-.5.9-1 .9z"/></g><path id="XMLID_443_" class="st2" d="M29.8 37.4l5.5-1c1.8.8 3.8 1.1 5.9.8 4.8-.7 8.6-4.6 9.2-9.4.8-7-5.1-12.8-12.1-12-4.8.6-8.7 4.5-9.3 9.3-.3 2.6.3 5.1 1.6 7.1l-.9 5c-.1.1 0 .2.1.2z"/><path id="XMLID_171_" class="st2" d="M42.6 26.6L37 29.9c-.1 0-.1 0-.1-.1v-6.5c0-.1.1-.1.1-.1l5.6 3.3v.1L37 29.9c-.1 0-.1 0-.1-.1v-6.5c0-.1.1-.1.1-.1l5.6 3.3v.1z"/><path id="XMLID_178_" class="st2" d="M39.7 11.1c8.5 0 15.5 6.9 15.5 15.5 0 3.4-1.1 6.6-3 9.2"/><path id="XMLID_177_" class="st6" d="M25.1 21.4c2.1-6 7.9-10.3 14.6-10.3"/></g><g id="XMLID_180_" class="st0"><g id="XMLID_257_" class="st3"><path id="XMLID_272_" class="st5" d="M28.2 54.6H12v-1.1c0-1.2 1-2.2 2.2-2.2H29"/><path id="XMLID_194_" class="st5" d="M31 33.1v6.3c0 1.3.1 2.5.4 3.8"/><path id="XMLID_191_" class="st5" d="M14.3 51.3c2.6-3.4 4-7.6 4-11.9v-6.3"/><path id="XMLID_267_" class="st5" d="M32.3 22.5h-1.8c-.2 0-.4.2-.4.4v2.4h-4.5v-2.4c0-.2-.2-.4-.4-.4h-2.7c-.2 0-.4.2-.4.4v2.4h-4.5v-2.4c0-.2-.2-.4-.4-.4h-1.8c-.2 0-.4.2-.4.4v10.2h18.7"/></g><g id="XMLID_189_" class="st3"><path id="XMLID_183_" class="st5" d="M36.6 30s3.7 3.5 0 8.5c-1.9 2.6-6.1 6.8-2.7 12.8"/><path id="XMLID_188_" class="st5" d="M45.9 30s-3.7 3.5 0 8.5c1.9 2.6 6.1 6.8 2.7 12.8"/><path id="XMLID_182_" class="st5" d="M52 54.8H30.6V53c0-1 .8-1.9 1.9-1.9h17.7c1 0 1.9.8 1.9 1.9v1.8z"/><path id="XMLID_187_" class="st5" d="M34.2 26.9h14.5v3.2H34.2z"/><path id="XMLID_190_" class="st5" d="M37.9 26.9c-2.2 0-4-1.9-3.7-4.2.2-1.6 1.5-3 3.1-3.2.9-.2 1.8 0 2.6.5h.1v-3.4h-2.8c-.1 0-.1 0-.1-.1V13c0-.1 0-.1.1-.1H40V9.3c0-.1 0-.1.1-.1h2.8c.1 0 .1 0 .1.1v3.5h2.8c.1 0 .1 0 .1.1v3.5c0 .1 0 .1-.1.1H43v3.4h.1c.7-.4 1.6-.6 2.6-.5 1.6.3 2.9 1.6 3.1 3.2.3 2.3-1.5 4.2-3.7 4.2"/></g></g><g id="XMLID_217_" class="st0"><g id="XMLID_206_" class="st3"><path id="XMLID_209_" class="st5" d="M40.7 32.9V31l-3-.4c-.1-.6-.4-1.2-.7-1.8l1.8-2.4-1.3-1.3-2.4 1.9c-.5-.3-1.1-.6-1.8-.7l-.4-3H31l-.4 3c-.6.1-1.2.4-1.7.7l-2.4-1.8-1.3 1.3 1.8 2.4c-.3.5-.6 1.1-.7 1.8l-3 .4V33l3 .4c.1.6.4 1.2.7 1.8l-1.8 2.4 1.3 1.3 2.4-1.8c.5.3 1.1.6 1.8.7l.4 3H33l.4-3c.6-.1 1.2-.4 1.8-.7l2.4 1.8 1.3-1.3-1.9-2.5c.3-.5.6-1.1.7-1.8l3-.4z"/><circle id="XMLID_207_" class="st5" cx="32" cy="32" r="2.7"/></g><circle id="XMLID_186_" class="st2" cx="32" cy="32" r="18.5"/><path id="XMLID_214_" class="st6" d="M50.6 19.4C53 23 54.5 27.3 54.5 32c0 4.7-1.4 9.1-3.9 12.7"/><path id="XMLID_218_" class="st6" d="M20 13c3.5-2.2 7.6-3.5 12-3.5 4.7 0 9 1.4 12.6 3.9"/><path id="XMLID_216_" class="st6" d="M13.4 44.6C10.9 41 9.5 36.7 9.5 32c0-5 1.6-9.6 4.4-13.4"/><path id="XMLID_213_" class="st6" d="M43.6 51.3c-3.4 2-7.4 3.2-11.6 3.2-5.2 0-9.9-1.7-13.7-4.7"/><circle id="XMLID_193_" class="st2" cx="32" cy="32" r="11.9"/><path id="XMLID_197_" class="st2" d="M16.9 21.4l4.3 4.3"/><path id="XMLID_196_" class="st2" d="M21.2 17.1l4.3 4.3"/><path id="XMLID_203_" class="st2" d="M42.6 47.1L38 42.5"/><path id="XMLID_202_" class="st2" d="M46.9 42.8l-4.6-4.6"/><path id="XMLID_200_" class="st2" d="M47.3 21.4l-4.4 4.4"/><path id="XMLID_199_" class="st2" d="M43 17.1l-4.4 4.4"/><path id="XMLID_201_" class="st2" d="M26 42.7l-4.6 4.6"/><path id="XMLID_198_" class="st2" d="M21.7 38.4L17.1 43"/><path id="XMLID_210_" class="st2" d="M16.3 18.2l-1.7-1.7c-.7-.7-.7-1.8 0-2.4.7-.7 1.8-.7 2.4 0"/><path id="XMLID_204_" class="st2" d="M45.9 16.3l1.7-1.7c.7-.7 1.8-.7 2.4 0 .7.7.7 1.8 0 2.4"/><path id="XMLID_211_" class="st2" d="M47.7 45.9l1.7 1.7c.7.7.7 1.8 0 2.4-.7.7-1.8.7-2.4 0"/><path id="XMLID_212_" class="st2" d="M18.1 47.7l-1.7 1.7c-.7.7-1.8.7-2.4 0-.7-.7-.7-1.8 0-2.4"/></g><g id="XMLID_394_" class="st0"><g id="XMLID_375_" class="st3"><path id="XMLID_379_" class="st5" d="M11.9 54v-2.4c0-.5.3-.9.7-1l5.9-2v-3.3"/><path id="XMLID_378_" class="st5" d="M30.3 54v-2.4c0-.5-.3-.9-.7-1l-5.9-2v-3.3"/><path id="XMLID_377_" class="st5" d="M25.6 37.8c0-2.5-2-4.4-4.4-4.4-2.5 0-4.4 2-4.4 4.4l.4 5.3c.1.7.5 1.4 1.1 1.7l2.2 1.4h1.4l2.2-1.4c.6-.3 1.1-1 1.1-1.7l.4-5.3z"/><path id="XMLID_376_" class="st5" d="M18.5 48.5l1.7 1.9h2l1.6-1.9"/></g><g id="XMLID_381_" class="st3"><path id="XMLID_386_" class="st5" d="M33.7 54v-2.2c0-.5.3-.9.7-1l5.9-2v-3.3"/><path id="XMLID_384_" class="st5" d="M52.1 54v-2.2c0-.5-.3-.9-.7-1l-5.9-2v-3.3"/><path id="XMLID_383_" class="st5" d="M47.3 38c0-2.5-2-4.4-4.4-4.4-2.5 0-4.4 2-4.4 4.4l.4 5.3c.1.7.5 1.4 1.1 1.7l2.2 1.4h1.4l2.2-1.4c.6-.3 1.1-1 1.1-1.7l.4-5.3z"/><path id="XMLID_382_" class="st5" d="M40.3 48.8l1.6 1.9h2l1.7-1.9"/></g><g id="XMLID_387_" class="st3"><path id="XMLID_392_" class="st5" d="M27 43l2.5-.8v-3.1"/><path id="XMLID_391_" class="st5" d="M36.8 43.1l-2.4-.9v-3.1"/><path id="XMLID_390_" class="st5" d="M36.2 32c0-2.3-1.9-4.2-4.2-4.2-2.3 0-4.2 1.9-4.2 4.2l.4 5.1c0 .7.4 1.3 1.1 1.6l2 1.3h1.3l2.1-1.3c.6-.3 1-.9 1.1-1.6l.4-5.1z"/><path id="XMLID_389_" class="st5" d="M29.5 42.2l1.6 1.8h1.8l1.6-1.8"/></g><g id="XMLID_412_" class="st3"><path id="XMLID_393_" class="st5" d="M46.8 32.4v-3.2l-5-.7c-.3-1.1-.7-2.1-1.2-3l3.1-4.1-2.2-2.2-4.1 3.1c-.9-.6-1.9-1-3-1.2l-.7-5.1h-3.2l-.7 5.1c-1.1.3-2.1.7-3 1.2l-4.1-3.1-2.3 2.2 3 4.1c-.6.9-1 1.9-1.2 3l-5.1.7v3.2"/></g><path id="XMLID_413_" class="st6" d="M13.8 38.1c-1.2-2.6-1.9-5.4-1.9-8.4C12 18.8 20.8 10 31.6 10c10.9 0 19.7 8.8 19.7 19.7 0 2.9-.6 5.6-1.7 8"/></g><g id="XMLID_224_" class="st0"><path id="XMLID_219_" class="st2" d="M31.2 35.8H25c-.4 0-.7-.3-.7-.7v-1.5c0-.4.2-.9.6-1.1l4.6-3.4c.4-.3.7-.8.7-1.3v-.7c0-.7-.6-1.3-1.3-1.3h-3.3c-.7 0-1.3.6-1.3 1.3v.5"/><path id="XMLID_220_" class="st2" d="M37.9 36.7V25.8h-1.1L32 31.6v.1h8.7"/><path id="XMLID_221_" class="st2" d="M31.3 53.4h-4.2c-.9 0-1.6-.7-1.6-1.6 0-.9.7-1.6 1.6-1.6h4.2c.9 0 1.6.7 1.6 1.6 0 .9-.7 1.6-1.6 1.6z"/><path id="XMLID_223_" class="st2" d="M16.5 35.9h-3.4c-1.6 0-3-1.3-3-3v-4.4c0-1.6 1.3-3 3-3h3.4v10.4z"/><path id="XMLID_225_" class="st2" d="M47.5 35.9h3.4c1.6 0 3-1.3 3-3v-4.4c0-1.6-1.3-3-3-3h-3.4v10.4z"/><path id="XMLID_226_" class="st6" d="M47.2 22.8c-1.5-7-7.8-12.2-15.2-12.2-7.9 0-14.5 6-15.4 13.7"/><path id="XMLID_222_" class="st2" d="M32 51.8c8.5 0 15.5-7 15.5-15.5v-3.2"/></g><g id="XMLID_292_" class="st0"><g id="XMLID_234_" class="st3"><g id="XMLID_243_"><path id="XMLID_247_" class="st5" d="M41.5 15.7h-4.8c-1.3 0-2.4 1.1-2.4 2.4 0 1.3 1.1 2.4 2.4 2.4H39c1.3 0 2.4 1.1 2.4 2.4 0 1.3-1.1 2.4-2.4 2.4h-4.9"/><path id="XMLID_246_" class="st5" d="M38 13.2v2.5"/><path id="XMLID_245_" class="st5" d="M38 25.1v2.3"/></g><circle id="XMLID_242_" class="st5" cx="37.8" cy="20.3" r="11.3"/><path id="XMLID_240_" class="st5" d="M29.2 20.3h2.6"/><path id="XMLID_239_" class="st5" d="M43.8 20.3h2.7"/></g><path id="XMLID_417_" class="st2" d="M9 51h8.6s.1 0 .1-.1V33.1s0-.1-.1-.1H9"/><path id="XMLID_228_" class="st2" d="M17.7 36h11.2c.7.1 1.6.5 2.2 1l7.3 6.8c2.1 1.6-.1 5.1-2.1 3.3l-7.5-5.4v2.6l7 6.6s4.2.4 4.8.5l7.8-3.1c1.3-.5 2.8-.6 4.1-.1 1 .4 1.9.8 2.1 1.3l-13.4 5.4c-.5.2-7.7.2-7.7.2l-15.6-7.6"/><path id="XMLID_230_" class="st2" d="M36.5 42.4c4.3 0 7.9 3.3 8.4 7.4"/><path id="XMLID_233_" class="st2" d="M37.8 31.6v11.2"/><path id="XMLID_231_" class="st2" d="M45.3 36.2s-1.2 3.2-2.6 3.8c-1.5.6-4.6-.9-4.6-.9s1.2-3.2 2.6-3.8c1.5-.6 4.6.9 4.6.9z"/><path id="XMLID_236_" class="st2" d="M20.6 20.4h4.1"/><path id="XMLID_235_" class="st2" d="M21.6 14.5l3.8 1.4"/><path id="XMLID_252_" class="st2" d="M53.9 14.3l-3.8 1.4"/><path id="XMLID_253_" class="st2" d="M55 20.2h-4.1"/><path id="XMLID_254_" class="st2" d="M53.9 26.1l-3.7-1.4"/><path id="XMLID_262_" class="st2" d="M21.7 26.2l3.8-1.4"/></g><g id="XMLID_293_" class="st0"><g id="XMLID_316_" class="st3"><path id="XMLID_319_" class="st5" d="M35.1 19.8h-4c-1.1 0-2 .9-2 2s.9 2 2 2H33c1.1 0 2 .9 2 2s-.9 2-2 2h-4.1"/><path id="XMLID_318_" class="st5" d="M32.2 17.8v2"/><path id="XMLID_317_" class="st5" d="M32.2 27.7v1.9"/></g><circle id="XMLID_315_" class="st2" cx="32" cy="23.7" r="9.4"/><path id="XMLID_298_" class="st7" d="M21.2 15.5c2.6-3.7 7-6.1 11.9-5.9 4.9.2 9 2.8 11.4 6.6"/><path id="XMLID_314_" class="st2" d="M24.8 23.7h2.3"/><path id="XMLID_313_" class="st2" d="M37.1 23.7h2.2"/><path id="XMLID_310_" class="st2" d="M48.9 54.4v-7.2s0-.1-.1-.1H33.9s-.1 0-.1.1v7.2"/><path id="XMLID_309_" class="st2" d="M36.3 47.1v-9.3c.1-.6.5-1.4.9-1.8l5.7-6.1c1.4-1.8 4.3.1 2.7 1.7l-4.5 6.3h2.2l5.5-5.8s.3-3.5.5-4l-2.6-6.5c-.4-1.1-.5-2.3-.1-3.4.3-.8.7-1.5 1.1-1.7l4.5 11.2c.2.4.1 6.4.1 6.4l-6.3 13"/><path id="XMLID_297_" class="st2" d="M15.1 54.4v-7.2s0-.1.1-.1h14.9s.1 0 .1.1v7.2"/><path id="XMLID_296_" class="st2" d="M27.7 47.1v-9.3c-.1-.6-.5-1.4-.8-1.8l-5.7-6.1c-1.4-1.8-4.3.1-2.7 1.7l4.5 6.3h-2.2l-5.5-5.8s-.3-3.5-.5-4l2.6-6.5c.4-1.1.5-2.3.1-3.4-.3-.8-.7-1.5-1.1-1.7l-4.5 11.2c-.2.4-.1 6.4-.1 6.4l6.3 13"/></g><g id="XMLID_248_" class="st0"><path id="XMLID_256_" class="st2" d="M12.4 24.1l-1.9 3.3 21.4 24.4c.1.1.2.1.2 0l21.4-24.4-5.4-9.3H21.6"/><path id="XMLID_255_" class="st2" d="M10.4 27.4h43.2"/><path id="XMLID_485_" class="st2" d="M32 51.9l-9.9-22.5"/><path id="XMLID_484_" class="st2" d="M32 51.4l9.6-22"/><path id="XMLID_791_" class="st2" d="M32 29.4v22"/><path id="XMLID_238_" class="st2" d="M27.2 17.7l-5.7 7.8-1.5-2"/><path id="XMLID_250_" class="st2" d="M37.5 17.7l-5.7 7.8-5.1-6.6"/><path id="XMLID_251_" class="st2" d="M47.7 17.7l-5.6 7.8-5.1-6.6"/><g id="XMLID_249_" class="st3"><path id="XMLID_258_" class="st5" d="M15.7 12.1v2.8"/><path id="XMLID_259_" class="st5" d="M20.9 15.1l-2.4 1.4"/><path id="XMLID_261_" class="st5" d="M20.9 21.1l-2.4-1.4"/><path id="XMLID_265_" class="st5" d="M15.7 24.1v-2.8"/><path id="XMLID_269_" class="st5" d="M10.5 21.1l2.4-1.4"/><path id="XMLID_271_" class="st5" d="M10.5 15.1l2.4 1.4"/></g></g><g id="XMLID_48_" class="st0"><path id="XMLID_54_" class="st2" d="M31.3 49.7H14.2L13 47.2v-7.3h19.5v7.2z"/><path id="XMLID_53_" class="st2" d="M20 49.7h5.5v3.1H20z"/><path id="XMLID_57_" class="st2" d="M36.3 22.4c-1.2-6.3-6.8-11.1-13.5-11.1-7.6 0-13.7 6.1-13.7 13.7 0 4.8 2.5 9.1 6.3 11.5v3.4h14.9v-3.4c3.1-2 5.4-5.2 6.1-9"/><path id="XMLID_51_" class="st2" d="M13 44.8h8.5"/><path id="XMLID_49_" class="st2" d="M47.3 20.8v7.5"/><path id="XMLID_13_" class="st2" d="M47.4 31.8h-.3c-2 0-3.7-1.6-3.7-3.7V21c0-2 1.6-3.7 3.7-3.7h.3c2 0 3.7 1.6 3.7 3.7v7.1c0 2.1-1.6 3.7-3.7 3.7z"/><path id="XMLID_50_" class="st2" d="M51.1 20.8c2.1 0 3.8 1.7 3.8 3.8s-1.7 3.8-3.8 3.8"/><path id="XMLID_55_" class="st2" d="M22.8 24.6H44"/><path id="XMLID_141_" class="st2" d="M26.6 22.1c0-2.1-1.7-3.8-3.8-3.8-2.1 0-3.8 1.7-3.8 3.8 0 1.3.7 2.5 1.7 3.2v6.1h4.2v-6.1c1-.7 1.7-1.9 1.7-3.2z"/></g><g id="XMLID_289_" class="st0"><path id="XMLID_152_" class="st2" d="M50 50.6v-2.8H14.3v2.8h-2.5s-.1 0-.1.1v3.7h40.8v-3.7s0-.1-.1-.1H50z"/><path id="XMLID_74_" class="st2" d="M16.2 50.6h16.6"/><path id="XMLID_139_" class="st2" d="M15.7 47.4v-2.8h7.7v2.8"/><path id="XMLID_52_" class="st2" d="M28.3 47.4v-2.8H36v2.8"/><path id="XMLID_154_" class="st2" d="M41 47.4v-2.8h7.6v2.8"/><path id="XMLID_208_" class="st2" d="M15.7 23.9v2.9h7.7v-2.9"/><path id="XMLID_286_" class="st2" d="M12 21.7v2.1h39.6v-2.9"/><path id="XMLID_192_" class="st2" d="M28.3 23.9v2.9H36v-2.9"/><path id="XMLID_184_" class="st2" d="M41 23.9v2.9h7.6v-2.9"/><path id="XMLID_229_" class="st2" d="M17.3 26.8v17.8"/><path id="XMLID_167_" class="st2" d="M22 26.8v17.8"/><path id="XMLID_274_" class="st2" d="M29.8 26.8v17.8"/><path id="XMLID_241_" class="st2" d="M34.5 26.8v17.8"/><path id="XMLID_285_" class="st2" d="M42.4 26.8v17.8"/><path id="XMLID_279_" class="st2" d="M47.1 26.8v17.8"/><path id="XMLID_287_" class="st2" d="M7.9 23.9l24-14.4 24.2 14.2"/><path id="XMLID_290_" class="st2" d="M30.2 14.9l-9.4 5.6c-.1.1-.1.2.1.2h18"/></g><g id="XMLID_341_" class="st0"><g id="XMLID_334_" class="st3"><path id="XMLID_299_" class="st5" d="M32.3 53.9H12.5c-.2 0-.4-.2-.4-.4V25.2c0-.2.2-.4.4-.4h19.8c.2 0 .4.2.4.4v28.3c0 .2-.2.4-.4.4z"/><path id="XMLID_305_" class="st5" d="M29.7 33.4H15.1v-5.3"/><path id="XMLID_306_" class="st5" d="M15.8 39.3h1.6"/><path id="XMLID_304_" class="st5" d="M19.6 39.3h1.6"/><path id="XMLID_307_" class="st5" d="M23.4 39.3h1.7"/><path id="XMLID_312_" class="st5" d="M27.2 39.3h1.7"/><path id="XMLID_323_" class="st5" d="M15.8 42.6h1.7"/><path id="XMLID_322_" class="st5" d="M19.7 42.6h1.6"/><path id="XMLID_321_" class="st5" d="M23.5 42.6h1.7"/><path id="XMLID_320_" class="st5" d="M27.3 42.6H29"/><path id="XMLID_329_" class="st5" d="M15.9 45.9h1.7"/><path id="XMLID_327_" class="st5" d="M19.8 45.9h1.6"/><path id="XMLID_326_" class="st5" d="M23.6 45.9h1.7"/><path id="XMLID_324_" class="st5" d="M27.4 45.9h1.7"/><path id="XMLID_333_" class="st5" d="M16 49.1h1.7"/><path id="XMLID_332_" class="st5" d="M19.9 49.1h1.6"/><path id="XMLID_331_" class="st5" d="M23.7 49.1h1.7"/><path id="XMLID_330_" class="st5" d="M27.5 49.1h1.7"/></g><path id="XMLID_336_" class="st2" d="M20.3 20.9c1.3-6.2 6.7-10.8 13.2-10.8 7.5 0 13.5 6 13.5 13.5 0 7-5.3 12.7-12.1 13.4"/><path id="XMLID_343_" class="st7" d="M51.9 23.7c0 9.5-7.2 17.3-16.4 18.3"/><path id="XMLID_337_" class="st2" d="M33.7 11v12.6h13.1"/><path id="XMLID_342_" class="st2" d="M43.1 23.6l3.5-3.5"/><path id="XMLID_335_" class="st2" d="M38.4 23.4l6.7-6.7"/><path id="XMLID_338_" class="st2" d="M33.9 23l9-9"/><path id="XMLID_339_" class="st2" d="M33.8 18.3l6.4-6.4"/><path id="XMLID_340_" class="st2" d="M33.6 13.6l2.9-3"/></g><g id="XMLID_380_" class="st0"><g id="XMLID_346_" class="st3"><path id="XMLID_357_" class="st5" d="M23.8 37.6v-1.9c0-.4.3-.8.6-.9l5.2-1.8v-2.9"/><path id="XMLID_355_" class="st5" d="M40.2 37.6v-1.9c0-.4-.3-.8-.6-.9L34.3 33v-2.9"/><path id="XMLID_354_" class="st5" d="M36 23.5c0-2.2-1.8-4-4-4s-4 1.8-4 4l.4 4.7c0 .6.4 1.2 1 1.5l1.9 1.3h1.3l2-1.3c.6-.3.9-.9 1-1.5l.4-4.7z"/><path id="XMLID_347_" class="st5" d="M29.7 33l1.5 1.7h1.7l1.5-1.7"/></g><path id="XMLID_345_" class="st2" d="M47.3 28.6c0 2-1.9 3.5-2.6 5.3-.7 1.8-.6 4.2-1.9 5.5-1.3 1.3-3.8 1.2-5.5 1.9-1.8.7-3.3 2.5-5.3 2.5s-3.5-1.9-5.3-2.6c-1.8-.7-4.2-.6-5.5-1.9-1.3-1.3-1.2-3.8-1.9-5.5-.7-1.7-2.6-3.3-2.6-5.3s1.9-3.5 2.6-5.3c.7-1.8.6-4.2 1.9-5.5 1.3-1.3 3.8-1.2 5.5-1.9 1.7-.7 3.3-2.6 5.3-2.6s3.5 1.9 5.3 2.6c1.8.7 4.2.6 5.5 1.9 1.3 1.3 1.2 3.8 1.9 5.5.7 1.8 2.6 3.4 2.6 5.4z"/><path id="XMLID_349_" class="st2" d="M38.9 43.2v11.1c0 .1-.1.1-.1.1L32 51.3l-6.8 3.1s-.1 0-.1-.1V43.2"/><path id="XMLID_350_" class="st7" d="M20.3 43.4c-4.4-3.5-7.2-8.8-7.2-14.9 0-10.4 8.5-18.9 18.9-18.9s18.9 8.5 18.9 18.9c0 6-2.8 11.4-7.2 14.9"/></g><g id="XMLID_374_" class="st0"><path id="XMLID_358_" class="st2" d="M42.4 50v-3.5c0-.1-.1-.1-.1-.1h-21c-.1 0-.1.1-.1.1V50h-5.5c-.1 0-.1.1-.1.1v4.1h32.6v-4.1c0-.1-.1-.1-.1-.1h-5.7z"/><path id="XMLID_352_" class="st2" d="M23.5 50h9.8"/><path id="XMLID_361_" class="st2" d="M29.3 12.9v-.6c0-1.4 1.2-2.6 2.6-2.6 1.4 0 2.6 1.2 2.6 2.6v.6"/><path id="XMLID_372_" class="st2" d="M30.2 45.4V22.1"/><path id="XMLID_360_" class="st2" d="M33.6 22.1v23.3"/><circle id="XMLID_353_" class="st2" cx="31.9" cy="18.1" r="4.3"/><path id="XMLID_363_" class="st2" d="M28.7 18.1h-8.8c0 1.2-1 2.3-2.3 2.3-1.2 0-2.3-1-2.3-2.3v-1"/><path id="XMLID_362_" class="st2" d="M35.5 18.1h8.8c0 1.2 1 2.3 2.3 2.3 1.2 0 2.3-1 2.3-2.3v-1"/><path id="XMLID_364_" class="st2" d="M18.6 20.3l5 11.2"/><path id="XMLID_369_" class="st2" d="M16.6 20.3l-5 11.2"/><path id="XMLID_366_" class="st2" d="M10.9 31.6c0 3.6 3 6.6 6.6 6.6s6.6-3 6.6-6.6H10.9z"/><path id="XMLID_371_" class="st2" d="M45.4 20.3l-5 11.2"/><path id="XMLID_368_" class="st2" d="M47.4 20.3l5 11.2"/><path id="XMLID_365_" class="st2" d="M53.1 31.6c0 3.6-3 6.6-6.6 6.6s-6.6-3-6.6-6.6h13.2z"/><path id="XMLID_373_" class="st2" d="M30.9 18.1h2"/></g><g id="XMLID_402_" class="st0"><path id="XMLID_398_" class="st2" d="M17.1 47.1h-6.8c-.1 0-.1 0-.1-.1V17.6c0-.1 0-.1.1-.1h39.8c.1 0 .1 0 .1.1V21"/><path id="XMLID_399_" class="st2" d="M37.1 30.7h13.8"/><path id="XMLID_396_" class="st2" d="M37.1 34.7h13.8"/><path id="XMLID_400_" class="st2" d="M37.1 38.7h13.8"/><path id="XMLID_401_" class="st2" d="M37.1 42.6h7.6"/><path id="XMLID_405_" class="st2" d="M47.8 22.2H34.3s-.1 0-.1.1v24.6s0 .1.1.1h19.4s.1 0 .1-.1V28.2l-6-6z"/><path id="XMLID_397_" class="st2" d="M47.8 22.2v5.9s0 .1.1.1h5.9"/><path id="XMLID_404_" class="st2" d="M20.6 28.8v3.5h-3.4v-3.5"/><path id="XMLID_406_" class="st2" d="M21.1 17.3v-5.2c0-.6.4-1 1-1h15.6c.6 0 1 .4 1 1v5.2"/><path id="XMLID_408_" class="st2" d="M10.2 29.2h21.9"/><g id="XMLID_746_" class="st3"><path id="XMLID_735_" class="st5" d="M48.3 49.3l2.1 1.8-2.1 1.7H19v-3.5z"/><path id="XMLID_741_" class="st5" d="M15.6 51.1h3"/><path id="XMLID_743_" class="st5" d="M49.8 51.1h2.9"/><path id="XMLID_742_" class="st5" d="M36 52.9v-3.6"/><path id="XMLID_736_" class="st5" d="M45.7 52.9v-3.6"/><path id="XMLID_744_" class="st5" d="M21.1 49.3v-2.4h9.6"/></g></g><g id="XMLID_409_" class="st0"><g id="XMLID_288_" class="st3"><g id="XMLID_300_"><path id="XMLID_303_" class="st5" d="M34.9 14.9h-4.3c-1.2 0-2.1 1-2.1 2.1 0 1.2 1 2.1 2.1 2.1h2.1c1.2 0 2.1 1 2.1 2.1 0 1.2-1 2.1-2.1 2.1h-4.5"/><path id="XMLID_302_" class="st5" d="M31.7 12.7v2.2"/><path id="XMLID_301_" class="st5" d="M31.7 23.5v2.1"/></g><circle id="XMLID_294_" class="st5" cx="31.5" cy="19.1" r="9"/></g><path id="XMLID_420_" class="st2" d="M40.4 28.3c1.3-3.4 4.3-4 5.5-4.5.2-.1.4.1.4.3L44.4 31"/><path id="XMLID_416_" class="st2" d="M23.9 27.3c-3.3 2.4-5.4 6-5.4 10.1 0 3.2 1.3 6.2 3.6 8.4v7.9c0 .1 0 .1.1.1h7.3c.1 0 .1 0 .1-.1v-3.8c1.3.3 2.6.5 3.9.5.8 0 1.7-.1 2.5-.2v3.5c0 .1 0 .1.1.1h7.3c.1 0 .1 0 .1-.1v-6.6c1.6-1.2 2.8-2.7 3.7-4.3.3-.6 1-1 1.7-1h2.2v-6.1h-1.3c-.8 0-1.5-.6-1.7-1.3-.5-1.8-1.5-3.5-2.8-4.9"/><path id="XMLID_414_" class="st2" d="M41.7 26.4c-.5-.3-1.1-.6-1.6-.8"/><path id="XMLID_419_" class="st2" d="M26 31.6h12.6"/><path id="XMLID_411_" class="st2" d="M18.5 37.3c-.9 1.2-2.3 2-3.8 1.9-.2 0-.4 0-.6-.1-.3-.2-.4-.5-.6-.8-.2-.5-.5-1.1-.4-1.7 0-.6.3-1.2.9-1.4.5-.2 1.1 0 1.5.4.4.4.5 1 .5 1.5 0 1.7-1.3 3.3-2.9 3.6"/><path id="XMLID_415_" class="st2" d="M39.1 35.1h2.7"/></g><g id="XMLID_445_" class="st0"><path id="XMLID_428_" class="st2" d="M33.6 33.4l4.8-.9c1.6.7 3.3 1 5.2.7 4.2-.6 7.6-4 8.1-8.2.7-6.1-4.5-11.3-10.6-10.5-4.2.5-7.6 3.9-8.2 8.2-.3 2.3.3 4.5 1.4 6.2l-.8 4.4c0 .1.1.1.1.1z"/><g id="XMLID_421_" class="st3"><path id="XMLID_747_" class="st5" d="M36.4 45.7h3.4c1.1 0 2-.9 2-2s-.9-2-2-2h-3.4"/><path id="XMLID_431_" class="st5" d="M35 49.6h2.7c1.1 0 2-.9 2-2s-.9-2-2-2H35"/><path id="XMLID_745_" class="st5" d="M34.8 49.6h.8c1.1 0 2 .9 2 2s-.9 2-2 2H24.4c-.5 0-1-.2-1.3-.6l-2-2c-.3-.3-.7-.5-1.1-.5h-1.2"/><path id="XMLID_430_" class="st5" d="M35 41.7h4c1.1 0 2-.9 2-2s-.9-2-2-2H26.8s1.6-4.1 1.6-6c0-.9.2-2.7-.3-3.5-.2-.3-1.8-.3-2 0 0 0-1.5 4.6-2.5 6l-2.7 3.6h-1.3"/><path id="XMLID_423_" class="st5" d="M8.2 35.7H19c.1 0 .1 0 .1.1v16.5c0 .1 0 .1-.1.1H8.2"/></g><path id="XMLID_441_" class="st2" d="M42.3 10.5c7.4 0 13.4 6 13.4 13.4s-6 13.4-13.4 13.4"/><path id="XMLID_440_" class="st7" d="M28.9 23.9c0-7.4 6-13.4 13.4-13.4"/><path id="XMLID_442_" class="st2" d="M37.3 20.8h9.8"/><path id="XMLID_439_" class="st2" d="M37.4 23.9h9.8"/><path id="XMLID_444_" class="st2" d="M37.5 27.1h4.9"/></g></g><g id="Icon_text" class="st0"><text id="XMLID_15_" transform="translate(-158.061 -73.167)" class="st9 st10" display="inline" fill="#4c5159">IDEA</text><g id="XMLID_65_" class="st3"><text id="XMLID_328_" transform="translate(-76.91 -73.167)" class="st8 st9 st10">ANALYSIS</text></g><g id="XMLID_66_" class="st3"><text id="XMLID_359_" transform="translate(5.167 -73.167)" class="st8 st9 st10">M-COMMERCE</text></g><g id="XMLID_101_" class="st3"><text id="XMLID_370_" transform="translate(109.062 -73.167)" class="st8 st9 st10">MONEY</text></g><g id="XMLID_103_" class="st3"><text id="XMLID_388_" transform="translate(197.145 -73.167)"><tspan x="0" y="0" class="st8 st9 st10">PROJECT</tspan><tspan x="-10.8" y="7" class="st8 st9 st10">DEVELOPMENT</tspan></text></g><g id="XMLID_118_" class="st3"><text id="XMLID_410_" transform="translate(-166.596 21.042)" class="st8 st9 st10">GROWTH</text></g><g id="XMLID_138_" class="st3"><text id="XMLID_424_" transform="translate(-77.142 21.042)"><tspan x="0" y="0" class="st8 st9 st10">BUSINESS</tspan><tspan x="5.3" y="7" class="st8 st9 st10">VISION</tspan></text></g><g id="XMLID_134_" class="st3"><text id="XMLID_426_" transform="translate(23.264 21.042)"><tspan x="0" y="0" class="st8 st9 st10">IDEA</tspan><tspan x="-18.8" y="7" class="st8 st9 st10">DEVELOPMENT</tspan></text></g><g id="XMLID_168_" class="st3"><text id="XMLID_429_" transform="translate(104.31 21.042)" class="st8 st9 st10">MANAGER</text></g><g id="XMLID_176_" class="st3"><text id="XMLID_433_" transform="translate(202.447 21.042)"><tspan x="0" y="0" class="st8 st9 st10">VIDEO</tspan><tspan x="-6.2" y="7" class="st8 st9 st10">MESSAGE</tspan></text></g><g id="XMLID_185_" class="st3"><text id="XMLID_435_" transform="translate(-168.258 117.667)" class="st8 st9 st10">STRATEGY</text></g><g id="XMLID_215_" class="st3"><text id="XMLID_437_" transform="translate(-75.91 117.667)" class="st8 st9 st10">SERVICES</text></g><g id="XMLID_227_" class="st3"><text id="XMLID_447_" transform="translate(14.603 117.667)" class="st8 st9 st10">SUPPORT</text></g><g id="XMLID_237_" class="st3"><text id="XMLID_449_" transform="translate(111.228 117.667)" class="st8 st9 st10">VALUE</text></g><g id="XMLID_260_" class="st3"><text id="XMLID_451_" transform="translate(196.204 117.667)"><tspan x="0" y="0" class="st8 st9 st10">PREMIUM</tspan><tspan x="2.1" y="7" class="st8 st9 st10">QUALITY</tspan></text></g><g id="XMLID_56_" class="st3"><text id="XMLID_466_" transform="translate(-158.333 211.166)"><tspan x="0" y="0" class="st8 st9 st10">KEY </tspan><tspan x="-10.9" y="7" class="st8 st9 st10">SOLUTION</tspan></text></g><g id="XMLID_291_" class="st3"><text id="XMLID_468_" transform="translate(-69.165 211.167)" class="st8 st9 st10">BANK</text></g><g id="XMLID_295_" class="st3"><text id="XMLID_469_" transform="translate(22 211.167)" class="st8 st9 st10">LOAN</text></g><g id="XMLID_344_" class="st3"><text id="XMLID_470_" transform="translate(101.234 211.167)" class="st8 st9 st10">ACCOUTING</text></g><g id="XMLID_348_" class="st3"><text id="XMLID_471_" transform="translate(194.628 211.167)"><tspan x="0" y="0" class="st8 st9 st10">EMPLOYEE</tspan><tspan x="-8.2" y="7" class="st8 st9 st10">OF THE MONTH</tspan></text></g><g id="XMLID_351_" class="st3"><text id="XMLID_472_" transform="translate(-161.435 307.167)" class="st8 st9 st10">SCALE</text></g><g id="XMLID_395_" class="st3"><text id="XMLID_473_" transform="translate(-80.934 307.166)" class="st8 st9 st10">TEAMWORK</text></g><g id="XMLID_403_" class="st3"><text id="XMLID_474_" transform="translate(11.007 307.167)" class="st8 st9 st10">PORTFOLIO</text></g><g id="XMLID_418_" class="st3"><text id="XMLID_475_" transform="translate(112.252 307.167)"><tspan x="0" y="0" class="st8 st9 st10">PIGGY</tspan><tspan x=".6" y="7" class="st8 st9 st10">BANK</tspan></text></g><g id="XMLID_446_" class="st3"><text id="XMLID_476_" transform="translate(187.818 307.167)"><tspan x="0" y="0" class="st8 st9 st10">SOCIAL MEDIA</tspan><tspan x="6.3" y="7" class="st8 st9 st10">CAMPAIGN</tspan></text></g></g><g id="headline" class="st0"><circle id="XMLID_61_" cx="-133.5" cy="-208.4" r="18.3" display="inline" fill="#74e2f0"/><circle id="XMLID_60_" cx="-110.1" cy="-208.4" r="18.3" display="inline" fill="#fbda73"/><circle id="XMLID_63_" cx="-122.7" cy="-190.1" r="18.3" display="inline" fill="#f08e70"/><g id="XMLID_4_" class="st3"><text id="XMLID_477_" transform="translate(-183.755 -194.085)"><tspan x="0" y="0" fill="#231f20" font-family="Oswald-Bold" font-size="22.512">FLAT </tspan><tspan x="45.5" y="0" fill="#231f20" font-family="Oswald-Light" font-size="22.512">LINE </tspan><tspan x="83.9" y="0" fill="#231f20" font-family="Oswald-Bold" font-size="22.512">ICONS</tspan></text></g><g id="XMLID_1_" class="st3"><text id="XMLID_478_" transform="translate(127.339 -193.906)" fill="#231f20" font-family="Oswald-Light" font-size="16.174">BUSINESS &amp; FINANCE</text></g></g></svg>