<svg version="1.1" id="Layer_1" xmlns="http://www.w3.org/2000/svg" x="0" y="0" viewBox="0 0 135 135" xml:space="preserve"><style>.st0{fill:#383f4c}</style><path class="st0" d="M96.3 16c-4-6.4-10.8-10.9-19.9-12.8-7.6-1.5-16.2-1.2-23.5 1-18.8 5.6-30.8 22-29.4 39.7.3 3.1.9 6.1 1.9 9 2.6 7.6 8.4 15.6 16.4 15.6 1.1 0 2.2-.1 3.4-.5C54 65.6 57 59.5 60 53.6c1.6-3.3 3.2-6.5 5.8-9 3.3-3.3 8.4-4.5 13.8-5.7 4.2-1 8.5-2 12.1-4 3.2-1.9 5.5-4.8 6.4-8.3.7-3.6.1-7.3-1.8-10.6zm-2.7 9.4c-.6 2.3-2.1 4.2-4.2 5.5-3 1.8-6.8 2.6-10.8 3.6-2.8.6-5.6 1.3-8.2 2.3-.1-.6-.4-1-.6-1.3-1.9-2.3-5.6-.7-8.5 1.7-1.3 1-2.4 2.2-3.1 3.4-1.6 2.4-.9 3.9-.3 4.6.2.3.6.7 1.3.9-1.2 1.8-2.1 3.8-3 5.6-2.7 5.5-5.1 10.2-11.9 12.1-8.8 2.4-13.5-9.8-14.4-12.3-.9-2.5-1.4-5.2-1.7-7.9-1.3-15.6 9.5-30 26.1-35 4.4-1.3 8.6-1.9 12.5-1.9 12.7 0 22.2 6 25.7 11.8 1.3 2.1 1.7 4.6 1.1 6.9zM110.2 82.5c-.9-3-2.1-5.8-3.6-8.4-4.7-7.9-13.3-15.5-22.4-11-8.1 4.1-9.9 10.6-11.6 17-1 3.6-1.9 7-3.9 10-2.6 3.9-7.3 6-12.4 8.3-3.9 1.8-7.9 3.6-11 6.4-2.8 2.5-4.4 5.8-4.6 9.4-.2 3.6 1.1 7.1 3.7 9.9 5.1 5.5 12.8 8.5 22 8.6h.4c7.7 0 15.8-2 22.4-5.5 14-7.5 22.3-21 22.3-35 .1-3.2-.4-6.5-1.3-9.7zm-23.1 40.7c-17.3 9.2-33.5 4.3-39.4-2.1-1.7-1.9-2.6-4.2-2.5-6.7.1-2.4 1.2-4.6 3.1-6.2 2.6-2.3 6.2-3.9 9.9-5.6 2.6-1.2 5.2-2.4 7.6-3.8.2.4.5.8.8 1.1.4.3 1 .7 1.9.7.7 0 1.6-.2 2.7-.9s2.3-1.8 3.4-3.1c2.4-2.8 4.1-6.6 1.8-8.5-.4-.4-.9-.6-1.4-.7.8-2 1.3-4.1 1.8-6.1 1.6-5.9 3-11 9.3-14.2 1.2-.6 2.5-.9 3.7-.9 6.5 0 11.7 8.2 12.8 10.1 1.4 2.3 2.4 4.8 3.2 7.4 4.4 15.1-3.3 31.3-18.7 39.5z"/><path class="st0" d="M95.3 106.4c-.4 0-.8-.1-1.2-.3-1.1-.7-1.4-2-.7-3.1.3-.5 7-11.5-.3-22.3-.7-1-.4-2.4.6-3.1 1-.7 2.4-.4 3.1.6 8.9 13.3.7 26.7.4 27.2-.4.6-1.1 1-1.9 1z"/><circle class="st0" cx="68.9" cy="17.1" r="2.3"/><circle class="st0" cx="74.3" cy="29" r="2.3"/><circle class="st0" cx="82.9" cy="20.9" r="2.3"/></svg>