<svg xmlns="http://www.w3.org/2000/svg" viewBox="0 0 32.35 36.47"><defs><style>.cls-1{fill:#323e48}</style></defs><g id="Layer_2" data-name="Layer 2"><g id="Layer_1-2" data-name="Layer 1"><path class="cls-1" d="M15.64 8.09A4.11 4.11 0 0114.43 11a.63.63 0 01-.44.18.6.6 0 01-.43-.18.6.6 0 01-.19-.44.61.61 0 01.19-.44 2.87 2.87 0 00.84-2A3 3 0 0013.55 6a4.08 4.08 0 01-1.22-2.92 4.14 4.14 0 011.22-2.9A.6.6 0 0114 0a.67.67 0 01.44.18.67.67 0 01.18.44.64.64 0 01-.18.45 2.83 2.83 0 00-.85 2 2.85 2.85 0 00.85 2.05 4.13 4.13 0 011.2 2.97zM9.59 8.8a3 3 0 01-.92 2.2.58.58 0 01-.42.18.66.66 0 01-.45-.18.63.63 0 01-.18-.44.65.65 0 01.18-.44 1.87 1.87 0 000-2.67A3.13 3.13 0 017.79 3a.66.66 0 01.45-.18.62.62 0 01.44.18.62.62 0 010 .88 1.91 1.91 0 000 2.67 3.06 3.06 0 01.91 2.25zM21.09 8.8a3.12 3.12 0 01-.92 2.2.66.66 0 01-.87 0 .61.61 0 010-.88 1.92 1.92 0 000-2.67 3.11 3.11 0 010-4.45.58.58 0 01.43-.18.61.61 0 01.62.62.62.62 0 01-.18.44 1.89 1.89 0 00-.54 1.33 1.93 1.93 0 00.54 1.34 3.1 3.1 0 01.92 2.25z"/><path d="M31.52 20a3.92 3.92 0 00-3.09-1.51h-.65v-.36c.07-.63.12-1.22.15-1.76a2.35 2.35 0 00-.61-1.71 2.28 2.28 0 00-1.67-.71H2.29A2.28 2.28 0 000 16.33a44.59 44.59 0 001.57 9.15 12.9 12.9 0 003.66 5.93l.61.57h-1a2.25 2.25 0 100 4.49h18.28a2.28 2.28 0 001.94-1.13 2.31 2.31 0 000-2.25A2.28 2.28 0 0023.12 32h-1l.61-.57a12.64 12.64 0 003.31-4.88l.08-.21h2.3a3.92 3.92 0 002.41-.84 3.8 3.8 0 001.38-2.14 3.87 3.87 0 00-.69-3.36zm-6.32 5.15a11.42 11.42 0 01-5.47 6.92.64.64 0 00-.27.7.65.65 0 00.61.47h3a1 1 0 010 2H4.87a1 1 0 110-2h3a.63.63 0 00.61-.47.65.65 0 00-.29-.7 11.44 11.44 0 01-5.43-6.92 42.91 42.91 0 01-1.53-8.88 1 1 0 01.28-.78 1.07 1.07 0 01.77-.33h23.41a1.05 1.05 0 01.77.33 1.07 1.07 0 01.28.78 43.83 43.83 0 01-1.54 8.88zm5.8-2.1a2.71 2.71 0 01-1 1.45 2.56 2.56 0 01-1.63.58h-1.86l.1-.42a42.69 42.69 0 001-4.68l.06-.27h.78a2.62 2.62 0 012.1 1 2.66 2.66 0 01.45 2.34z" fill="#f4cb19"/></g></g></svg>