<svg xmlns="http://www.w3.org/2000/svg" viewBox="0 0 29.41 36.35"><defs><style>.cls-1{fill:#f4cb19}.cls-2{fill:#323e48}</style></defs><g id="Layer_2" data-name="Layer 2"><g id="Layer_1-2" data-name="Layer 1"><path class="cls-1" d="M13.4 13A19.55 19.55 0 0111 3.66V1.22h1.43a.61.61 0 00.62-.61.62.62 0 00-.6-.61h-9a.61.61 0 00-.61.61.61.61 0 00.61.61H4.9v2.44A19.55 19.55 0 012.52 13 20.74 20.74 0 000 22.88V34.1a2.24 2.24 0 002.24 2.25h11.44a2.25 2.25 0 002.25-2.25V22.88A20.58 20.58 0 0013.4 13zM6.11 3.86a1.41 1.41 0 000-.2V1.22H9.8v2.54a.45.45 0 010 .12v.2H6.11zm8.59 30.25a1 1 0 01-1 1H2.24a1 1 0 01-1-1V22.88v-1.1l.16-1.59a19.41 19.41 0 012.2-6.62A20.88 20.88 0 006 5.5v-.19h3.89v.2a20.83 20.83 0 002.44 8.06 19.63 19.63 0 012.18 6.62l.16 1.6v1.09zM27.16 7.35h-5.72A2.24 2.24 0 0019.2 9.6v11a5.12 5.12 0 004.31 5h.18v9.43h-2.25a.61.61 0 100 1.22h5.72a.61.61 0 100-1.22h-2.25V25.7h.17a5.14 5.14 0 004.33-5V9.6a2.25 2.25 0 00-2.25-2.25zm1 13.27a3.88 3.88 0 11-7.76 0V9.6a1 1 0 011-1h5.72a1 1 0 011 1z"/><path class="cls-2" d="M12.3 26.11a.61.61 0 01-.61.61H4.24a.6.6 0 01-.43-.18.64.64 0 01-.18-.43.61.61 0 01.61-.61h7.45a.61.61 0 01.61.61zM12.3 30.15a.61.61 0 01-.61.61H4.24a.6.6 0 01-.43-.18.62.62 0 01-.18-.43.61.61 0 01.61-.61h7.45a.61.61 0 01.61.61z"/></g></g></svg>