<svg xmlns="http://www.w3.org/2000/svg" viewBox="0 0 36.48 36.47"><defs><style>.cls-2{fill:#323e48}</style></defs><g id="Layer_2" data-name="Layer 2"><g id="Layer_1-2" data-name="Layer 1"><path d="M33.89 2.6A8.78 8.78 0 0030.07.38a11.54 11.54 0 00-4.86-.23 17.72 17.72 0 00-9.61 5.12c-4 4-5.93 9.23-5.06 13.66a1.72 1.72 0 01-.76 1.73 3 3 0 00-1.35 2.2 4.11 4.11 0 000 .77l.05.12-4.29 4.32L4 28a2.85 2.85 0 00-1-.18 3 3 0 00-2.12.88 3 3 0 000 4.23 2.88 2.88 0 001.61.83h.2v.19a3 3 0 002.95 2.49 3 3 0 002.09-.87 3 3 0 00.7-3.15l-.08-.16L12.72 28l.15.05h.76a3 3 0 002.19-1.33 1.73 1.73 0 011.73-.77c4.43.86 9.66-1.08 13.65-5.07a17.63 17.63 0 005.12-9.6 12.38 12.38 0 00.16-2 9.23 9.23 0 00-2.59-6.68zM7.21 31.74a.62.62 0 00-.08.78 1.74 1.74 0 01-1.45 2.7 1.79 1.79 0 01-1.25-.51A1.68 1.68 0 014 33.24a.68.68 0 00-.2-.53.59.59 0 00-.52-.19A1.7 1.7 0 011.76 32a1.74 1.74 0 01-.51-1.24 1.67 1.67 0 01.51-1.23A1.74 1.74 0 014 29.34a.62.62 0 00.79-.07L9 25l2.47 2.47zM35.1 11.09l-.17 1.12v-.09a16.85 16.85 0 01-4.6 7.88c-3.64 3.65-8.56 5.5-12.54 4.73a3.29 3.29 0 00-.54 0A2.94 2.94 0 0014.78 26a1.75 1.75 0 01-1.28.77h-.17a1.77 1.77 0 01-1.24-.51l-1.91-1.92a1.74 1.74 0 01-.5-1.4 1.71 1.71 0 01.78-1.28 2.92 2.92 0 001.3-3c-.78-4 1.08-8.9 4.73-12.55a16.36 16.36 0 018.91-4.72 10.91 10.91 0 011.76-.15A8 8 0 0133 3.48a8.6 8.6 0 012.1 7.61z" fill="#f4cb19"/><path class="cls-2" d="M30.59 12.22a.82.82 0 01-.83-.82.79.79 0 01.25-.58.77.77 0 01.58-.24.83.83 0 01.58.24.85.85 0 01.24.58.82.82 0 01-.82.82zM31.16 8.64a.81.81 0 01-1.15 0 .78.78 0 01-.25-.58.82.82 0 111.4.58zM27.82 12a.84.84 0 01-.58.24.79.79 0 01-.58-.25.82.82 0 011.16-1.16.84.84 0 01.24.58.92.92 0 01-.24.59z"/></g></g></svg>