<svg xmlns="http://www.w3.org/2000/svg" viewBox="0 0 36.63 36.86"><defs><style>.cls-2{fill:#323e48}</style></defs><g id="Layer_2" data-name="Layer 2"><g id="Layer_1-2" data-name="Layer 1"><path fill="#231f20" d="M.04 31.45z"/><path class="cls-2" d="M1.38 32a.79.79 0 00.17-.85.65.65 0 00-.17-.26.78.78 0 00-.26-.17.72.72 0 00-.29-.06.77.77 0 00-.56.23.78.78 0 000 1.11.77.77 0 00.56.23.72.72 0 00.29-.06.78.78 0 00.26-.17z"/><path class="cls-2" d="M0 31.45a.85.85 0 01.24-.59.83.83 0 01.59-.24.92.92 0 01.31.07.78.78 0 01.26.17.64.64 0 01.18.27.81.81 0 01-.18.9.78.78 0 01-.26.17.7.7 0 01-.31.07.82.82 0 01-.83-.82zm1.57 0a.92.92 0 00-.05-.28.61.61 0 00-.17-.24.67.67 0 00-.24-.16.71.71 0 00-.28-.06.75.75 0 00-.54.21.76.76 0 00.54 1.28.94.94 0 00.28-.06.84.84 0 00.24-.14.77.77 0 00.22-.56zM.04 36.04zM1.38 36.6a.73.73 0 00.17-.26.79.79 0 00-.17-.85.65.65 0 00-.26-.17.58.58 0 00-.29-.06.77.77 0 00-.56.23.72.72 0 00-.18.25A.79.79 0 000 36a.71.71 0 00.23.56.77.77 0 00.56.23.72.72 0 00.29-.06.78.78 0 00.3-.13z"/><path class="cls-2" d="M0 36a.78.78 0 01.06-.31.71.71 0 01.18-.27.83.83 0 01.59-.24.62.62 0 01.31.07.78.78 0 01.26.17.81.81 0 01.18.9.8.8 0 01-.18.27.78.78 0 01-.26.17.85.85 0 01-.31.06.82.82 0 01-.59-.23 1.14 1.14 0 01-.18-.27A.83.83 0 010 36zm1.57 0a.77.77 0 00-.22-.54.84.84 0 00-.24-.16.61.61 0 00-.28-.06.76.76 0 00-.54.22.8.8 0 00-.16.25.64.64 0 00-.06.29.68.68 0 00.06.29.8.8 0 00.16.25.79.79 0 00.54.21.71.71 0 00.28-.06.67.67 0 00.24-.16.81.81 0 00.17-.24.92.92 0 00.05-.24zM4.69 35.74a.8.8 0 00-.06.3.77.77 0 00.06.3.9.9 0 00.17.26.79.79 0 00.56.23.8.8 0 00.3-.06.85.85 0 00.28-.17.83.83 0 00.18-.86.64.64 0 00-.18-.25.7.7 0 00-.25-.17.8.8 0 00-.3-.06.79.79 0 00-.56.23.85.85 0 00-.2.25z"/><path class="cls-2" d="M4.59 36a.78.78 0 01.06-.31 1.06 1.06 0 01.18-.27.87.87 0 01.59-.24.7.7 0 01.31.07.73.73 0 01.27.17.91.91 0 01.18.27.85.85 0 01-.18.9.73.73 0 01-.27.17.86.86 0 01-.9-.17 1.57 1.57 0 01-.18-.27.83.83 0 01-.06-.32zm1.58 0a.67.67 0 00-.06-.28.76.76 0 00-.11-.21 1 1 0 00-.24-.16.79.79 0 00-.29-.06.75.75 0 00-.53.22.85.85 0 00-.17.25.82.82 0 000 .28.88.88 0 000 .29.85.85 0 00.17.25.76.76 0 00.82.15.78.78 0 00.24-.16.77.77 0 00.17-.57zM4.63 36.04z"/><path d="M35.71 9.09L27.55.93a3.16 3.16 0 00-4.64.17L9 17.15h-.07A2.73 2.73 0 007 18a2.76 2.76 0 00-.8 1.94 2.8 2.8 0 00.18 1v.08L6.34 21a6.57 6.57 0 009.26 9.3l.07-.06h.09a2.57 2.57 0 001 .19 2.75 2.75 0 002.74-2.75v-.07l.05-.05 16-13.86a3.18 3.18 0 00.17-4.64zM14.51 29.6a5.3 5.3 0 01-3.17 1 5.36 5.36 0 01-3.79-1.56A5.34 5.34 0 017 22.13l.1-.14.12.12 7.39 7.39zm3.31-.82a1.5 1.5 0 01-1.07.44 1.46 1.46 0 01-1.07-.44L7.85 21a1.51 1.51 0 011.07-2.58 1.5 1.5 0 011.07.44l7.83 7.83a1.51 1.51 0 010 2.13zm16.91-16L19.19 26.27l-8.82-8.82L23.84 1.9a1.89 1.89 0 011.4-.66h.07a1.93 1.93 0 011.37.56l8.16 8.2a1.91 1.91 0 01.56 1.44 1.88 1.88 0 01-.67 1.35z" fill="#f4cb19"/></g></g></svg>