<svg xmlns="http://www.w3.org/2000/svg" viewBox="0 0 36.43 36.43"><g data-name="Layer 2"><g data-name="Layer 1"><path d="M36.18 7.77L28.66.25a.76.76 0 00-.53-.25h-.05a.84.84 0 00-.8.61l-1.49 5.46h-.2L25.5 6h-.06l-3.07-.34h-.34a3.19 3.19 0 00-2.25.93L6.6 19.78a3.14 3.14 0 00-.92 2.6l.34 3a1.73 1.73 0 000 .11.35.35 0 010 .14v.17L.6 27.29a.81.81 0 00-.57.59.78.78 0 00.21.78l7.53 7.52a.74.74 0 00.57.25.81.81 0 00.79-.61l1.5-5.48h.32l3 .33a3.08 3.08 0 002.59-.92l13.28-13.11a3.08 3.08 0 00.91-2.59l-.36-3.17v-.28l5.46-1.46a.81.81 0 00.37-1.37zM9.46 30l-1.32 4.84-6.58-6.59.38-.05 4.6-1.26 2.93 2.93zM29 15.79L15.79 29a2 2 0 01-1.4.57h-.2l-3-.34a2 2 0 01-1.19-.59l-2.2-2.17a2 2 0 01-.56-1.19l-.34-3a2 2 0 01.56-1.61L20.64 7.46a2 2 0 011.61-.56l3 .34a2.11 2.11 0 011.17.56l2.21 2.2a2.11 2.11 0 01.56 1.17l.33 3a2 2 0 01-.52 1.62zm5.5-7.55L29.88 9.5l-2.95-2.95v-.09l1.34-4.86 6.56 6.55z" fill="#f4cb19" fill-rule="evenodd"/><path d="M23.25 14L14 23.25a.63.63 0 01-.87 0 .62.62 0 010-.86l9.21-9.21a.62.62 0 01.87 0 .6.6 0 01.04.82z" fill="#323e48"/></g></g></svg>