
<svg version="1.1" id="Capa_1" xmlns="http://www.w3.org/2000/svg" xmlns:xlink="http://www.w3.org/1999/xlink" x="0px" y="0px"
	 width="39.396px" height="39.396px" viewBox="0 0 39.396 39.396" style="enable-background:new 0 0 39.396 39.396;"
	 xml:space="preserve">
<g>
	<g>
		<path d="M16.864,13.27c-0.458-0.292-1.25-0.667-1.458-0.459c-0.208,0.209,0,0.75,1.083,1.334c1.083,0.583,1.167,1.583,3.417,1.375
			c2.25-0.209,4.625-0.792,4.042-1.417s-3.917,0.792-4.917,0.417S16.864,13.27,16.864,13.27z"/>
		<path d="M36.032,15.936c-0.917-3.666-3.25-7.166-6.042-7.791s-6.792,0.208-6.792,0.208s1.833-2.708,1.875-3.667
			c0.042-0.958,0.75-0.958-0.625-1.291c-1.375-0.334-2.125-0.834-2.542-0.292s-2,2.708-2.292,3.667
			c-0.292,0.958-0.167,1.958-0.583,1.125c-0.417-0.834-1.5-2.584-2.292-3.417s-2.75-0.292-1.75,0.375s2.833,2.208,3.125,3.125
			s0.458,1.583-0.167,1.875s-2.75-0.042-3.5-0.625s-1.79-1.792-2.04-3.167s-0.334-2.666-0.625-3.041s-0.292-0.792,0-0.917
			s3.042-0.417,4.375,0s2.125,0.833,2.667,2.125c0.228,0.543-0.042,1.333,0.542,1.292c0.583-0.042,1.208-0.5,0.375-2
			c-0.833-1.5-2.375-2.875-5.083-2.875s-2.335,0.333-3.335-0.125c-1-0.459-1.958-0.834-2.375-0.125
			c-0.416,0.708,0.334,0.666,1.084,1.541s1.416,3.875,1.416,4.459c0,0.583,0.125,0.875-0.125,0.916
			c-0.25,0.042-3.333,0.792-5.042,2.75c-1.708,1.959-2.833,6.209-3.124,9.542s0.125,8.667,2.958,13.5s5.333,6.25,7.875,6.292
			c2.542,0.041,5.167-0.459,6.167-1.125c1-0.667,1.875-1.5,2.292-1.167s3.792,2.083,5.417,1.333s5.125-4.875,6.375-8.791
			C35.49,25.728,36.948,19.603,36.032,15.936z M34.24,24.27c-0.708,5.208-4.208,10.458-6.458,11.958s-4.917-0.833-6.292-1.5
			s-3.5,0.125-4.583,0.542c-1.083,0.416-0.875,1.666-0.667,2.208s-0.75,0.292-1.833,0.167s-4.125-1-7-5.459
			c-2.875-4.458-2.875-10.791-1.667-16.25c1.208-5.458,4.917-6.916,5.875-6.958s3.476,1.45,4.167,2.083
			c1,0.917,2.875-0.166,2.958,0.375c0.083,0.542-0.25,1.209,1.458,1.625c1.708,0.417,2.333-1.958,2.458-2.541
			c0.125-0.584,1.375-0.292,2.958-0.709c1.583-0.416,3.708-0.75,6.5,1.709C34.907,13.978,34.948,19.061,34.24,24.27z M28.24,12.645
			c-0.431,0.201,0.833,0.791,1.833,1.583s1.583,2.375,1.583,3s-0.333,2.167,0.042,2.292s1.083-1.292,0.833-2.792
			S30.282,11.686,28.24,12.645z"/>
	</g>
</g>
<g>
</g>
<g>
</g>
<g>
</g>
<g>
</g>
<g>
</g>
<g>
</g>
<g>
</g>
<g>
</g>
<g>
</g>
<g>
</g>
<g>
</g>
<g>
</g>
<g>
</g>
<g>
</g>
<g>
</g>
</svg>
