<svg version="1.1" id="Capa_1" xmlns="http://www.w3.org/2000/svg" xmlns:xlink="http://www.w3.org/1999/xlink" x="0px" y="0px"
	 width="32.005px" height="32.005px" viewBox="0 0 32.005 32.005" style="enable-background:new 0 0 32.005 32.005;"
	 xml:space="preserve">
<g>
	<path d="M31.645,14.16c-0.822-3.118-3.705-4-6.293-4.529c-2.589-0.53-4.824,0.882-5.061,0.706
		c-0.177-0.176-2.234-1.647-5.118-1.647c-2.941,0-5.353,2.529-5.353,2.529s-0.118-0.118-1.471-0.353
		c-1.294-0.235-3.941,0.647-6,2.176c-2.118,1.529-3,4.235-1.824,6.529c1.179,2.295,3.532,3.354,5.473,3.706
		c1.059,0.177,9.588-0.294,12.941-0.353c3.353-0.06,8.823,0.293,10.883-0.941C31.881,20.748,32.47,17.276,31.645,14.16z
		 M30.527,19.219c-0.471,0.941-1.117,2.059-1.941,2.353c-0.822,0.296-2.116,0.354-3.764,0.354c-1.648,0-3.707,0.059-5.118-0.059
		c-1.353-0.119-1.823,0.116-3,0.233c-1.177,0.118-6.941,0.295-9.412,0.235c-2.47-0.06-4.176-0.705-5.118-2.117
		c-1-1.471-1-2.235-1-2.941c0.059-1.177,0.941-2.706,1.53-3.177c0.588-0.47,2.059-1.647,3.647-1.941
		c1.588-0.294,3.059-0.118,3.706,0.294c0.647,0.412,1.765,1.235,2.118,1.706c0.353,0.471,0.647,0.471,0.941,0.118
		s0.059-0.529-0.294-0.941c-0.353-0.412-1.294-1.235-2.059-1.588c0,0,0.706-1.118,2.765-1.647c2.059-0.529,3.883-0.353,5.236,0.588
		c1.353,1,2.117,1.765,2.294,2.235c0.234,0.471,0.471,0.765,0.883,0.588c0.471-0.177,0.588-0.588,0.233-1
		c-0.352-0.471-1-1.118-0.764-1.235c0.234-0.118,2.412-0.824,4.176-0.471c1.767,0.353,3.118,2.059,4.824,3.177
		C31.764,14.865,31.292,17.57,30.527,19.219z M5.057,14.335c-0.294,0.353,0,0.765,0.294,0.706c0.353-0.059,0.706-0.294,0.588-0.529
		C5.763,14.276,5.351,13.982,5.057,14.335z M7.174,15.512c-0.294,0.235-0.235,0.706,0,0.647c0.235-0.059,0.53-0.353,0.471-0.471
		S7.41,15.276,7.174,15.512z M7.586,13.217c-0.353,0.412,0.235,0.882,0.529,0.824s0.353-0.235,0.294-0.471
		C8.351,13.335,7.822,12.982,7.586,13.217z M9.704,15.335c-0.353-0.118-0.471-0.235-0.588,0c-0.235,0.412,0,0.647,0.353,0.471
		C9.822,15.629,9.998,15.454,9.704,15.335z M13.292,11.16c-0.176,0.294,0,0.647,0.412,0.647s0.412-0.235,0.412-0.412
		C14.116,11.217,13.527,10.807,13.292,11.16z M16.292,10.807c-0.588,0.471-0.059,0.706,0.412,0.471
		C17.174,11.042,16.527,10.629,16.292,10.807z M15.704,12.454c-0.235-0.059-0.824,0.118-0.53,0.471
		c0.294,0.353,0.471,0.471,0.882,0.235C16.41,12.865,16.057,12.512,15.704,12.454z M18.527,12.923c-0.294,0-0.588,0.176-0.412,0.353
		c0.177,0.176,0.354,0.294,0.647,0.118C18.998,13.16,18.704,12.923,18.527,12.923z M24.822,11.807c-0.295,0-0.589,0.471-0.236,0.588
		c0.354,0.118,0.767,0.118,0.706-0.177C25.233,11.982,25.115,11.807,24.822,11.807z M27.233,13.217
		c0.294,0.118,0.646,0.118,0.529-0.118c-0.06-0.235-0.235-0.529-0.529-0.412C26.998,12.807,26.939,13.101,27.233,13.217z
		 M24.704,13.454c-0.53-0.059-0.646,0.177-0.471,0.471c0.177,0.235,0.411,0.353,0.706,0.176
		C25.174,13.923,24.998,13.512,24.704,13.454z M27.47,14.042c-0.296,0-0.646,0.294-0.354,0.471c0.295,0.176,0.471,0.118,0.647-0.059
		C27.998,14.16,27.645,14.042,27.47,14.042z M29.41,14.217c-0.354,0.059-0.529,0.235-0.295,0.353
		c0.236,0.118,0.236,0.235,0.471,0.059C29.881,14.512,29.764,14.16,29.41,14.217z"/>
</g>
<g>
</g>
<g>
</g>
<g>
</g>
<g>
</g>
<g>
</g>
<g>
</g>
<g>
</g>
<g>
</g>
<g>
</g>
<g>
</g>
<g>
</g>
<g>
</g>
<g>
</g>
<g>
</g>
<g>
</g>
</svg>
