<svg width="19" height="19" viewBox="0 0 19 19" fill="none" xmlns="http://www.w3.org/2000/svg">
<path d="M7.71112 18.4811C7.08076 18.4811 6.48047 18.1754 6.0817 17.6665C5.78341 17.8254 5.46549 17.9057 5.13306 17.9057C4.20476 17.9057 3.39182 17.249 3.11459 16.3103C2.00283 16.2434 1.11717 15.2435 1.11717 14.0234C1.11717 13.9367 1.12177 13.8493 1.13079 13.7619C0.736796 13.332 0.521484 12.7673 0.521484 12.1541C0.521484 11.457 0.817115 10.8014 1.30807 10.3775C1.13345 10.035 1.04517 9.66307 1.04517 9.26801C1.04517 8.49735 1.41864 7.77517 2.01592 7.35499C1.92481 7.09527 1.87722 6.8237 1.87722 6.55655C1.87722 5.4991 2.54473 4.59434 3.47108 4.33675C3.46984 4.30632 3.46913 4.27589 3.46913 4.24563C3.46913 2.98261 4.4229 1.95506 5.59535 1.95506C5.63816 1.95506 5.67991 1.95648 5.72043 1.95896C6.02261 1.07294 6.80636 0.476196 7.71112 0.476196C8.87773 0.476196 9.8269 1.49914 9.8269 2.75633C9.8269 2.92652 9.6889 3.06452 9.5187 3.06452C9.34851 3.06452 9.21051 2.92652 9.21051 2.75633C9.21051 1.83883 8.53786 1.09258 7.71112 1.09258C7.00751 1.09258 6.40493 1.61715 6.24588 2.36835C6.22819 2.45132 6.17723 2.5235 6.1047 2.56756C6.03234 2.61161 5.94512 2.62399 5.86285 2.6017C5.79084 2.58189 5.69831 2.57145 5.59535 2.57145C4.76276 2.57145 4.08552 3.32247 4.08552 4.24563C4.08552 4.34931 4.09525 4.45298 4.10462 4.55683C4.11966 4.72225 4.00095 4.8698 3.83606 4.89032C3.07071 4.98586 2.4936 5.70221 2.4936 6.55655C2.4936 6.82228 2.55764 7.09562 2.67866 7.3472C2.75102 7.49758 2.69069 7.67822 2.54243 7.75464C2.00725 8.03117 1.66155 8.62509 1.66155 9.26801C1.66155 9.63883 1.76505 9.98223 1.96921 10.2887C2.01521 10.3577 2.03149 10.4422 2.01433 10.5236C1.99717 10.6046 1.94798 10.6754 1.87792 10.7196C1.42129 11.0094 1.13787 11.5589 1.13787 12.1541C1.13787 12.653 1.32611 13.1059 1.66809 13.43C1.7424 13.5004 1.7769 13.6034 1.76009 13.7043C1.7424 13.8101 1.73355 13.9176 1.73355 14.0234C1.73373 14.9561 2.42177 15.7056 3.25842 15.6978C3.26656 15.6978 3.27487 15.6974 3.28301 15.696C3.45038 15.6677 3.62942 15.7739 3.6595 15.9409C3.79997 16.7221 4.41972 17.2893 5.13305 17.2893C5.43523 17.2893 5.72361 17.1917 5.9897 16.9988C6.06064 16.9475 6.14963 16.9291 6.23526 16.9472C6.32071 16.9652 6.39431 17.019 6.43783 17.0951C6.71011 17.5699 7.19805 17.8647 7.71112 17.8647C8.53786 17.8647 9.21051 17.1138 9.21051 16.1907C9.21051 16.0205 9.3485 15.8825 9.5187 15.8825C9.6889 15.8825 9.82689 16.0205 9.82689 16.1907C9.8269 17.4535 8.87773 18.4811 7.71112 18.4811Z" fill="#B063A3"/>
<path d="M9.5187 16.4989C9.34851 16.4989 9.21051 16.3609 9.21051 16.1907L9.21051 2.75633C9.21051 2.58613 9.34851 2.44814 9.5187 2.44814C9.6889 2.44814 9.8269 2.58613 9.8269 2.75633L9.82689 16.1907C9.82689 16.3609 9.6889 16.4989 9.5187 16.4989Z" fill="#B063A3"/>
<path d="M4.85618 8.32309C4.75533 8.32309 4.65661 8.27373 4.59752 8.18279C4.15717 7.50572 3.24621 7.30669 2.56667 7.74085C2.42319 7.83196 2.23282 7.79021 2.14118 7.64655C2.04971 7.50307 2.09199 7.3127 2.23547 7.22106C3.19862 6.60662 4.49013 6.88739 5.11412 7.847C5.20683 7.98959 5.16649 8.18049 5.02372 8.2732C4.97188 8.30699 4.91368 8.32309 4.85618 8.32309Z" fill="#B063A3"/>
<path d="M3.3559 16.3036C3.20446 16.3036 3.0723 16.1917 3.05107 16.0375C3.02772 15.869 3.14555 15.7133 3.31415 15.69C3.6986 15.6369 4.04076 15.4349 4.27712 15.1207C4.51349 14.8065 4.61415 14.4208 4.5609 14.0347C4.53755 13.8663 4.65538 13.7106 4.82398 13.6873C4.99152 13.6653 5.14809 13.7821 5.17127 13.9505C5.24717 14.499 5.1044 15.046 4.76949 15.4911C4.43369 15.9373 3.94681 16.2246 3.39836 16.3007C3.38421 16.3025 3.36988 16.3036 3.3559 16.3036Z" fill="#B063A3"/>
<path d="M9.5187 10.675C9.39079 10.675 9.27119 10.5947 9.22732 10.467C9.03111 9.89555 8.50089 9.50031 7.90786 9.4835C7.73766 9.47872 7.60373 9.33683 7.60851 9.16681C7.61346 8.9968 7.76597 8.87472 7.92519 8.86747C8.7737 8.89153 9.53109 9.45395 9.81009 10.2667C9.86546 10.4277 9.77966 10.6029 9.61866 10.6584C9.58558 10.6697 9.55179 10.675 9.5187 10.675Z" fill="#B063A3"/>
<path d="M6.73524 12.6573C4.9802 12.6573 3.52822 11.3456 3.35767 9.60628C3.34104 9.43697 3.46489 9.28624 3.6342 9.2696C3.8028 9.25138 3.95442 9.37682 3.97087 9.54613C4.11046 10.9684 5.29883 12.0409 6.73524 12.0409C6.90543 12.0409 7.04343 12.1789 7.04343 12.3491C7.04343 12.5193 6.90543 12.6573 6.73524 12.6573Z" fill="#B063A3"/>
<path d="M3.06859 12.3699C2.98968 12.3699 2.91078 12.3399 2.85062 12.2797C2.73032 12.159 2.73032 11.9641 2.8508 11.8438C3.34547 11.3495 4.0519 11.1326 4.73959 11.266C4.9066 11.2982 5.01594 11.4599 4.98374 11.6269C4.95154 11.7939 4.79142 11.905 4.62282 11.871C4.13576 11.778 3.63632 11.9298 3.28637 12.2797C3.22622 12.3399 3.14749 12.3699 3.06859 12.3699Z" fill="#B063A3"/>
<path d="M7.94731 16.5297C7.77711 16.5297 7.63911 16.3917 7.63911 16.2215C7.63911 15.644 7.45494 15.0651 7.12039 14.5913C7.02238 14.4523 7.05546 14.2601 7.19434 14.1621C7.33393 14.0638 7.52553 14.0967 7.6239 14.2361C8.03117 14.8128 8.2555 15.518 8.2555 16.2215C8.2555 16.3917 8.1175 16.5297 7.94731 16.5297Z" fill="#B063A3"/>
<path d="M7.14657 3.46507C7.04042 3.46507 6.9371 3.41022 6.87996 3.31185C6.66677 2.94563 6.2963 2.68238 5.88886 2.60754C5.72149 2.57676 5.61056 2.41629 5.64135 2.24892C5.67195 2.08156 5.83277 1.96868 5.99996 2.00141C6.59087 2.10987 7.10571 2.4745 7.41248 3.00189C7.49811 3.14909 7.44822 3.33768 7.3012 3.42314C7.25237 3.45162 7.19912 3.46507 7.14657 3.46507Z" fill="#B063A3"/>
<path d="M7.84434 7.23451C7.8017 7.23451 7.75836 7.22566 7.71696 7.20673C6.72161 6.75435 5.99978 5.84658 5.78606 4.77851C5.7528 4.6115 5.8609 4.44927 6.02774 4.41583C6.19616 4.38363 6.35698 4.49084 6.39042 4.6575C6.56522 5.53183 7.15648 6.27507 7.97208 6.64589C8.12688 6.71631 8.19553 6.89889 8.12493 7.05387C8.07345 7.16745 7.96146 7.23451 7.84434 7.23451Z" fill="#B063A3"/>
<path d="M6.79663 8.45666C6.64731 8.45666 6.51621 8.34786 6.4925 8.19571C6.39113 7.54341 6.48083 6.8766 6.75151 6.26711C6.82069 6.11142 7.00274 6.04154 7.15825 6.11054C7.31376 6.17971 7.38382 6.36176 7.31482 6.51728C7.09208 7.01831 7.0183 7.56605 7.10146 8.10123C7.12764 8.2693 7.01247 8.42676 6.84422 8.45295C6.8283 8.45542 6.81237 8.45666 6.79663 8.45666Z" fill="#B063A3"/>
<path d="M11.3367 18.4811C10.1645 18.4811 9.21051 17.4535 9.21051 16.1907C9.21051 16.0205 9.3485 15.8825 9.5187 15.8825C9.6889 15.8825 9.82689 16.0205 9.82689 16.1907C9.82689 17.1138 10.5041 17.8647 11.3367 17.8647C11.8498 17.8647 12.3374 17.5699 12.6102 17.0951C12.6541 17.0183 12.7287 16.9642 12.8151 16.9465C12.9021 16.9291 12.992 16.9486 13.0624 17.0017C13.3094 17.1874 13.6084 17.2893 13.9042 17.2893C14.6235 17.2893 15.2477 16.7221 15.3882 15.9409C15.4034 15.857 15.4526 15.7831 15.524 15.7367C15.5959 15.6904 15.6847 15.6766 15.7661 15.6964C15.7809 15.6992 15.7976 15.6974 15.8145 15.6974C16.6415 15.6974 17.3141 14.9466 17.3141 14.0234C17.3141 13.9176 17.3053 13.8101 17.2876 13.7043C17.2709 13.6048 17.3042 13.5033 17.3767 13.4329C17.7157 13.1031 17.91 12.6371 17.91 12.1541C17.91 11.5628 17.6223 11.0133 17.1595 10.72C17.0894 10.6754 17.0402 10.6046 17.0229 10.5236C17.0059 10.4422 17.0218 10.3577 17.0682 10.2887C17.2791 9.97232 17.3859 9.62893 17.3859 9.26801C17.3859 8.62509 17.0402 8.03117 16.5052 7.75464C16.3573 7.67822 16.2968 7.49776 16.369 7.34738C16.49 7.09562 16.5541 6.8221 16.5541 6.55655C16.5541 5.70185 15.9727 4.98568 15.2017 4.89032C15.1178 4.88006 15.0414 4.83548 14.9915 4.76719C14.9413 4.6989 14.9211 4.61292 14.9363 4.52959C14.9537 4.43511 14.9622 4.33957 14.9622 4.24563C14.9622 3.32247 14.2849 2.57145 13.4523 2.57145C13.3479 2.57145 13.2581 2.58153 13.1845 2.6017C13.102 2.62381 13.015 2.61178 12.9428 2.56755C12.8703 2.52333 12.8193 2.45132 12.8016 2.36817C12.6427 1.61715 12.0405 1.09258 11.3367 1.09258C10.5041 1.09258 9.8269 1.83883 9.8269 2.75633C9.8269 2.92652 9.6889 3.06452 9.5187 3.06452C9.34851 3.06452 9.21051 2.92652 9.21051 2.75633C9.21051 1.49914 10.1645 0.476196 11.3367 0.476196C12.2415 0.476196 13.0252 1.07294 13.3271 1.95896C13.3678 1.95648 13.4095 1.95506 13.4523 1.95506C14.6246 1.95506 15.5785 2.98261 15.5785 4.24563C15.5785 4.2766 15.5778 4.30773 15.5764 4.33887C16.5035 4.59929 17.1705 5.50176 17.1705 6.55655C17.1705 6.82352 17.123 7.09527 17.0317 7.35499C17.629 7.77499 18.0023 8.49735 18.0023 9.26801C18.0023 9.65706 17.911 10.0293 17.7302 10.3778C18.227 10.8038 18.5264 11.4595 18.5264 12.1541C18.5264 12.7482 18.3059 13.3246 17.9167 13.7595C17.9259 13.8476 17.9305 13.9357 17.9305 14.0234C17.9305 15.2435 17.0448 16.2434 15.9331 16.3103C15.6553 17.249 14.8383 17.9057 13.9042 17.9057C13.5811 17.9057 13.2566 17.8226 12.9651 17.668C12.5663 18.1757 11.9662 18.4811 11.3367 18.4811Z" fill="#B063A3"/>
<path d="M14.1915 8.32309C14.1338 8.32309 14.0758 8.30699 14.0238 8.2732C13.8812 8.18049 13.8408 7.9896 13.9335 7.847C14.5641 6.8773 15.828 6.60131 16.8109 7.22018C16.955 7.31076 16.9981 7.50112 16.9075 7.64513C16.8166 7.78914 16.627 7.83231 16.4826 7.74173C15.788 7.30403 14.8949 7.49864 14.4501 8.18279C14.3911 8.27373 14.2923 8.32309 14.1915 8.32309Z" fill="#B063A3"/>
<path d="M15.6918 16.3036C15.678 16.3036 15.6638 16.3025 15.6497 16.3007C15.1019 16.2257 14.6157 15.9416 14.2814 15.5003C13.9438 15.0549 13.7998 14.5046 13.8762 13.9505C13.8999 13.7817 14.0584 13.6675 14.2237 13.6873C14.3925 13.7106 14.5099 13.8663 14.4869 14.0347C14.4328 14.4257 14.5344 14.8139 14.7725 15.1281C15.0074 15.4381 15.3485 15.6376 15.7332 15.69C15.9016 15.713 16.0198 15.8683 15.9968 16.0371C15.9755 16.1914 15.8436 16.3036 15.6918 16.3036Z" fill="#B063A3"/>
<path d="M9.5187 13.0787C9.4842 13.0787 9.44917 13.073 9.41485 13.0606C9.25456 13.0033 9.17123 12.8267 9.22856 12.6665C9.51906 11.8555 10.2607 11.3074 11.1181 11.2709C11.272 11.2592 11.4316 11.3955 11.439 11.5657C11.4464 11.7355 11.3144 11.8792 11.1442 11.8866C10.5385 11.9124 10.0144 12.3002 9.80885 12.8745C9.76374 13.0001 9.6452 13.0787 9.5187 13.0787Z" fill="#B063A3"/>
<path d="M12.3123 12.6573C12.1421 12.6573 12.0041 12.5193 12.0041 12.3491C12.0041 12.1789 12.1421 12.0409 12.3123 12.0409C13.7488 12.0409 14.9374 10.9684 15.0764 9.54613C15.0931 9.377 15.2413 9.2528 15.4133 9.2696C15.5828 9.28606 15.7066 9.43697 15.69 9.60628C15.5194 11.3456 14.0673 12.6573 12.3123 12.6573Z" fill="#B063A3"/>
<path d="M15.9688 12.3699C15.8889 12.3699 15.8085 12.3388 15.7484 12.2769C15.4136 11.9337 14.9048 11.778 14.425 11.871C14.2577 11.905 14.0963 11.7939 14.0641 11.6269C14.0319 11.4599 14.1412 11.2982 14.3083 11.266C14.9997 11.1329 15.7041 11.3495 16.1893 11.8466C16.3081 11.9683 16.3057 12.1633 16.184 12.2822C16.1242 12.3406 16.0463 12.3699 15.9688 12.3699Z" fill="#B063A3"/>
<path d="M11.1004 16.5297C10.9302 16.5297 10.7922 16.3917 10.7922 16.2215C10.7922 15.518 11.0165 14.8128 11.4241 14.2361C11.5214 14.0967 11.7143 14.063 11.8533 14.1621C11.9924 14.2601 12.0256 14.4523 11.9273 14.5913C11.5929 15.0655 11.4086 15.6444 11.4086 16.2215C11.4086 16.3917 11.2706 16.5297 11.1004 16.5297Z" fill="#B063A3"/>
<path d="M11.9011 3.46507C11.8487 3.46507 11.7953 3.45162 11.7465 3.42314C11.5993 3.33769 11.5494 3.14909 11.635 3.00189C11.9418 2.4745 12.4566 2.10987 13.0475 2.00142C13.2149 1.97046 13.3752 2.08156 13.406 2.24893C13.4368 2.41629 13.326 2.57676 13.1586 2.60754C12.7514 2.68238 12.3809 2.94563 12.1679 3.31186C12.1106 3.41022 12.0072 3.46507 11.9011 3.46507Z" fill="#B063A3"/>
<path d="M11.1619 8.4464C11.0844 8.4464 11.0069 8.41739 10.9471 8.35918C10.8251 8.24064 10.8222 8.0455 10.9408 7.92343C11.5695 7.27643 11.8459 6.36442 11.6807 5.48354C11.6492 5.31635 11.7596 5.15535 11.9266 5.12386C12.0975 5.09308 12.2549 5.20277 12.2864 5.36995C12.4885 6.44721 12.1509 7.56251 11.3831 8.35299C11.3226 8.41508 11.2422 8.4464 11.1619 8.4464Z" fill="#B063A3"/>
<path d="M12.0037 6.71065C11.8586 6.71065 11.7295 6.60768 11.7012 6.45995C11.6697 6.29277 11.7794 6.13141 11.9467 6.09975C12.4931 5.99607 12.9867 5.74661 13.3738 5.37809C13.4962 5.26079 13.6919 5.26539 13.8093 5.38888C13.9265 5.5122 13.9219 5.70734 13.7984 5.82464C13.3253 6.2749 12.7248 6.57937 12.0614 6.70516C12.0419 6.70888 12.0228 6.71065 12.0037 6.71065Z" fill="#B063A3"/>
</svg>
