<svg width="19" height="21" viewBox="0 0 19 21" fill="none" xmlns="http://www.w3.org/2000/svg">
<path d="M18.3908 15.5463L18.3911 15.5466C18.4641 15.6189 18.4974 15.7059 18.4932 15.7843C18.4891 15.8612 18.4489 15.9362 18.3612 15.9882L18.3547 15.9921L18.3493 15.9975L17.3861 16.9513L17.3518 16.9853L17.3763 17.027L17.6694 17.5246L17.67 17.5256C18.3548 18.6426 17.5102 20.0852 16.1735 20.0852C14.8374 20.0852 13.992 18.6845 14.677 17.5257L14.9695 17.0705L14.9966 17.0282L14.9609 16.9928L13.1602 15.2096L13.1166 15.1663L13.0729 15.2096L12.1516 16.1219C11.7445 16.5251 11.1739 16.7675 10.5621 16.7675C10.0309 16.7675 9.5423 16.6059 9.13522 16.2834C9.13515 16.2834 9.13508 16.2833 9.135 16.2833L1.43095 10.105C1.4308 10.1049 1.43065 10.1048 1.4305 10.1047C0.411524 9.25657 0.331078 7.72355 1.26743 6.79627L7.13008 0.990346C8.06687 0.0626242 9.61596 0.142502 10.4725 1.15184C10.4726 1.15198 10.4728 1.15213 10.4729 1.15228L16.7117 8.78205L16.7119 8.7823C17.4447 9.66927 17.3639 10.9601 16.5486 11.7675L15.6273 12.6798L15.5831 12.7236L15.627 12.7677L18.3908 15.5463ZM16.1384 9.24328L16.1378 9.24257L9.89883 1.61261C9.33044 0.877326 8.28215 0.835858 7.62898 1.48271L1.76632 7.28863C1.11055 7.93806 1.19927 8.97641 1.89671 9.5376L9.55909 15.716C9.55924 15.7161 9.55939 15.7162 9.55954 15.7164C9.84547 15.9557 10.2276 16.0627 10.6014 16.0466C10.9754 16.0305 11.3469 15.891 11.6108 15.6296C11.6526 15.5882 12.7516 14.5102 13.8458 13.437L14.4011 12.8923C15.2808 12.0294 16.0322 11.2924 16.0497 11.2751L16.0497 11.2752L16.0514 11.2733C16.5745 10.7122 16.6185 9.8484 16.1384 9.24328ZM16.2688 16.5076L16.2154 16.4177L16.162 16.5076L15.3248 17.9171C15.3247 17.9172 15.3247 17.9172 15.3247 17.9173C14.9211 18.5836 15.4168 19.4214 16.2154 19.4214C17.014 19.4214 17.5097 18.5836 17.1061 17.9173C17.1061 17.9172 17.1061 17.9172 17.106 17.9171L16.2688 16.5076ZM16.9998 16.3226L17.0389 16.3871L17.0946 16.3364L17.5972 15.8802L17.6456 15.8362L17.5991 15.7902L15.0865 13.3019L15.0429 13.2586L14.9992 13.3019L13.6591 14.629L13.6146 14.6731L13.6591 14.7172L15.2923 16.3346L15.3483 16.39L15.3891 16.3226L15.8916 15.4932L15.8918 15.4933L15.8939 15.489C15.9433 15.3913 16.0536 15.3365 16.1788 15.3365C16.303 15.3365 16.4278 15.3911 16.4981 15.4945L16.9998 16.3226ZM9.24465 2.29391L9.25469 2.30851L12.3929 6.86673C12.4651 7.01268 12.4637 7.19067 12.3577 7.33331L7.67085 11.9748C7.63267 12.0127 7.59692 12.0386 7.55867 12.0554C7.52066 12.0722 7.47705 12.0813 7.42141 12.0813C7.35595 12.0813 7.28701 12.049 7.20143 12.0066L2.61958 8.91287C2.61686 8.90535 2.61326 8.89818 2.60874 8.89146C2.59747 8.87472 2.58294 8.8644 2.57039 8.85818C2.56296 8.8545 2.5558 8.85204 2.54955 8.85039C2.29096 8.61901 2.2642 8.21445 2.48184 7.99892L8.34449 2.193L8.34462 2.19313L8.34775 2.18952C8.4577 2.06249 8.614 2.01552 8.7752 2.0343C8.93739 2.0532 9.1013 2.13877 9.21701 2.27246L9.23558 2.29391H9.24465ZM7.30298 11.241L7.34518 11.2695L7.38134 11.2336L11.569 7.08656L11.6058 7.05006L11.5764 7.0073L8.72887 2.86022L8.68681 2.79896L8.634 2.85125L3.10636 8.3254L3.05253 8.3787L3.11536 8.42101L7.30298 11.241ZM10.521 12.1885L10.521 12.1885L10.5221 12.1875C10.5965 12.1138 10.6757 12.081 10.7506 12.081C10.8254 12.081 10.9046 12.1138 10.9791 12.1875C11.122 12.3291 11.122 12.5383 10.9791 12.6798L10.0997 13.5507C9.95636 13.6926 9.74408 13.6926 9.60078 13.5507C9.45797 13.4093 9.4578 13.2004 9.60028 13.0589L10.521 12.1885ZM13.4523 9.28552L13.4524 9.28553L13.4534 9.28452C13.5278 9.2108 13.607 9.17808 13.6819 9.17808C13.7568 9.17808 13.836 9.2108 13.9104 9.28452C14.0534 9.42611 14.0534 9.63529 13.9104 9.77688L13.031 10.6478C12.8877 10.7897 12.6754 10.7897 12.5321 10.6478C12.3893 10.5063 12.3891 10.2975 12.5316 10.1559L13.4523 9.28552Z" fill="#B063A3" stroke="#FBEEF4" stroke-width="0.124172"/>
</svg>
