<svg width="18" height="18" viewBox="0 0 18 18" fill="none" xmlns="http://www.w3.org/2000/svg">
<path d="M15.6252 9.21193H11.2792C11.2072 9.21193 11.1381 9.18331 11.0871 9.13236C11.0362 9.08141 11.0076 9.01231 11.0076 8.94026V5.68017C11.0076 5.60812 11.0362 5.53902 11.0871 5.48807C11.1381 5.43712 11.2072 5.4085 11.2792 5.4085H15.6252C15.6973 5.4085 15.7663 5.43712 15.8173 5.48807C15.8682 5.53902 15.8968 5.60812 15.8968 5.68017V8.94026C15.8968 9.01231 15.8682 9.08141 15.8173 9.13236C15.7663 9.18331 15.6973 9.21193 15.6252 9.21193ZM11.5508 8.66859H15.3536V5.95185H11.5508V8.66859Z" fill="#B063A3"/>
<path d="M13.6804 8.12524C13.6379 8.11837 13.5976 8.10148 13.5629 8.07598C13.5282 8.05047 13.5 8.01707 13.4807 7.97853L13.1589 7.33467L13.0054 7.58189C12.9818 7.62275 12.948 7.65677 12.9073 7.68059C12.8665 7.7044 12.8203 7.7172 12.7732 7.71773H12.3657C12.2937 7.71773 12.2246 7.6891 12.1736 7.63815C12.1227 7.58721 12.0941 7.51811 12.0941 7.44605C12.0941 7.374 12.1227 7.3049 12.1736 7.25395C12.2246 7.203 12.2937 7.17438 12.3657 7.17438H12.6197L12.9484 6.63103C12.9728 6.58855 13.0084 6.5535 13.0512 6.52958C13.094 6.50567 13.1425 6.49378 13.1915 6.49519C13.2401 6.49719 13.2874 6.51224 13.3282 6.53876C13.3691 6.56529 13.4021 6.60232 13.4237 6.64597L13.7985 7.39443L13.9344 7.2586C13.9598 7.23194 13.9903 7.21073 14.0242 7.19626C14.058 7.18178 14.0945 7.17433 14.1313 7.17438H14.5387C14.6108 7.17438 14.6798 7.203 14.7308 7.25395C14.7817 7.3049 14.8103 7.374 14.8103 7.44605C14.8103 7.51811 14.7817 7.58721 14.7308 7.63815C14.6798 7.6891 14.6108 7.71773 14.5387 7.71773H14.244L13.9153 8.04509C13.8854 8.07617 13.8484 8.09964 13.8076 8.11358C13.7667 8.12752 13.7231 8.13152 13.6804 8.12524Z" fill="#B063A3"/>
<path d="M14.8103 12.2003C14.5686 12.2003 14.3323 12.1286 14.1313 11.9943C13.9303 11.86 13.7736 11.669 13.6811 11.4457C13.5886 11.2223 13.5644 10.9765 13.6115 10.7393C13.6587 10.5022 13.7751 10.2843 13.946 10.1134C14.117 9.94238 14.3348 9.82594 14.5719 9.77877C14.809 9.7316 15.0548 9.75581 15.2781 9.84834C15.5015 9.94087 15.6924 10.0976 15.8267 10.2986C15.961 10.4997 16.0327 10.736 16.0327 10.9778C16.0327 11.3021 15.9039 11.613 15.6747 11.8423C15.4454 12.0715 15.1345 12.2003 14.8103 12.2003ZM14.8103 10.2986C14.676 10.2986 14.5447 10.3385 14.4331 10.4131C14.3214 10.4877 14.2344 10.5938 14.183 10.7179C14.1316 10.842 14.1181 10.9786 14.1443 11.1103C14.1705 11.2421 14.2352 11.3631 14.3302 11.4581C14.4251 11.5531 14.5461 11.6177 14.6779 11.6439C14.8096 11.6702 14.9461 11.6567 15.0702 11.6053C15.1943 11.5539 15.3003 11.4668 15.375 11.3552C15.4496 11.2435 15.4894 11.1121 15.4894 10.9778C15.4894 10.7977 15.4179 10.6249 15.2905 10.4976C15.1632 10.3702 14.9904 10.2986 14.8103 10.2986Z" fill="#B063A3"/>
<path d="M16.0327 3.77845H11.0076C10.5754 3.77845 10.1608 3.95019 9.85518 4.25588C9.54954 4.56157 9.37784 4.97618 9.37784 5.4085V12.0645C9.37784 12.4968 9.54954 12.9114 9.85518 13.2171C10.1608 13.5228 10.5754 13.6946 11.0076 13.6946H14.8103V14.1021C14.8103 15.1412 14.0281 15.8679 12.909 15.8679H9.34796C9.28665 15.5989 9.13611 15.3585 8.92084 15.1858C8.70557 15.0132 8.43824 14.9185 8.16232 14.9171H7.47646C7.34546 14.9172 7.21641 14.9489 7.10026 15.0095C6.51083 14.6019 5.64842 14.3737 4.64613 14.3737C2.73117 14.3737 1.22908 15.1494 1.22908 16.1396C1.22908 17.1299 2.72302 17.9055 4.64613 17.9055C5.69053 17.9055 6.58825 17.6936 7.19261 17.3105C7.28341 17.3445 7.37953 17.362 7.47646 17.3622H8.15553C8.43137 17.3616 8.69881 17.2672 8.91382 17.0944C9.12883 16.9215 9.27859 16.6806 9.33845 16.4113H12.909C14.3255 16.4113 15.3536 15.4401 15.3536 14.1021V13.6946H16.1685C17.0703 13.6946 17.5266 13.2381 17.5266 12.3362V5.27266C17.5266 4.37885 16.9263 3.77845 16.0327 3.77845ZM1.77233 16.1396C1.77233 15.561 2.95254 14.9171 4.64613 14.9171C5.48816 14.9171 6.23106 15.0964 6.72542 15.4143C6.68307 15.5149 6.66137 15.623 6.66159 15.7321V16.5471C6.66155 16.6833 6.69563 16.8174 6.76073 16.937C6.25415 17.2087 5.4936 17.3622 4.64748 17.3622C2.9539 17.3622 1.77233 16.7183 1.77233 16.1396ZM8.15553 16.8188H7.47646C7.40442 16.8188 7.33533 16.7902 7.28439 16.7392C7.23345 16.6883 7.20484 16.6192 7.20484 16.5471V15.7321C7.20484 15.6601 7.23345 15.591 7.28439 15.54C7.33533 15.4891 7.40442 15.4604 7.47646 15.4604H8.15553C8.33562 15.4604 8.50835 15.532 8.6357 15.6594C8.76304 15.7867 8.83459 15.9595 8.83459 16.1396C8.83459 16.3198 8.76304 16.4925 8.6357 16.6199C8.50835 16.7473 8.33562 16.8188 8.15553 16.8188ZM16.9833 12.3362C16.9833 12.9298 16.762 13.1512 16.1685 13.1512H11.0076C10.7194 13.1512 10.4431 13.0367 10.2393 12.8329C10.0356 12.6291 9.92109 12.3527 9.92109 12.0645V5.4085C9.92109 5.12029 10.0356 4.84388 10.2393 4.64009C10.4431 4.43629 10.7194 4.3218 11.0076 4.3218H16.0327C16.6275 4.3218 16.9833 4.67769 16.9833 5.27266V12.3362Z" fill="#B063A3"/>
<path d="M11.5508 1.33339H4.45327C4.3925 1.10083 4.25636 0.894996 4.06615 0.748086C3.87594 0.601175 3.6424 0.521484 3.40208 0.521484C3.16176 0.521484 2.92822 0.601175 2.73801 0.748086C2.5478 0.894996 2.41166 1.10083 2.35089 1.33339H1.90814C1.00906 1.33339 0.142578 2.14841 0.142578 2.96343V9.61944C0.142578 10.0878 0.328592 10.5369 0.6597 10.8681C0.990808 11.1993 1.43989 11.3853 1.90814 11.3853H8.56296C8.635 11.3853 8.70409 11.3567 8.75503 11.3058C8.80597 11.2548 8.83459 11.1857 8.83459 11.1137C8.83459 11.0416 8.80597 10.9725 8.75503 10.9215C8.70409 10.8706 8.635 10.842 8.56296 10.842H1.90814C1.58396 10.842 1.27306 10.7132 1.04384 10.4839C0.814608 10.2546 0.685829 9.94368 0.685829 9.61944C0.685829 9.29521 0.814608 8.98425 1.04384 8.75498C1.27306 8.52571 1.58396 8.39691 1.90814 8.39691H2.35089C2.41166 8.62946 2.5478 8.8353 2.73801 8.98221C2.92822 9.12912 3.16176 9.20881 3.40208 9.20881C3.6424 9.20881 3.87594 9.12912 4.06615 8.98221C4.25636 8.8353 4.3925 8.62946 4.45327 8.39691H8.56296C8.635 8.39691 8.70409 8.36829 8.75503 8.31734C8.80597 8.26639 8.83459 8.19729 8.83459 8.12524C8.83459 8.05318 8.80597 7.98408 8.75503 7.93313C8.70409 7.88219 8.635 7.85356 8.56296 7.85356H8.29949V1.87673H11.5508C12.2706 1.87673 12.7732 2.32364 12.7732 2.96343C12.7732 3.03548 12.8018 3.10458 12.8527 3.15553C12.9037 3.20648 12.9727 3.2351 13.0448 3.2351C13.1168 3.2351 13.1859 3.20648 13.2368 3.15553C13.2878 3.10458 13.3164 3.03548 13.3164 2.96343C13.3164 2.01936 12.5735 1.33339 11.5508 1.33339ZM2.31558 7.85356H1.90814C1.45215 7.85432 1.01414 8.03151 0.685829 8.34801V3.09927C0.685829 2.77503 0.814608 2.46408 1.04384 2.23481C1.27306 2.00554 1.58396 1.87673 1.90814 1.87673H2.31558V7.85356ZM3.40208 1.06171C3.49689 1.06228 3.58989 1.08766 3.67185 1.13532C3.75381 1.18298 3.82188 1.25127 3.86928 1.33339H2.93489C2.98229 1.25127 3.05035 1.18298 3.13231 1.13532C3.21427 1.08766 3.30728 1.06228 3.40208 1.06171ZM3.40208 8.66859C3.30728 8.66801 3.21427 8.64264 3.13231 8.59498C3.05035 8.54732 2.98229 8.47903 2.93489 8.39691H3.86928C3.82188 8.47903 3.75381 8.54732 3.67185 8.59498C3.58989 8.64264 3.49689 8.66801 3.40208 8.66859ZM7.75624 7.85356H2.85883V1.87673H7.75624V7.85356Z" fill="#B063A3"/>
</svg>
