<svg width="20" height="19" viewBox="0 0 20 19" fill="none" xmlns="http://www.w3.org/2000/svg">
<path d="M14.3268 16.7525C13.1389 17.8267 11.5627 18.4811 9.83338 18.4811C8.10401 18.4811 6.52782 17.8267 5.33995 16.7525C3.78486 16.3599 2.23079 15.7636 0.678102 14.9639C0.502977 14.8737 0.466436 14.6396 0.605789 14.5005C1.12426 13.9832 1.39362 13.0872 1.39362 11.8018V8.89783C1.39362 4.24669 5.17223 0.476196 9.83338 0.476196C14.4945 0.476196 18.2731 4.24669 18.2731 8.89783V11.8018C18.2731 13.0872 18.5425 13.9832 19.061 14.5005C19.2003 14.6396 19.1638 14.8737 18.9886 14.9639C17.436 15.7636 15.8819 16.3599 14.3268 16.7525ZM15.0904 15.9368C16.1912 15.6011 17.2926 15.1599 18.3947 14.6131C17.9213 13.9641 17.6911 13.0247 17.6911 11.8018V8.89783C17.6911 4.56746 14.1731 1.057 9.83338 1.057C5.49369 1.057 1.97568 4.56746 1.97568 8.89783V11.8018C1.97568 13.0247 1.74541 13.9641 1.27209 14.6131C2.37418 15.1599 3.47555 15.6011 4.57633 15.9368C3.67669 14.7995 3.13978 13.3632 3.13978 11.8018V9.76904C3.13978 9.60865 3.27008 9.47863 3.4308 9.47863H5.29675L6.66872 7.01439C6.81456 6.75245 7.21414 6.85577 7.21414 7.15543V9.47863H12.1616V7.15543C12.1616 6.85577 12.5612 6.75245 12.707 7.01439L14.079 9.47863H16.2359C16.3967 9.47863 16.527 9.60865 16.527 9.76904V11.8018C16.527 13.3632 15.9901 14.7995 15.0904 15.9368ZM3.72183 10.0594V11.8018C3.72183 15.1699 6.45806 17.9003 9.83338 17.9003C13.2087 17.9003 15.9449 15.1699 15.9449 11.8018V10.0594H13.9077C13.802 10.0594 13.7047 10.0023 13.6533 9.91007L12.7436 8.27612V9.76904C12.7436 9.92942 12.6133 10.0594 12.4526 10.0594H6.92312C6.76239 10.0594 6.63209 9.92942 6.63209 9.76904V8.27612L5.72239 9.91007C5.67106 10.0023 5.57368 10.0594 5.46799 10.0594H3.72183Z" fill="#B063A3"/>
<path d="M11.6078 15.5388C11.7417 15.6276 11.7781 15.8078 11.6892 15.9414C11.6003 16.075 11.4196 16.1114 11.2858 16.0226C10.8471 15.7318 10.3501 15.5771 9.83338 15.5771C9.31663 15.5771 8.81961 15.7318 8.381 16.0226C8.24712 16.1114 8.0665 16.075 7.97755 15.9414C7.88861 15.8078 7.92503 15.6276 8.05891 15.5388C8.59146 15.1858 9.20011 14.9963 9.83338 14.9963C10.4666 14.9963 11.0753 15.1858 11.6078 15.5388Z" fill="#B063A3"/>
<path d="M6.36192 11.305L8.20681 12.8627C8.369 12.9997 8.33425 13.2582 8.14164 13.3477C7.86599 13.4757 7.54635 13.5443 7.21414 13.5443C6.26739 13.5443 5.46798 12.9859 5.46798 12.2375C5.46798 11.867 5.66862 11.5304 6.00458 11.2905C6.11297 11.2132 6.26018 11.2191 6.36192 11.305ZM6.05004 12.2375C6.05004 12.6117 6.5536 12.9635 7.21414 12.9635C7.28124 12.9635 7.3474 12.9598 7.41214 12.9526L6.1797 11.912C6.0941 12.0146 6.05004 12.1261 6.05004 12.2375Z" fill="#B063A3"/>
<path d="M11.4599 12.8627L13.3048 11.305C13.4066 11.2191 13.5538 11.2132 13.6622 11.2905C13.9981 11.5304 14.1988 11.867 14.1988 12.2375C14.1988 12.9859 13.3994 13.5443 12.4526 13.5443C12.1204 13.5443 11.8008 13.4757 11.5251 13.3477C11.3325 13.2582 11.2978 12.9997 11.4599 12.8627ZM12.4526 12.9635C13.1132 12.9635 13.6167 12.6117 13.6167 12.2375C13.6167 12.1261 13.5727 12.0146 13.487 11.912L12.2546 12.9526C12.3193 12.9598 12.3855 12.9635 12.4526 12.9635Z" fill="#B063A3"/>
</svg>
