<svg width="22" height="22" viewBox="0 0 22 22" fill="none" xmlns="http://www.w3.org/2000/svg">
<path d="M10.6304 4.70321C9.17214 4.70321 8.2555 4.55545 8.193 4.55545C8.068 4.53434 7.96384 4.40768 7.98467 4.28103C8.0055 4.15437 8.1305 4.04883 8.2555 4.06994C8.27633 4.06994 10.3388 4.38657 13.1929 4.06994C13.1929 4.06994 13.5262 4.02772 14.0679 3.96439C14.1928 3.94328 14.3178 4.04883 14.3387 4.17548C14.3595 4.30214 14.2553 4.42879 14.1303 4.4499C13.5679 4.51323 13.2345 4.55545 13.2345 4.55545C12.2762 4.66099 11.3804 4.70321 10.6304 4.70321Z" fill="#B063A3"/>
<path d="M5.81806 8.60841C5.71389 8.60841 5.60973 8.52397 5.58889 8.41843C5.54723 8.22844 4.77641 3.87995 7.23469 1.57906V0.291396C7.23469 0.143632 7.33885 0.0380859 7.46385 0.0380859C7.58885 0.0380859 7.71384 0.143632 7.71384 0.291396V1.79015L7.63051 1.85347C5.2764 3.94328 6.04722 8.27066 6.04722 8.31288C6.06805 8.43954 5.98472 8.56619 5.85972 8.5873C5.83889 8.60841 5.81806 8.60841 5.81806 8.60841Z" fill="#B063A3"/>
<path d="M11.0054 4.70321C10.8804 4.70321 10.7554 4.59767 10.7554 4.4499C10.7554 2.04346 9.04714 1.79015 8.98464 1.76904L8.77632 1.74793V0.291396C8.77632 0.164741 8.88048 0.0380859 9.02631 0.0380859C9.15131 0.0380859 9.2763 0.143632 9.2763 0.291396V1.34685C9.81796 1.51573 11.2554 2.149 11.2554 4.4499C11.2554 4.59767 11.1304 4.70321 11.0054 4.70321Z" fill="#B063A3"/>
<path d="M11.2138 21.1473C11.0679 21.1473 10.9221 21.1261 10.7971 21.105C7.98467 20.5984 5.25557 17.9387 5.13057 17.8331C4.46392 17.1365 3.92227 16.4399 3.52645 15.7222C2.35981 13.5691 2.7973 10.8671 4.58892 9.15725L5.29724 8.48175C6.10972 7.70071 7.23469 7.38408 8.31799 7.59517C8.56799 7.13077 8.67215 6.68747 8.71382 6.41306C8.67215 6.41306 8.60965 6.39195 8.54715 6.39195C7.96384 6.30751 7.54718 5.73756 7.63051 5.14651C7.77634 4.04883 8.40132 3.20446 8.42216 3.18335C8.50549 3.07781 8.65132 3.0567 8.75548 3.14113C8.85965 3.22557 8.88048 3.37333 8.79715 3.47888C8.79715 3.47888 8.23466 4.23881 8.08883 5.20983C8.04717 5.54758 8.27633 5.86422 8.60965 5.90644C8.83881 5.94865 9.00548 5.96976 9.00548 5.96976L9.23464 5.99087L9.21381 6.22307C9.21381 6.26529 9.13047 7.13077 8.63049 7.99624L8.54715 8.14401L8.35966 8.10179C7.38052 7.86959 6.35971 8.14401 5.63056 8.84061L4.92224 9.5161C3.27645 11.0782 2.88063 13.5268 3.9431 15.49C4.31809 16.1655 4.81808 16.841 5.4639 17.4954C5.48473 17.5165 8.21383 20.1551 10.8596 20.6406C11.6304 20.7884 12.3804 20.4507 12.797 19.7963C13.0054 19.4585 13.2137 19.0574 13.4012 18.6142C13.7762 17.7065 13.9845 16.7988 14.0679 15.9544C14.2345 13.949 13.8179 12.3658 13.797 12.3658C13.3804 11.036 12.4012 9.93829 11.1096 9.38945C11.0471 9.36834 10.9846 9.30501 10.9638 9.24168C10.9221 9.13614 10.5263 8.05957 10.5263 6.34973V6.11753H10.7554C10.7763 6.11753 11.8179 6.07531 13.172 5.94865C13.172 5.94865 13.547 5.90644 14.0679 5.84311C14.1928 5.822 14.3178 5.92754 14.3387 6.0542C14.3595 6.18085 14.2553 6.30751 14.1303 6.32862C13.6095 6.39195 13.2137 6.43416 13.2137 6.43416C12.2137 6.5186 11.3804 6.56082 11.0054 6.58193C11.0263 7.86959 11.2763 8.71395 11.3596 8.96726C12.7554 9.57943 13.797 10.7615 14.2345 12.2181C14.2553 12.3025 14.6928 13.9068 14.5053 15.9966C14.422 16.9043 14.1928 17.8542 13.797 18.8041C13.6095 19.2896 13.3804 19.7118 13.1512 20.0707C12.7762 20.7462 12.0262 21.1473 11.2138 21.1473Z" fill="#B063A3"/>
<path d="M3.10979 13.4213C3.04729 13.4213 3.00563 13.4002 2.94313 13.358C-0.619285 10.1283 1.17234 7.34186 1.58899 6.81413C1.71399 6.64526 1.83899 6.49749 1.92232 6.32862C3.00563 4.51323 2.7348 2.71895 2.7348 2.69784C2.71397 2.57119 2.7973 2.44453 2.92229 2.42342C3.04729 2.40231 3.17229 2.48675 3.19312 2.6134C3.21395 2.69784 3.50561 4.61878 2.31814 6.58193C2.21398 6.77191 2.08898 6.94078 1.94315 7.10966C1.44316 7.76404 0.0681983 10.1283 3.25562 12.978C3.35978 13.0624 3.35978 13.2313 3.27645 13.3158C3.25562 13.4002 3.19312 13.4213 3.10979 13.4213Z" fill="#B063A3"/>
<path d="M5.75556 5.69534C5.73472 5.69534 5.71389 5.69534 5.69306 5.69534C4.15143 5.27316 4.48476 2.74006 4.50559 2.63451C4.52642 2.50786 4.65142 2.40231 4.77641 2.42342C4.90141 2.44453 5.00558 2.57119 4.98474 2.69784C4.98474 2.71895 4.69308 4.9143 5.81806 5.20983C5.94305 5.25205 6.02638 5.37871 5.98472 5.50536C5.94305 5.63202 5.85972 5.69534 5.75556 5.69534Z" fill="#B063A3"/>
<path d="M11.2971 14.6667C11.2554 14.6667 11.2346 14.6667 11.1929 14.6456C9.19297 13.6324 8.94298 12.1336 8.94298 12.0703C8.92214 11.9437 9.00548 11.817 9.15131 11.7959C9.2763 11.7748 9.4013 11.8592 9.42213 12.007C9.42213 12.0703 9.65129 13.3158 11.4013 14.2023C11.5262 14.2657 11.5679 14.4134 11.5054 14.519C11.4637 14.6034 11.3804 14.6667 11.2971 14.6667Z" fill="#B063A3"/>
<path d="M8.17216 14.3079C8.10967 14.3079 8.04717 14.2868 7.98467 14.2234C5.79722 11.6903 8.1305 7.8907 8.23466 7.72182C8.29716 7.61628 8.46382 7.57406 8.56799 7.63739C8.67215 7.70071 8.71382 7.86959 8.65132 7.97513C8.63049 8.01735 6.40137 11.6481 8.35966 13.8857C8.44299 13.9912 8.44299 14.139 8.33883 14.2234C8.27633 14.2868 8.23466 14.3079 8.17216 14.3079Z" fill="#B063A3"/>
<path d="M10.9013 16.841C10.8596 16.841 10.8179 16.841 10.7763 16.8199C10.1096 16.4399 9.69296 15.9544 9.5888 15.3633C9.4013 14.4345 10.0263 13.6113 10.0471 13.5691C10.1304 13.4635 10.2763 13.4424 10.3804 13.5268C10.4846 13.6113 10.5054 13.759 10.4221 13.8646C10.4221 13.8646 9.90129 14.5401 10.0471 15.2578C10.1304 15.7011 10.4638 16.0811 11.0054 16.3766C11.1304 16.4399 11.1721 16.5877 11.0888 16.7143C11.0679 16.7988 10.9846 16.841 10.9013 16.841Z" fill="#B063A3"/>
<path d="M16.6095 14.6878C16.4845 14.6878 16.3803 14.6034 16.3803 14.4768C16.3595 14.3501 16.4636 14.2234 16.5886 14.2023L18.8594 13.949L17.3803 12.8091L20.9843 12.387C21.1093 12.3658 21.2343 12.4714 21.2552 12.598C21.276 12.7247 21.1718 12.8514 21.0468 12.8725L18.6302 13.168L20.1302 14.3079L16.6303 14.6878H16.6095Z" fill="#B063A3"/>
<path d="M18.7552 19.0152L15.7761 17.1998C15.672 17.1365 15.6303 16.9887 15.6928 16.8621C15.7553 16.7565 15.9011 16.7143 16.0261 16.7777L17.9844 17.9598L17.4636 16.1444L20.5885 18.002C20.6927 18.0653 20.7344 18.2131 20.6719 18.3397C20.6094 18.4453 20.4635 18.4875 20.3385 18.4242L18.2344 17.1787L18.7552 19.0152Z" fill="#B063A3"/>
<path d="M15.6511 11.8803C15.5678 11.8803 15.5053 11.8381 15.4636 11.7748C15.3803 11.6692 15.422 11.5215 15.5261 11.437L17.3803 10.1072L15.547 9.83274L18.4844 7.67961C18.5886 7.59517 18.7344 7.61628 18.8177 7.74293C18.9011 7.84848 18.8802 7.99624 18.7552 8.08068L16.7761 9.53721L18.6302 9.81163L15.797 11.8381C15.7553 11.8803 15.7136 11.8803 15.6511 11.8803Z" fill="#B063A3"/>
</svg>
