<svg width="14" height="23" viewBox="0 0 14 23" fill="none" xmlns="http://www.w3.org/2000/svg">
<path d="M13.6647 11.4425H11.9623V12.1362H13.6647V11.4425Z" fill="#B063A3"/>
<path d="M13.3745 13.7474L11.7746 13.178L11.5321 13.8298L13.132 14.3991L13.3745 13.7474Z" fill="#B063A3"/>
<path d="M13.3743 9.83209L13.1317 9.18036L11.5321 9.74974L11.7747 10.4015L13.3743 9.83209Z" fill="#B063A3"/>
<path d="M1.7082 11.4425H0.00585938V12.1362H1.7082V11.4425Z" fill="#B063A3"/>
<path d="M2.13896 13.8305L1.89634 13.1787L0.29675 13.7479L0.539379 14.3997L2.13896 13.8305Z" fill="#B063A3"/>
<path d="M2.13861 9.74884L0.539234 9.1797L0.296605 9.83154L1.89598 10.4007L2.13861 9.74884Z" fill="#B063A3"/>
<path d="M8.71223 22.9647H8.0029V18.6869C8.0029 17.5445 8.49644 16.4455 9.35675 15.6714L9.37687 15.655C9.4203 15.6213 9.46213 15.5857 9.50157 15.5484C9.83132 15.2369 10.013 14.8183 10.013 14.3697C10.013 13.4664 9.26177 12.7316 8.33802 12.7316C8.04668 12.7316 7.7607 12.8056 7.51096 12.9453C7.48136 12.9613 7.45679 12.9763 7.43244 12.9918L7.40158 13.0097C7.05423 13.1867 6.61602 13.1869 6.26912 13.0096L6.23792 12.9917C6.2138 12.9759 6.18912 12.9613 6.16386 12.9474C5.90977 12.8056 5.6238 12.7316 5.3328 12.7316C4.40905 12.7316 3.65743 13.4664 3.65743 14.3697C3.65743 14.8185 3.83928 15.2369 4.16914 15.5486C4.20857 15.5857 4.25029 15.6213 4.29372 15.6548L4.31384 15.6717C5.17416 16.4457 5.66746 17.5448 5.66746 18.6869V22.9647H4.95802V18.6869C4.95802 17.7421 4.55158 16.8328 3.84259 16.1902C3.78476 16.1448 3.72887 16.097 3.67652 16.0475C3.20664 15.6039 2.94799 15.0081 2.94799 14.3696C2.94799 13.0839 4.01792 12.038 5.3328 12.038C5.74713 12.038 6.15471 12.1435 6.51178 12.3428C6.54344 12.3599 6.57738 12.3802 6.61087 12.4012C6.75066 12.4678 6.91993 12.4678 7.05972 12.4012C7.09332 12.3799 7.12784 12.3596 7.16281 12.3406C7.51565 12.1435 7.92335 12.038 8.33779 12.038C9.65255 12.038 10.7223 13.0839 10.7223 14.3696C10.7223 15.0081 10.4635 15.6039 9.99407 16.0474C9.94195 16.0967 9.88595 16.1446 9.82811 16.1902C9.11867 16.8326 8.71211 17.742 8.71211 18.6869L8.71223 22.9647Z" fill="#B063A3"/>
<path d="M8.33779 11.5408C7.92369 11.5408 7.51599 11.4353 7.15881 11.2359C7.12624 11.2178 7.09298 11.1983 7.06006 11.1778C6.92096 11.1113 6.74974 11.1113 6.61042 11.1777C6.57761 11.1984 6.54401 11.218 6.50983 11.2369C6.15426 11.4353 5.74667 11.5408 5.33269 11.5408C4.01792 11.5408 2.94787 10.4948 2.94787 9.20903C2.94787 8.57035 3.20653 7.9747 3.6764 7.53137C3.72715 7.4832 3.78327 7.43526 3.84248 7.38888C4.55169 6.74596 4.9579 5.83639 4.9579 4.89151V0.61377H5.66735V4.89151C5.66735 6.03397 5.17416 7.13308 4.31373 7.90742L4.29361 7.9243C4.2504 7.95771 4.2088 7.99291 4.16937 8.03024C3.83893 8.34192 3.65732 8.76033 3.65732 9.20903C3.65732 10.1123 4.40893 10.8471 5.33269 10.8471C5.62346 10.8471 5.90954 10.7731 6.15974 10.6334C6.18809 10.6179 6.21369 10.6026 6.23883 10.5865L6.26901 10.5692C6.6151 10.3923 7.0548 10.3923 7.40147 10.5691L7.43141 10.5863C7.45667 10.6026 7.4825 10.6179 7.50902 10.6327C7.76082 10.7733 8.0469 10.8471 8.33791 10.8471C9.26166 10.8471 10.0129 10.1123 10.0129 9.20903C10.0129 8.76033 9.8312 8.34181 9.50145 8.03057C9.46168 7.99291 9.41984 7.95771 9.37675 7.9243L9.35664 7.90742C8.49644 7.1333 8.00279 6.03397 8.00279 4.89151V0.61377H8.71211V4.89151C8.71211 5.83639 9.11901 6.74607 9.82811 7.38899C9.88755 7.43548 9.94355 7.48354 9.9943 7.5317C10.4635 7.9747 10.7223 8.57046 10.7223 9.20903C10.7224 10.4948 9.65255 11.5408 8.33779 11.5408Z" fill="#B063A3"/>
</svg>
