<svg width="20" height="21" viewBox="0 0 20 21" fill="none" xmlns="http://www.w3.org/2000/svg">
<path d="M2.31359 1.61454C2.23654 1.47586 2.28651 1.30097 2.42519 1.22393C2.56388 1.14688 2.73877 1.19685 2.81582 1.33553C4.63803 4.61551 4.17545 10.3514 1.05221 13.7349C0.944598 13.8515 0.762858 13.8588 0.646281 13.7511C0.529704 13.6435 0.522436 13.4618 0.630045 13.3452C3.57866 10.1509 4.01945 4.68509 2.31359 1.61454ZM11.1716 6.95848C12.967 5.78783 15.6518 5.20945 19.2259 5.20945C19.3846 5.20945 19.5132 5.33806 19.5132 5.49671C19.5132 5.65536 19.3846 5.78397 19.2259 5.78397C15.4537 5.78397 12.7357 6.44004 11.0717 7.7343C10.883 7.88106 10.6081 7.74659 10.6081 7.50755C10.6081 5.08411 9.96026 3.14074 8.66829 1.6642C8.56382 1.5448 8.57592 1.36332 8.69531 1.25885C8.81471 1.15438 8.99619 1.16648 9.10066 1.28587C10.389 2.75821 11.0783 4.65261 11.1716 6.95848ZM6.87364 6.3585C6.08039 6.3585 5.43733 5.71544 5.43733 4.92219C5.43733 4.12893 6.08039 3.48587 6.87364 3.48587C7.66689 3.48587 8.30995 4.12893 8.30995 4.92219C8.30995 5.71544 7.66689 6.3585 6.87364 6.3585ZM6.87364 5.78397C7.34959 5.78397 7.73543 5.39814 7.73543 4.92219C7.73543 4.44623 7.34959 4.0604 6.87364 4.0604C6.39769 4.0604 6.01185 4.44623 6.01185 4.92219C6.01185 5.39814 6.39769 5.78397 6.87364 5.78397ZM4.28828 18.1363C3.49502 18.1363 2.85196 17.4932 2.85196 16.6999C2.85196 15.9067 3.49502 15.2636 4.28828 15.2636C5.08153 15.2636 5.72459 15.9067 5.72459 16.6999C5.72459 17.4932 5.08153 18.1363 4.28828 18.1363ZM4.28828 17.5617C4.76423 17.5617 5.15006 17.1759 5.15006 16.6999C5.15006 16.224 4.76423 15.8382 4.28828 15.8382C3.81232 15.8382 3.42649 16.224 3.42649 16.6999C3.42649 17.1759 3.81232 17.5617 4.28828 17.5617ZM7.01727 11.242C6.77929 11.242 6.58638 11.049 6.58638 10.8111C6.58638 10.5731 6.77929 10.3802 7.01727 10.3802C7.25525 10.3802 7.44816 10.5731 7.44816 10.8111C7.44816 11.049 7.25525 11.242 7.01727 11.242ZM7.30453 14.9764C7.06656 14.9764 6.87364 14.7835 6.87364 14.5455C6.87364 14.3075 7.06656 14.1146 7.30453 14.1146C7.54251 14.1146 7.73543 14.3075 7.73543 14.5455C7.73543 14.7835 7.54251 14.9764 7.30453 14.9764ZM18.5078 8.08207C18.2698 8.08207 18.0769 7.88916 18.0769 7.65118C18.0769 7.4132 18.2698 7.22029 18.5078 7.22029C18.7457 7.22029 18.9387 7.4132 18.9387 7.65118C18.9387 7.88916 18.7457 8.08207 18.5078 8.08207ZM12.7625 10.0929C12.5245 10.0929 12.3316 9.89999 12.3316 9.66202C12.3316 9.42404 12.5245 9.23112 12.7625 9.23112C13.0005 9.23112 13.1934 9.42404 13.1934 9.66202C13.1934 9.89999 13.0005 10.0929 12.7625 10.0929ZM2.9956 20.1471C2.75762 20.1471 2.5647 19.9542 2.5647 19.7162C2.5647 19.4782 2.75762 19.2853 2.9956 19.2853C3.23357 19.2853 3.42649 19.4782 3.42649 19.7162C3.42649 19.9542 3.23357 20.1471 2.9956 20.1471ZM0.697495 16.1254C0.459519 16.1254 0.266602 15.9325 0.266602 15.6945C0.266602 15.4566 0.459519 15.2636 0.697495 15.2636C0.935471 15.2636 1.12839 15.4566 1.12839 15.6945C1.12839 15.9325 0.935471 16.1254 0.697495 16.1254ZM8.74085 8.08207C8.50287 8.08207 8.30995 7.88916 8.30995 7.65118C8.30995 7.4132 8.50287 7.22029 8.74085 7.22029C8.97882 7.22029 9.17174 7.4132 9.17174 7.65118C9.17174 7.88916 8.97882 8.08207 8.74085 8.08207ZM6.47857 20.0841C6.35468 20.1833 6.17391 20.1632 6.0748 20.0393C5.97569 19.9154 5.99578 19.7346 6.11966 19.6355C7.98898 18.1401 9.29688 16.1782 10.0462 13.7428C10.0637 13.686 10.0985 13.6359 10.1456 13.5996C12.6913 11.6414 15.7277 10.7599 19.2419 10.9551C19.4003 10.9639 19.5215 11.0995 19.5127 11.2579C19.5039 11.4163 19.3684 11.5376 19.21 11.5288C15.8631 11.3428 12.9866 12.1666 10.5679 14.0001C9.78071 16.5033 8.41668 18.5337 6.47857 20.0841ZM6.41402 8.13953C6.54094 8.04433 6.721 8.07006 6.81619 8.19698C6.91138 8.3239 6.88566 8.50396 6.75874 8.59915L5.60969 9.46093C5.48277 9.55612 5.30271 9.5304 5.20752 9.40348C5.11233 9.27656 5.13805 9.0965 5.26497 9.00131L6.41402 8.13953ZM16.5257 8.71405C16.6526 8.80924 16.6783 8.9893 16.5831 9.11622C16.4879 9.24314 16.3079 9.26886 16.1809 9.17367L15.0319 8.31188C14.905 8.21669 14.8793 8.03664 14.9744 7.90972C15.0696 7.7828 15.2497 7.75707 15.3766 7.85226L16.5257 8.71405ZM10.0279 11.2983C9.99683 11.4539 9.8455 11.5548 9.68993 11.5236C9.53436 11.4925 9.43347 11.3412 9.46458 11.1856L9.75184 9.74931C9.78296 9.59374 9.93429 9.49285 10.0899 9.52396C10.2454 9.55508 10.3463 9.70641 10.3152 9.86198L10.0279 11.2983ZM5.83127 12.6988C5.97858 12.7577 6.05023 12.9249 5.99131 13.0722C5.93239 13.2195 5.76521 13.2912 5.6179 13.2323L4.18159 12.6577C4.03429 12.5988 3.96264 12.4316 4.02156 12.2843C4.08048 12.137 4.24766 12.0654 4.39496 12.1243L5.83127 12.6988ZM5.2937 1.7623C5.05572 1.7623 4.8628 1.56938 4.8628 1.33141C4.8628 1.09343 5.05572 0.900513 5.2937 0.900513C5.53167 0.900513 5.72459 1.09343 5.72459 1.33141C5.72459 1.56938 5.53167 1.7623 5.2937 1.7623Z" fill="#B063A3"/>
</svg>
