<svg width="21" height="20" viewBox="0 0 21 20" fill="none" xmlns="http://www.w3.org/2000/svg">
<path d="M14.9402 8.6575C15.3186 8.6575 15.674 8.51018 15.9419 8.24266C16.4944 7.69023 16.4944 6.79136 15.9423 6.23933C15.4065 5.70389 14.4748 5.70349 13.9389 6.23933C13.3869 6.79136 13.3869 7.68982 13.9389 8.24226C14.2065 8.51018 14.5622 8.6575 14.9402 8.6575ZM14.5112 6.81159C14.6262 6.69666 14.7787 6.63312 14.941 6.63312C15.1033 6.63312 15.2551 6.69666 15.3704 6.81119C15.6072 7.04754 15.6068 7.43324 15.37 7.66999C15.141 7.89947 14.7415 7.89947 14.5116 7.66999C14.2749 7.43324 14.2745 7.04835 14.5112 6.81159Z" fill="#B063A3"/>
<path d="M13.0927 5.78564C13.3161 5.78564 13.4974 5.60433 13.4974 5.38093C13.4974 5.15753 13.3161 4.97621 13.0927 4.97621H13.0882C12.8648 4.97621 12.6859 5.15753 12.6859 5.38093C12.6859 5.60433 12.8689 5.78564 13.0927 5.78564Z" fill="#B063A3"/>
<path d="M6.81137 15.2592C6.58796 15.2592 6.40907 15.4405 6.40907 15.6639C6.40907 15.8873 6.59201 16.0686 6.81582 16.0686C7.03923 16.0686 7.22054 15.8873 7.22054 15.6639C7.22054 15.4405 7.03923 15.2592 6.81582 15.2592H6.81137Z" fill="#B063A3"/>
<path d="M8.53265 14.6865H8.5282C8.30479 14.6865 8.12591 14.8678 8.12591 15.0912C8.12591 15.3146 8.30884 15.496 8.53265 15.496C8.75606 15.496 8.93738 15.3146 8.93738 15.0912C8.93738 14.8678 8.75606 14.6865 8.53265 14.6865Z" fill="#B063A3"/>
<path d="M11.3823 10.0101C11.7065 10.0101 12.0117 9.88378 12.2407 9.65431C12.4702 9.42484 12.5969 9.12008 12.5969 8.79591C12.5969 8.47173 12.4702 8.16658 12.2411 7.9371C11.7818 7.47735 10.9837 7.47735 10.5235 7.9371C10.2944 8.16617 10.1677 8.47092 10.1677 8.7951C10.1677 9.11928 10.2944 9.42443 10.5239 9.65431C10.7534 9.88419 11.0581 10.0101 11.3823 10.0101ZM11.0958 8.50978C11.1727 8.43288 11.2742 8.39038 11.3827 8.39038C11.4904 8.39038 11.592 8.43248 11.6684 8.50937C11.7449 8.58627 11.7874 8.68785 11.7874 8.79591C11.7874 8.90397 11.7453 9.00555 11.6684 9.08245C11.5151 9.23543 11.2496 9.23543 11.0962 9.08245C11.0197 9.00595 10.9772 8.90397 10.9772 8.79591C10.9772 8.68744 11.0197 8.58586 11.0958 8.50978Z" fill="#B063A3"/>
<path d="M9.09279 13.765C9.57927 13.765 10.0366 13.5756 10.3806 13.2316C11.0909 12.5213 11.0913 11.3654 10.381 10.6556C10.0362 10.3112 9.57927 10.1213 9.09319 10.1213C8.60712 10.1213 8.14938 10.3112 7.80456 10.656C7.09467 11.3654 7.09508 12.5205 7.80496 13.2312C8.14938 13.5756 8.60672 13.765 9.09279 13.765ZM8.37683 11.2282C8.56908 11.0364 8.82324 10.9308 9.09319 10.9308C9.36314 10.9308 9.61691 11.0364 9.80874 11.2278C10.2033 11.6224 10.2033 12.2647 9.80834 12.6593C9.42588 13.041 8.76011 13.0418 8.37764 12.6589C7.98304 12.2643 7.98304 11.6228 8.37683 11.2282Z" fill="#B063A3"/>
<path d="M6.59727 14.3122C6.82634 14.0831 6.95302 13.7783 6.95302 13.4542C6.95302 13.13 6.82634 12.8248 6.59686 12.5954C6.13831 12.1364 5.33858 12.1364 4.88003 12.5954C4.65055 12.8248 4.52387 13.13 4.52387 13.4542C4.52387 13.7783 4.65055 14.0835 4.88003 14.313C5.10951 14.5424 5.41426 14.6691 5.73845 14.6691C6.06263 14.6691 6.36739 14.542 6.59727 14.3122ZM5.45231 13.7403C5.37582 13.6638 5.33332 13.5618 5.33332 13.4538C5.33332 13.3457 5.37541 13.2441 5.45231 13.1672C5.5288 13.0907 5.63039 13.0486 5.73845 13.0486C5.84651 13.0486 5.94809 13.0907 6.02459 13.1676C6.10108 13.2441 6.14357 13.3457 6.14357 13.4538C6.14357 13.5618 6.10148 13.663 6.02499 13.7395C5.87079 13.8937 5.6057 13.8937 5.45231 13.7403Z" fill="#B063A3"/>
<path d="M1.30511 13.6521H3.03854C3.13122 14.4979 3.46431 15.3215 4.03983 16.0116L2.79733 17.254C2.63908 17.4123 2.63908 17.6681 2.79733 17.8263C2.87625 17.9052 2.97986 17.9449 3.08347 17.9449C3.18707 17.9449 3.29068 17.9052 3.3696 17.8263L4.61129 16.5842C5.28475 17.1472 6.09986 17.4928 6.97123 17.5875V19.3181C6.97123 19.5415 7.15214 19.7228 7.37596 19.7228C7.59977 19.7228 7.78068 19.5415 7.78068 19.3181V17.6001C8.67471 17.5365 9.51573 17.2111 10.2143 16.6579L11.3827 17.8263C11.4616 17.9052 11.5652 17.9449 11.6688 17.9449C11.7725 17.9449 11.8761 17.9052 11.955 17.8263C12.1132 17.6685 12.1132 17.4123 11.955 17.254L10.8023 16.1014C11.3645 15.4636 11.7292 14.6894 11.8587 13.8439C11.8619 13.8237 11.8635 13.803 11.8635 13.7824C11.8635 13.7743 11.8631 13.7658 11.8627 13.7577C11.8676 13.6873 11.8736 13.6136 11.8906 13.5294C11.9509 13.1438 12.1003 12.7852 12.3249 12.4727L13.6718 13.82C13.7507 13.899 13.8544 13.9386 13.958 13.9386C14.0616 13.9386 14.1652 13.899 14.2441 13.82C14.4023 13.6622 14.4023 13.406 14.2441 13.2478L12.8976 11.9005C13.2108 11.6755 13.5731 11.5257 13.9709 11.4626C14.0397 11.4488 14.1118 11.4427 14.1826 11.4379C14.1959 11.4391 14.2085 11.4395 14.2198 11.4383C14.236 11.4379 14.2518 11.4363 14.2676 11.4338C15.113 11.3043 15.8873 10.9397 16.5255 10.3771L17.6782 11.5302C17.7571 11.6091 17.8607 11.6487 17.9643 11.6487C18.0679 11.6487 18.1715 11.6091 18.2505 11.5302C18.4087 11.3723 18.4087 11.1161 18.2505 10.9579L17.082 9.78948C17.6474 9.07273 17.9607 8.22243 18.0226 7.35594H19.7423C19.9661 7.35594 20.147 7.17462 20.147 6.95122C20.147 6.72782 19.9661 6.54651 19.7423 6.54651H18.0088C17.9162 5.70065 17.5831 4.87706 17.0075 4.18702L18.25 2.94455C18.4083 2.78631 18.4083 2.53053 18.25 2.37228C18.0918 2.21404 17.836 2.21404 17.6778 2.37228L16.4361 3.61435C15.7626 3.05139 14.9475 2.70577 14.0761 2.61147V0.880911C14.0761 0.657508 13.8952 0.476196 13.6714 0.476196C13.4476 0.476196 13.2667 0.657508 13.2667 0.880911V2.59933C12.3727 2.66287 11.5316 2.98826 10.8331 3.5411L9.66466 2.37269C9.50642 2.21444 9.25063 2.21444 9.09238 2.37269C8.93414 2.53053 8.93414 2.78671 9.09238 2.94495L10.245 4.09798C9.66669 4.75524 9.2992 5.559 9.17859 6.45747C9.17454 6.50239 9.17009 6.54732 9.16362 6.59305C9.16159 6.60438 9.15957 6.62138 9.15795 6.63878C9.10007 7.03621 8.95033 7.40531 8.72045 7.72544L7.37515 6.37936C7.2169 6.22112 6.96111 6.22112 6.80287 6.37936C6.64462 6.5372 6.64462 6.79338 6.80287 6.95163L8.14817 8.2973C7.83127 8.52516 7.4658 8.67409 7.07363 8.73277C7.0542 8.73439 7.03558 8.73722 7.01656 8.74046C6.97083 8.74653 6.92469 8.75139 6.85993 8.75746C5.98007 8.87523 5.17872 9.24271 4.52145 9.82186L3.36839 8.66883C3.21014 8.51058 2.95436 8.51058 2.79611 8.66883C2.63787 8.82667 2.63787 9.08285 2.79611 9.24109L3.96455 10.4095C3.39915 11.1258 3.08589 11.9766 3.02397 12.8431H1.30511C1.0813 12.8431 0.900391 13.0244 0.900391 13.2478C0.900391 13.4712 1.0813 13.6521 1.30511 13.6521ZM4.88327 10.5884C5.44947 10.0222 6.17069 9.66645 6.95019 9.56122C7.00523 9.55637 7.05865 9.5507 7.14162 9.53896C7.15174 9.53815 7.16186 9.53734 7.17198 9.53573C7.88145 9.43455 8.52415 9.1132 9.03087 8.6065C9.53758 8.0998 9.85893 7.45711 9.96052 6.74765C9.96375 6.72499 9.96497 6.70232 9.96456 6.67966C9.96537 6.70718 9.96537 6.7092 9.96618 6.70151C9.97468 6.64242 9.98075 6.58334 9.98359 6.54408C10.0912 5.74558 10.447 5.02438 11.0128 4.45859C11.7004 3.77098 12.6151 3.39257 13.5885 3.39257C14.5618 3.39257 15.4765 3.77138 16.1641 4.45859C17.5843 5.87873 17.5843 8.18965 16.1641 9.60979C15.6222 10.1513 14.9402 10.5026 14.1878 10.6268C14.1806 10.6268 14.1733 10.6272 14.166 10.6276C14.047 10.6353 13.9256 10.6455 13.8276 10.6657C13.1376 10.7742 12.5107 11.0939 12.0145 11.5901C11.5183 12.0858 11.199 12.7127 11.0941 13.3838C11.0703 13.4991 11.0601 13.6205 11.0521 13.7391C11.0516 13.7476 11.0512 13.7561 11.0512 13.7642C10.9266 14.5157 10.5757 15.1977 10.0346 15.7388C9.34696 16.4264 8.43228 16.8052 7.45892 16.8052C6.48557 16.8052 5.57089 16.4264 4.88327 15.7388C3.4635 14.3195 3.4635 12.0085 4.88327 10.5884Z" fill="#B063A3"/>
</svg>
