<?xml version="1.0" encoding="utf-8"?>
<!-- Generator: Adobe Illustrator 25.0.0, SVG Export Plug-In . SVG Version: 6.00 Build 0)  -->
<svg version="1.1" id="Layer_1" xmlns="http://www.w3.org/2000/svg" xmlns:xlink="http://www.w3.org/1999/xlink" x="0px" y="0px"
	 viewBox="0 0 100 100" style="enable-background:new 0 0 100 100;" xml:space="preserve">
<style type="text/css">
	.st0{fill:#1CA098;}
</style>
<g>
	<path class="st0" d="M19.55,68.19c0.04,0.11,0.08,0.23,0.12,0.34C19.63,68.42,19.59,68.31,19.55,68.19z"/>
	<path class="st0" d="M19.67,68.54c0.02,0.05,0.03,0.09,0.05,0.14C19.71,68.63,19.69,68.58,19.67,68.54z"/>
	<path class="st0" d="M50.58,10.8c5.97,0.31,9.84,4.29,9.63,9.59c-0.02,0.58-0.14,1.17-0.24,1.74c-1.69,9.35-3.41,18.7-5.07,28.06
		c-0.58,3.28-0.99,6.58-1.49,9.87c-0.08,0.5-0.08,1.07-0.33,1.48c-0.67,1.1-0.53,2.19-0.36,3.38c1.18,8.16-1.24,15.41-5.75,22.09
		c-1.29,1.91-2.72,3.74-4.16,5.54c-2.34,2.94-5.27,3.43-8.01,1.42c-2.97-2.17-3.83-6.2-1.86-9.05c1.49-2.16,3.17-4.18,4.62-6.37
		c1.48-2.23,2.55-4.66,2.95-7.36c0.54-3.68-0.68-6.79-3.03-9.53c-2.75-3.21-6.29-5.32-10.15-6.81c-4.14-1.59-6.05-4.39-5.54-8.52
		c0.38-3.05,0.06-6.22,0.62-9.22c1.81-9.59,7.02-16.97,15.33-22.09c3.64-2.24,7.6-3.68,11.87-4.18
		C50.05,10.8,50.48,10.81,50.58,10.8z M44.67,50.84c1.26-6.78,2.47-13.35,3.72-20.08c-0.43,0.15-0.62,0.19-0.79,0.27
		c-3.1,1.37-4.73,3.96-5.84,7c-1.11,3.05-1.05,6.23-1.07,9.41c0,0.21,0.1,0.49,0.25,0.61C42.11,48.95,43.31,49.82,44.67,50.84z"/>
	<path class="st0" d="M60.68,14.71c-0.01-5.45,4.41-9.88,9.84-9.9c5.51-0.01,9.95,4.43,9.93,9.92c-0.02,5.44-4.46,9.85-9.9,9.84
		C65.1,24.57,60.69,20.15,60.68,14.71z"/>
</g>
</svg>
