<?xml version="1.0" encoding="utf-8"?>
<!-- Generator: Adobe Illustrator 25.0.0, SVG Export Plug-In . SVG Version: 6.00 Build 0)  -->
<svg version="1.1" id="Layer_1" xmlns="http://www.w3.org/2000/svg" xmlns:xlink="http://www.w3.org/1999/xlink" x="0px" y="0px"
	 viewBox="0 0 100 100" style="enable-background:new 0 0 100 100;" xml:space="preserve">
<style type="text/css">
	.st0{fill:#1CA098;}
</style>
<g>
	<path class="st0" d="M67.02,39.48c0.68,2.73,1.37,5.47,2.05,8.2c2.14,8.57,4.11,17.16,4.49,25.98c0.12,2.81-0.48,3.34-3.48,3.35
		c-0.96,0-1.94,0.11-2.88-0.02c-1.65-0.24-2.01,0.58-2.22,1.85c-0.82,4.89-1.63,9.78-2.64,14.63c-0.32,1.53-1.12,3.05-2,4.4
		c-1.07,1.63-2.88,2.1-4.88,1.74c-1.87-0.34-2.84-1.59-3.34-3.16c-0.29-0.9-0.44-1.85-0.51-2.79c-0.37-5.05-0.68-10.11-1.03-15.16
		c-0.04-0.54-0.17-1.08-0.26-1.62c-0.21,0-0.42,0.01-0.63,0.01c-0.1,0.53-0.25,1.06-0.29,1.6c-0.34,5.05-0.65,10.11-1.02,15.16
		c-0.08,1.04-0.22,2.13-0.6,3.1c-1.3,3.37-5.66,4.14-7.98,1.27c-1.1-1.36-1.82-3.15-2.17-4.85c-1.01-4.8-1.8-9.64-2.56-14.48
		c-0.21-1.32-0.72-1.85-2.17-1.7c-1.07,0.11-2.16,0.03-3.24,0.02c-2.51-0.03-3.43-0.74-3.15-3c0.76-6.07,1.52-12.15,2.65-18.17
		c0.98-5.25,2.45-10.42,3.7-15.63c0.09-0.37,0.13-0.75,0.2-1.12c-0.17-0.05-0.33-0.1-0.5-0.14c-0.86,2.41-1.81,4.81-2.57,7.25
		c-1,3.2-1.8,6.46-2.78,9.67c-0.78,2.54-2.42,3.66-4.59,3.34c-2.18-0.32-3.6-2.1-3.42-4.6c0.64-9.22,3.22-17.87,9.31-25.36
		c3.95-4.86,9.29-7.55,15.82-7.79c4.48-0.17,9-0.11,13.45,0.31c6.16,0.58,10.8,3.8,14.27,8.43c5.55,7.42,8.13,15.79,8.75,24.73
		c0.15,2.18-1.36,3.94-3.42,4.28c-2.08,0.35-3.7-0.67-4.45-3.02c-1.48-4.64-2.85-9.3-4.31-13.94c-0.31-0.99-0.78-1.93-1.17-2.89
		C67.3,39.39,67.16,39.43,67.02,39.48z"/>
	<path class="st0" d="M59.91,9.61c0.01,5.33-4.27,9.66-9.61,9.71c-5.34,0.05-9.81-4.41-9.78-9.75c0.03-5.34,4.34-9.59,9.72-9.58
		C55.64,0.01,59.9,4.25,59.91,9.61z"/>
</g>
</svg>
