<?xml version="1.0" encoding="utf-8"?>
<!-- Generator: Adobe Illustrator 25.0.0, SVG Export Plug-In . SVG Version: 6.00 Build 0)  -->
<svg version="1.1" id="Layer_1" xmlns="http://www.w3.org/2000/svg" xmlns:xlink="http://www.w3.org/1999/xlink" x="0px" y="0px"
	 viewBox="0 0 100 100" style="enable-background:new 0 0 100 100;" xml:space="preserve">
<style type="text/css">
	.st0{fill:#1CA098;}
</style>
<path class="st0" d="M76.62,28.65c-1.83-1.83-3.51-3.51-5.04-5.03c-0.6,0.68-1.18,1.61-2,2.16c-0.56,0.37-1.49,0.36-2.22,0.27
	c-1.46-0.17-2.74-1.41-2.75-2.86c-0.03-4.52,0.11-9.05,2.25-13.19c0.63-1.21,1.5-2.34,2.43-3.35c1.29-1.42,3.29-1.44,4.68-0.23
	c1.42,1.24,1.56,3.21,0.36,4.78c-0.58,0.76-1.18,1.53-1.6,2.39c-0.17,0.35-0.05,1.09,0.22,1.37c4,4.07,8.03,8.1,12.1,12.1
	c0.26,0.26,0.95,0.38,1.28,0.22c0.82-0.39,1.59-0.93,2.31-1.5c1.63-1.29,3.58-1.24,4.88,0.19c1.3,1.43,1.2,3.4-0.27,4.87
	c-2.58,2.58-5.83,3.79-9.35,4.08c-4.26,0.35-8.54,0.45-12.81,0.5c-5.43,0.08-10.87,0-16.31,0c-0.64,0-1.27,0.11-1.82,0.16
	c3.84,3.84,7.63,7.63,11.45,11.45c0.04-0.45,0.11-0.97,0.14-1.5c0.07-1.5,0.08-3.01,0.21-4.5c0.15-1.83,1.51-3.08,3.26-3.11
	c1.73-0.04,3.43,1.21,3.41,2.95c-0.07,7.66-0.79,15.23-5.46,21.71c-3.15,4.37-7.7,6.77-12.87,7.76c-3.65,0.7-7.41,1.04-11.12,1.13
	c-5.7,0.14-11.41-0.08-17.12-0.14c-0.42,0-0.83,0-1.06,0c1.63,1.63,3.31,3.32,4.92,4.93c0.88-1.95,1.92-2.64,3.87-2.36
	c1.52,0.22,2.83,1.38,2.84,2.9c0.04,5.01-0.38,9.95-3.05,14.38c-0.45,0.75-1.01,1.46-1.61,2.11c-1.29,1.4-3.27,1.52-4.68,0.35
	c-1.45-1.2-1.64-3.2-0.5-4.77c0.61-0.84,1.23-1.68,1.68-2.61c0.17-0.35,0.04-1.09-0.24-1.37c-4-4.07-8.03-8.1-12.1-12.1
	c-0.25-0.25-0.94-0.35-1.26-0.19c-0.78,0.39-1.51,0.91-2.18,1.48C9.78,75.52,7.8,75.51,6.45,74c-1.35-1.5-1.11-3.46,0.48-5.02
	c2.89-2.85,6.47-4.06,10.38-4.14c7.71-0.16,15.41-0.1,23.12-0.15c2.26-0.02,4.53-0.12,6.72-0.19c-3.9-3.9-7.74-7.73-11.57-11.56
	c-0.1,1.3-0.18,2.78-0.35,4.26c-0.22,1.96-1.73,3.15-3.7,2.99c-1.59-0.13-3.04-1.39-3.01-2.98c0.11-6.58,0.96-13.02,4.66-18.69
	c3.23-4.95,8.04-7.75,13.71-8.86c3.68-0.72,7.48-1.04,11.24-1.13c5.7-0.14,11.41,0.06,17.12,0.12
	C75.64,28.66,76.05,28.65,76.62,28.65z M44.71,37.58c-0.2,0.09-0.31,0.13-0.41,0.18c-2.92,1.32-5.1,3.41-6.43,6.33
	c-0.13,0.29,0.03,0.91,0.28,1.15c5.5,5.55,11.04,11.07,16.56,16.61c0.46,0.47,0.85,0.5,1.42,0.22c2.71-1.36,4.72-3.4,6.06-6.12
	c0.26-0.53,0.22-0.87-0.21-1.3c-5.54-5.51-11.07-11.04-16.6-16.57C45.15,37.89,44.9,37.73,44.71,37.58z"/>
</svg>
