
<svg version="1.1" id="Layer_1" xmlns="http://www.w3.org/2000/svg" xmlns:xlink="http://www.w3.org/1999/xlink" x="0px" y="0px"
	 viewBox="0 0 100 100" style="enable-background:new 0 0 100 100;" xml:space="preserve">
<style type="text/css">
	.st0{fill:#1CA098;}
</style>
<g>
	<path class="st0" d="M33.91,65.21c0,0.51,0,0.97,0,1.43c0,7.99-0.01,15.97,0,23.96c0,1.79-0.55,3.28-2.15,4.24
		c-2.7,1.63-6.21-0.17-6.48-3.35c-0.11-1.27-0.04-2.56-0.05-3.84c0-7.09-0.02-14.19,0.02-21.28c0.01-1-0.22-1.46-1.28-1.3
		c-0.42,0.06-0.85,0.02-1.28,0.01c-1.58-0.06-2.4-1.07-2.11-2.62c1.47-7.72,2.95-15.44,4.42-23.16c0.1-0.53,0.16-1.06,0.06-1.64
		c-0.83,2.28-1.65,4.57-2.49,6.85c-1.49,4.03-3.03,8.04-4.46,12.09c-0.23,0.64,0,1.44,0,2.16c0,8.72,0,17.45,0,26.17
		c0,2.83,0.01,5.66-0.01,8.49c-0.01,1.3-0.76,2.11-1.84,2.07c-1.04-0.03-1.66-0.79-1.69-2.09c-0.01-0.27,0-0.54,0-0.81
		c0-2.09,0-4.19,0-6.28c0-8.99-0.01-17.99,0.01-26.98c0-0.77-0.11-1.27-0.95-1.58c-0.65-0.24-1.17-0.84-1.8-1.32
		c-0.93,0.33-1.27,1.08-1.28,2.05c0,1.4,0.01,2.79-0.01,4.19c-0.02,1.32-0.73,2.13-1.8,2.12C7.7,64.75,7.02,63.94,7,62.6
		c-0.02-1.43-0.03-2.87,0-4.3c0.06-2.68,1.54-4.66,4.11-5.4c0.69-0.2,0.99-0.58,1.22-1.21c2.64-7.4,5.29-14.8,7.95-22.2
		c0.96-2.68,2.26-5.1,4.92-6.51c0.93-0.49,1.53-0.5,2.32,0.46c3.79,4.6,10.9,4.52,14.77-0.12c0.63-0.76,1.12-0.84,1.94-0.43
		c2.42,1.2,3.79,3.26,4.73,5.66c0.79,2.01,1.47,4.06,2.42,6.07c0-1.79,0-3.57,0-5.36c0-5.84,3.83-9.63,9.64-9.49
		c0.46,0.01,1.05,0.28,1.35,0.63c4.33,4.94,11.21,4.93,15.58,0c0.31-0.35,0.89-0.61,1.36-0.62c5.79-0.14,9.6,3.57,9.61,9.37
		c0.02,7.91,0.02,15.82-0.01,23.73c0,0.83,0.17,1.31,1,1.69c1.95,0.92,2.97,2.57,3.06,4.71c0.07,1.59,0.04,3.18,0.01,4.77
		c-0.02,1.21-0.67,1.91-1.71,1.94c-1.08,0.03-1.8-0.69-1.84-1.94c-0.04-1.43,0.05-2.87-0.05-4.3c-0.04-0.66-0.4-1.31-0.57-1.84
		c-1.13,0.61-2.05,1.06-2.91,1.6c-0.25,0.16-0.46,0.57-0.48,0.88c-0.06,1.04-0.02,2.09-0.02,3.14c0,9.69,0,19.38,0,29.08
		c0,0.39,0.01,0.78-0.01,1.16c-0.05,1-0.6,1.58-1.57,1.72c-0.89,0.13-1.74-0.54-1.91-1.5c-0.08-0.41-0.05-0.85-0.05-1.28
		c0-10.66,0.03-21.32-0.02-31.98c-0.02-3.49-0.28-6.98-0.34-10.47c-0.06-3.53-0.01-7.06-0.01-10.58c0-3.53,0-7.06,0-10.58
		c0-0.86-0.11-1.64-1.36-1.78c-0.02,0.52-0.06,1-0.06,1.48c0,20.47,0.01,40.94-0.03,61.41c0,1.01-0.18,2.11-0.6,3.02
		c-0.77,1.65-2.8,2.52-4.5,2.19c-1.97-0.39-3.45-1.9-3.71-3.83c-0.07-0.53-0.06-1.08-0.06-1.62c0-11.01,0-22.02,0-33.03
		c0-0.46,0-0.91,0-1.45c-0.65,0-1.17,0-1.9,0c0,0.48,0,0.96,0,1.44c0,11.09,0,22.17-0.01,33.26c0,0.77-0.04,1.57-0.27,2.29
		c-0.59,1.86-2.51,3.12-4.39,3.01c-1.97-0.12-3.71-1.56-4.13-3.52c-0.15-0.71-0.18-1.46-0.18-2.19
		c-0.01-20.28-0.01-40.55-0.01-60.83c0-0.5,0-1,0-1.58c-1.15,0.05-1.46,0.68-1.46,1.59c0,1.9,0,3.8,0,5.7
		c0,6.71,0.01,13.41-0.01,20.12c-0.01,2.55-1.78,4.22-4.22,4c-1.64-0.15-2.67-1.1-3.23-2.62c-1.29-3.53-2.59-7.05-3.89-10.58
		c-0.96-2.6-1.92-5.2-3.12-7.73c0.27,1.47,0.52,2.95,0.8,4.42c1.26,6.58,2.53,13.16,3.78,19.74c0.43,2.26-0.29,3.09-2.6,3.1
		c-0.61,0-1.22,0-1.95,0c0,0.6,0,1.06,0,1.51c0,8.02,0,16.05,0,24.07c0,2.24-1.02,3.85-2.82,4.51c-2.78,1.03-5.74-0.95-5.82-3.98
		c-0.08-2.87-0.02-5.74-0.02-8.61c0-5.35,0-10.7,0-16.05C35.73,64.95,35.73,64.95,33.91,65.21z"/>
	<path class="st0" d="M62.26,14.1c-0.02-4.38,3.5-7.93,7.87-7.94c4.37-0.01,7.94,3.51,7.98,7.86c0.04,4.33-3.54,7.93-7.9,7.94
		C65.83,21.98,62.28,18.46,62.26,14.1z"/>
	<path class="st0" d="M27.22,17.04c0.02-4.19,3.48-7.63,7.65-7.62c4.16,0.01,7.64,3.49,7.65,7.65c0.01,4.22-3.5,7.69-7.74,7.66
		C30.58,24.69,27.2,21.26,27.22,17.04z"/>
</g>
</svg>
