<?xml version="1.0" encoding="utf-8"?>
<!-- Generator: Adobe Illustrator 25.0.0, SVG Export Plug-In . SVG Version: 6.00 Build 0)  -->
<svg version="1.1" id="Layer_1" xmlns="http://www.w3.org/2000/svg" xmlns:xlink="http://www.w3.org/1999/xlink" x="0px" y="0px"
	 viewBox="0 0 100 100" style="enable-background:new 0 0 100 100;" xml:space="preserve">
<style type="text/css">
	.st0{fill:#1CA098;}
</style>
<path class="st0" d="M65.87,19.67c-3.81,0.04-6.84,2.46-7.94,6.19c-1,3.41,0.22,7.13,3.33,9.03c1.4,0.86,3.19,1.35,4.84,1.48
	c2.86,0.24,5.75,0.05,8.62,0.07c2.68,0.02,4.37,1.54,4.36,3.87c-0.02,2.33-1.7,3.78-4.42,3.8c-2.2,0.01-4.39-0.01-6.59,0.01
	c-4.7,0.03-8.2,2.12-10.49,6.22c-1.22,2.19-2.38,4.42-3.7,6.55c-0.41,0.67-1.27,1.06-1.93,1.59c0.72-3.57,1.37-6.81,2.04-10.05
	c0.25-1.2,0.41-2.45,0.89-3.57c1.85-4.32,0.12-7.59-4.55-8.38c-5.52-0.93-8.45,1.83-7.83,7.41c0.1,0.88,0.22,1.78,0.49,2.61
	c1.12,3.47-0.02,6.34-2.17,9.01c-1.14,1.42-2.59,2.02-4.3,1.48c-2.12-0.67-4.16-1.55-6.6-2.47c1-0.83,1.62-1.35,2.25-1.88
	c2.88-2.41,5.35-5.15,6.83-8.66c1.67-3.97,1.62-7.94-0.25-11.84c-4.27-8.95-16.56-13.06-24.42-7.9C6,29.76,2.3,40.18,8.84,49.82
	c2.24,3.31,3.7,6.79,4.5,10.72c1.71,8.39,5.26,15.86,12.08,21.4c4.22,3.43,9.11,5.4,14.51,5.71c6.1,0.35,10.84-2.28,13.96-7.58
	c0.9-1.53,1.52-3.21,2.32-4.79c0.73-1.44,1.69-1.47,2.55-0.11c0.64,1.02,1.18,2.1,1.8,3.12c2.3,3.78,6.34,5.14,10.43,3.5
	c1.46-0.58,2.91-1.17,4.33-1.84c3.37-1.58,4.68-5.41,3.02-8.74c-0.86-1.73-2.39-2.47-4.19-2.6c-1.18-0.08-2.39,0.07-3.57,0.25
	c-1.81,0.26-2.58-0.1-3.41-1.74c-0.64-1.26-1.25-2.53-1.97-3.74c-2.03-3.44-3.33-4.58-6.8-6.14c1.5-6.31,5.25-9.32,11.6-9.32
	c1.88,0,3.77,0.06,5.65-0.03c2.91-0.14,5.08-1.57,6.4-4.13c2.61-5.08-0.91-10.91-6.7-11.09c-3.19-0.1-6.38,0.01-9.57-0.05
	c-1.91-0.04-3.25-1.07-4.01-2.79c-0.74-1.69-0.53-3.44,0.78-4.65c0.92-0.85,2.32-1.6,3.53-1.64c5.64-0.17,34.01-0.02,34.01-0.02
	v-3.85C100.1,19.66,70.76,19.62,65.87,19.67z"/>
</svg>
