<svg xmlns="http://www.w3.org/2000/svg" viewBox="0 0 64 64"><path d="M21,2a3,3,0,0,0-3,3V7H8V5a2.92,2.92,0,0,0-.873-2.107A2.937,2.937,0,0,0,5,2,3,3,0,0,0,2,5V15.37A24.288,24.288,0,0,0,8.555,31.983,24.425,24.425,0,0,0,2,48.63V59a3,3,0,0,0,6,0V57H18v2a3.015,3.015,0,0,0,3,3,3,3,0,0,0,3-3V48.63a24.2,24.2,0,0,0-2.188-10.091,24.115,24.115,0,0,0-4.367-6.522A24.425,24.425,0,0,0,24,15.37V5A3,3,0,0,0,21,2ZM13.006,27.471A21.49,21.49,0,0,1,11.263,25h3.479A22.367,22.367,0,0,1,13.006,27.471ZM15.82,23H10.2q-.464-.968-.836-2h7.289Q16.285,22.02,15.82,23Zm1.456-4H8.735c-.172-.661-.316-1.328-.427-2h9.4C17.593,17.675,17.447,18.341,17.276,19ZM18,13.37c0,.546-.027,1.089-.067,1.63H8.06C8.021,14.458,8,13.915,8,13.37V13H18ZM18,9v2H8V9ZM4,15.37V5A1,1,0,0,1,5,4a.977.977,0,0,1,.713.307A.959.959,0,0,1,6,5v8.37A24.306,24.306,0,0,0,8.667,24.451a23.671,23.671,0,0,0,3,4.529c-.424.437-.861.863-1.323,1.267-.124.108-.24.224-.362.334A22.3,22.3,0,0,1,4,15.37Zm8.994,21.159A21.49,21.49,0,0,1,14.737,39H11.258A22.367,22.367,0,0,1,12.994,36.529ZM10.18,41H15.8q.464.968.836,2H9.346Q9.715,41.98,10.18,41ZM8.724,45h8.541c.172.661.316,1.328.427,2H8.3C8.407,46.325,8.553,45.659,8.724,45ZM8,50.63c0-.546.027-1.089.067-1.63H17.94c.039.542.06,1.085.06,1.63V51H8ZM8,55V53H18v2Zm14-6.37V59a1,1,0,0,1-1,1,.977.977,0,0,1-.713-.307A.959.959,0,0,1,20,59V50.63a24.392,24.392,0,0,0-1-6.915,24.222,24.222,0,0,0-1.666-4.166,23.671,23.671,0,0,0-3-4.529c.424-.437.861-.863,1.323-1.267.124-.108.241-.224.362-.334a22.1,22.1,0,0,1,3.97,5.945A22.224,22.224,0,0,1,22,48.63Zm0-33.26a22.422,22.422,0,0,1-7.658,16.877A24.424,24.424,0,0,0,6,50.63V59a1,1,0,0,1-2,0V48.63a22.422,22.422,0,0,1,7.658-16.877A24.424,24.424,0,0,0,20,13.37V5a1,1,0,0,1,2,0Z"/><path d="M59,2a3,3,0,0,0-3,3H46V7H56V9H46v2H56v2H46v2h9.933c-.049.672-.121,1.34-.229,2H45v2H55.276q-.264,1.015-.622,2H44v2h9.82a22.261,22.261,0,0,1-1.078,2H41v2H51.375a22.273,22.273,0,0,1-1.73,2H38v2h9.527a24.286,24.286,0,0,0-1.869,2H34v2H44.161c-.435.647-.836,1.316-1.206,2H32v2h9.987c-.281.656-.54,1.321-.763,2H30v2H40.665c-.156.66-.287,1.326-.388,2H30v2H40.061c-.036.541-.061,1.084-.061,1.63V49H30v2H40v2H30v2H40v2H30v2H40a3,3,0,0,0,6,0V50.63a22.422,22.422,0,0,1,7.658-16.877A24.424,24.424,0,0,0,62,15.37V5A3,3,0,0,0,59,2Zm1,13.37a22.422,22.422,0,0,1-7.658,16.877A24.424,24.424,0,0,0,44,50.63V59a1,1,0,0,1-2,0V48.63a22.422,22.422,0,0,1,7.658-16.877A24.424,24.424,0,0,0,58,13.37V5a1,1,0,0,1,2,0Z"/></svg>
