<svg width="16" height="22" viewBox="0 0 16 22" fill="none" xmlns="http://www.w3.org/2000/svg">
<path d="M8.03037 0C4.80283 0 0.00110623 0.560748 0.00110623 2.10592C0.00110623 2.10592 0.00110623 2.13084 0.00110623 2.1433V2.18069C-0.000368742 2.2087 -0.000368742 2.23678 0.00110623 2.2648C0.835394 8.3053 2.71102 19.891 2.82368 20.5981C2.91198 21.7041 6.10907 22 7.99992 22C9.89077 22 13.097 21.6885 13.1762 20.6012L15.9987 2.27103C16.0004 2.24302 16.0004 2.21493 15.9987 2.18692V2.14953C15.9987 2.14953 15.9987 2.12461 15.9987 2.11215C16.0596 0.560748 11.2579 0 8.03037 0ZM12.7073 19.8598C11.7085 19.2804 9.48885 19.1059 8.03037 19.1059C7.0899 19.1002 6.15038 19.1679 5.21997 19.3084C5.17999 19.3148 5.14162 19.3291 5.10705 19.3506C5.07248 19.3721 5.04239 19.4004 5.01849 19.4338C4.9946 19.4672 4.97738 19.5051 4.9678 19.5453C4.95823 19.5856 4.95649 19.6273 4.96268 19.6682C4.96888 19.7091 4.9829 19.7484 5.00392 19.7838C5.02495 19.8191 5.05258 19.8499 5.08524 19.8744C5.11789 19.8988 5.15494 19.9164 5.19425 19.9262C5.23356 19.936 5.27438 19.9378 5.31436 19.9315C6.21358 19.7955 7.12139 19.7278 8.03037 19.729C10.8408 19.729 12.5093 20.2741 12.6159 20.5421C12.5093 20.8318 10.8408 21.3769 8.03037 21.3769C5.21997 21.3769 3.5514 20.8318 3.4631 20.5514C3.4631 20.5514 3.4631 20.5327 3.4631 20.5202C3.46463 20.511 3.46463 20.5015 3.4631 20.4922C3.40525 20.2804 2.54964 14.0498 1.691 7.92212C3.06422 8.68848 6.17606 8.91589 8.03037 8.91589C9.88468 8.91589 12.9874 8.68847 14.3637 7.92523L12.7073 19.8598ZM14.5098 6.85981C14.4698 6.9125 14.4474 6.97692 14.4459 7.04361C14.4459 7.46729 12.1805 8.28972 8.03037 8.28972C3.88024 8.28972 1.61488 7.46418 1.61488 7.04361C1.61488 6.62305 3.88024 5.79751 8.03037 5.79751C9.47034 5.78447 10.9084 5.90648 12.3266 6.16199C12.4058 6.17754 12.4877 6.16037 12.5545 6.11424C12.6212 6.06811 12.6674 5.99679 12.6829 5.91589C12.6981 5.83493 12.6813 5.75112 12.6362 5.6828C12.5911 5.61448 12.5214 5.56723 12.4424 5.5514C10.9861 5.28753 9.50927 5.16032 8.03037 5.17134C6.06949 5.17134 2.69275 5.42679 1.46872 6.3053C1.20991 4.43614 0.960233 4.62617 0.744049 3.05296C2.21471 3.90031 5.57622 4.21184 8.03037 4.21184C10.4845 4.21184 13.843 3.90031 15.3167 3.05608L14.5098 6.85981ZM15.4446 2.12773C15.3806 2.65421 12.8412 3.58879 8.03037 3.58879C3.21951 3.58879 0.677062 2.65421 0.616165 2.12461V2.09657C0.637479 1.57632 3.18297 0.619938 8.03341 0.619938C12.8839 0.619938 15.4293 1.57632 15.4507 2.09657L15.4446 2.12773Z" fill="#B063A3"/>
<path d="M6.22173 13.7383C6.16949 13.7075 6.10947 13.6932 6.0493 13.6973C5.98912 13.7015 5.9315 13.7238 5.88373 13.7614C5.83596 13.7991 5.8002 13.8504 5.78099 13.9089C5.76177 13.9674 5.75997 14.0304 5.7758 14.09C5.79163 14.1495 5.82439 14.2029 5.86992 14.2434C5.91545 14.2838 5.97169 14.3095 6.03153 14.3173C6.09137 14.325 6.15209 14.3143 6.20601 14.2867C6.25993 14.2591 6.30461 14.2157 6.33439 14.162C6.37408 14.0905 6.38452 14.0058 6.36341 13.9264C6.34231 13.847 6.29137 13.7794 6.22173 13.7383Z" fill="#B063A3"/>
<path d="M8.86161 14.6449C8.91385 14.6757 8.97387 14.6899 9.03404 14.6858C9.09422 14.6817 9.15184 14.6594 9.19961 14.6217C9.24738 14.5841 9.28313 14.5327 9.30235 14.4743C9.32156 14.4158 9.32337 14.3528 9.30754 14.2932C9.29171 14.2337 9.25895 14.1803 9.21342 14.1398C9.16789 14.0994 9.11165 14.0736 9.05181 14.0659C8.99197 14.0582 8.93125 14.0688 8.87733 14.0965C8.82341 14.1241 8.77873 14.1675 8.74895 14.2212C8.70926 14.2927 8.69882 14.3774 8.71993 14.4568C8.74103 14.5362 8.79197 14.6038 8.86161 14.6449Z" fill="#B063A3"/>
<path d="M5.51837 17.0935C5.46613 17.0626 5.40611 17.0484 5.34594 17.0525C5.28576 17.0566 5.22814 17.0789 5.18037 17.1166C5.1326 17.1542 5.09685 17.2056 5.07763 17.2641C5.05842 17.3226 5.05661 17.3856 5.07244 17.4451C5.08827 17.5046 5.12103 17.558 5.16656 17.5985C5.21209 17.639 5.26833 17.6647 5.32817 17.6724C5.38801 17.6801 5.44873 17.6695 5.50265 17.6418C5.55657 17.6142 5.60125 17.5708 5.63103 17.5171C5.67072 17.4456 5.68116 17.3609 5.66005 17.2815C5.63895 17.2022 5.58801 17.1346 5.51837 17.0935Z" fill="#B063A3"/>
<path d="M11.0965 13.3645C11.1485 13.3958 11.2085 13.4106 11.2687 13.407C11.329 13.4034 11.3868 13.3815 11.4349 13.3442C11.483 13.3069 11.5192 13.2558 11.5388 13.1974C11.5585 13.139 11.5607 13.076 11.5453 13.0163C11.5298 12.9566 11.4974 12.9029 11.4521 12.8621C11.4068 12.8213 11.3506 12.7952 11.2908 12.7871C11.231 12.7791 11.1701 12.7893 11.116 12.8167C11.0619 12.8441 11.017 12.8873 10.9869 12.9408C10.947 13.012 10.9361 13.0964 10.9566 13.1757C10.9771 13.255 11.0274 13.3229 11.0965 13.3645Z" fill="#B063A3"/>
<path d="M4.45267 12.6978C4.40042 12.6663 4.34016 12.6515 4.27961 12.6552C4.21906 12.6589 4.16099 12.6811 4.11283 12.7188C4.06468 12.7566 4.02864 12.8082 4.00934 12.867C3.99003 12.9259 3.98835 12.9892 4.00449 13.0491C4.02064 13.1089 4.05388 13.1624 4.09995 13.2028C4.14603 13.2432 4.20284 13.2685 4.2631 13.2756C4.32336 13.2827 4.38432 13.2713 4.43817 13.2427C4.49202 13.2141 4.5363 13.1698 4.56533 13.1153C4.60313 13.0443 4.61251 12.9611 4.59149 12.8832C4.57047 12.8054 4.5207 12.7389 4.45267 12.6978Z" fill="#B063A3"/>
<path d="M8.33485 12.4642C8.38687 12.4955 8.44682 12.5103 8.50707 12.5067C8.56732 12.5031 8.62517 12.4812 8.67326 12.4439C8.72135 12.4066 8.75751 12.3555 8.77716 12.2971C8.79681 12.2387 8.79905 12.1757 8.78361 12.116C8.76816 12.0563 8.73573 12.0026 8.69042 11.9618C8.64511 11.921 8.58897 11.8949 8.52913 11.8868C8.4693 11.8787 8.40846 11.889 8.35435 11.9164C8.30024 11.9438 8.2553 11.987 8.22524 12.0405C8.18529 12.1117 8.17439 12.1961 8.19491 12.2754C8.21544 12.3547 8.26573 12.4226 8.33485 12.4642Z" fill="#B063A3"/>
<path d="M11.0965 16.8255C11.1661 16.8664 11.2486 16.8776 11.3261 16.8566C11.4036 16.8356 11.47 16.7841 11.5106 16.7134C11.5357 16.6781 11.5532 16.6379 11.5621 16.5953C11.571 16.5526 11.5711 16.5086 11.5623 16.4659C11.5535 16.4233 11.5361 16.383 11.5111 16.3477C11.4862 16.3123 11.4543 16.2828 11.4174 16.2609C11.3806 16.2389 11.3397 16.2252 11.2973 16.2205C11.255 16.2158 11.2121 16.2202 11.1715 16.2335C11.131 16.2468 11.0936 16.2686 11.0618 16.2976C11.03 16.3266 11.0045 16.3622 10.9869 16.4019C10.947 16.473 10.9361 16.5574 10.9566 16.6368C10.9771 16.7161 11.0274 16.7839 11.0965 16.8255Z" fill="#B063A3"/>
<path d="M6.64801 10.6231C6.59576 10.5922 6.53575 10.578 6.47558 10.5821C6.4154 10.5862 6.35778 10.6085 6.31001 10.6462C6.26224 10.6838 6.22648 10.7352 6.20727 10.7937C6.18805 10.8521 6.18625 10.9152 6.20208 10.9747C6.21791 11.0342 6.25067 11.0876 6.2962 11.1281C6.34172 11.1686 6.39797 11.1943 6.45781 11.202C6.51764 11.2097 6.57837 11.1991 6.63229 11.1714C6.68621 11.1438 6.73089 11.1004 6.76067 11.0467C6.80036 10.9752 6.8108 10.8905 6.78969 10.8111C6.76859 10.7318 6.71765 10.6642 6.64801 10.6231Z" fill="#B063A3"/>
<path d="M11.5624 10.8505C11.6311 10.8822 11.7088 10.8868 11.7806 10.8633C11.8524 10.8398 11.9131 10.7898 11.951 10.7232C11.9889 10.6565 12.0013 10.5778 11.9857 10.5024C11.9702 10.4269 11.9278 10.36 11.8669 10.3146C11.8324 10.289 11.7931 10.2711 11.7514 10.2619C11.7098 10.2528 11.6667 10.2528 11.625 10.2618C11.5833 10.2707 11.5439 10.2886 11.5094 10.3141C11.4749 10.3397 11.446 10.3723 11.4246 10.41C11.4031 10.4477 11.3897 10.4896 11.3851 10.5329C11.3805 10.5762 11.3848 10.6201 11.3978 10.6616C11.4108 10.7031 11.4322 10.7414 11.4605 10.7739C11.4889 10.8064 11.5236 10.8325 11.5624 10.8505Z" fill="#B063A3"/>
<path d="M8.18261 16.5421C8.23485 16.5729 8.29487 16.5871 8.35504 16.583C8.41522 16.5789 8.47284 16.5566 8.52061 16.5189C8.56838 16.4813 8.60413 16.4299 8.62335 16.3715C8.64256 16.313 8.64437 16.25 8.62854 16.1904C8.61271 16.1309 8.57995 16.0775 8.53442 16.037C8.48889 15.9966 8.43264 15.9708 8.37281 15.9631C8.31297 15.9554 8.25225 15.966 8.19833 15.9937C8.14441 16.0213 8.09973 16.0647 8.06995 16.1184C8.03025 16.1899 8.01982 16.2746 8.04093 16.354C8.06203 16.4333 8.11296 16.501 8.18261 16.5421Z" fill="#B063A3"/>
<path d="M8.94382 17.7134C8.89158 17.6826 8.83157 17.6683 8.77139 17.6724C8.71122 17.6765 8.65359 17.6988 8.60582 17.7365C8.55806 17.7742 8.5223 17.8255 8.50308 17.884C8.48387 17.9425 8.48206 18.0055 8.49789 18.065C8.51373 18.1246 8.54648 18.178 8.59201 18.2184C8.63754 18.2589 8.69379 18.2846 8.75362 18.2923C8.81346 18.3001 8.87419 18.2894 8.9281 18.2618C8.98202 18.2341 9.0267 18.1907 9.05648 18.1371C9.09618 18.0655 9.10661 17.9809 9.08551 17.9015C9.0644 17.8221 9.01347 17.7545 8.94382 17.7134Z" fill="#B063A3"/>
<path d="M3.59707 9.84735C3.54483 9.81653 3.48481 9.80227 3.42464 9.80638C3.36447 9.8105 3.30684 9.8328 3.25907 9.87047C3.21131 9.90814 3.17555 9.95947 3.15633 10.018C3.13712 10.0764 3.13531 10.1395 3.15114 10.199C3.16698 10.2585 3.19973 10.3119 3.24526 10.3524C3.29079 10.3929 3.34704 10.4186 3.40687 10.4263C3.46671 10.434 3.52743 10.4234 3.58135 10.3957C3.63527 10.3681 3.67995 10.3247 3.70973 10.271C3.74943 10.1995 3.75986 10.1148 3.73876 10.0354C3.71765 9.95606 3.66672 9.88845 3.59707 9.84735Z" fill="#B063A3"/>
</svg>
