<svg width="24" height="24" viewBox="0 0 24 24" fill="none" xmlns="http://www.w3.org/2000/svg">
<g clip-path="url(#clip0_3828_47324)">
<path d="M23.5965 5.21278L23.5551 5.17138C23.0171 4.63335 22.0652 4.63335 21.5272 5.17138L19.3751 7.36485C19.251 7.48899 19.0854 7.48899 18.9612 7.36485L15.94 4.5506C15.6503 4.30226 15.2778 4.13672 14.8639 4.13672H10.3528C10.2287 4.13672 10.1459 4.17812 10.1045 4.21951L6.29692 7.86152C5.75889 8.44095 5.71749 9.35142 6.21412 9.88945C6.46246 10.1791 6.8349 10.3447 7.24878 10.3447C7.66266 10.3447 8.0351 10.1791 8.28344 9.88945L10.9735 7.0338H11.9254L5.63479 14.0694H1.74449C0.792621 14.0694 0.0476508 14.773 0.00625312 15.6421C-0.0351445 16.0974 0.130399 16.5526 0.461487 16.8837C0.792574 17.1734 1.20646 17.3804 1.66169 17.3804H7.45582C7.57996 17.3804 7.66276 17.339 7.74551 17.2562L10.7253 14.0695L13.2085 16.6768L12.4635 21.4776C12.2566 22.3054 12.6705 23.0917 13.374 23.4228C13.6224 23.547 13.8293 23.5884 14.0776 23.5884C14.326 23.5884 14.5742 23.547 14.8226 23.4228C15.2365 23.2159 15.5676 22.802 15.6917 22.3054L16.9747 15.3938C16.9747 15.2697 16.9333 15.1041 16.8505 15.0213L13.4154 11.5863L16.1469 8.85479L18.0507 10.7586C18.5887 11.2966 19.4993 11.2966 20.0372 10.7586L23.5964 7.19935C24.1345 6.66127 24.1345 5.75081 23.5965 5.21278ZM23.0171 6.61992L19.4579 10.1791C19.2095 10.3861 18.8371 10.3861 18.6301 10.1791L16.4367 7.98567C16.2711 7.82012 16.0228 7.82012 15.8572 7.98567L12.5463 11.2966C12.4635 11.3794 12.4222 11.4621 12.4222 11.5863C12.4222 11.7104 12.4636 11.7932 12.5877 11.9174L16.1469 15.4766L14.9053 22.1398C14.8225 22.3467 14.657 22.5537 14.4501 22.6778C14.2432 22.7606 13.9949 22.802 13.7465 22.6778C13.374 22.5123 13.2085 22.0984 13.2913 21.6431L14.0776 16.594C14.0776 16.4698 14.0362 16.3457 13.9535 16.2629L11.015 13.2003C10.9322 13.1175 10.8495 13.0762 10.7253 13.0762C10.6012 13.0762 10.477 13.1176 10.4357 13.2003L7.29027 16.5526H1.66174C1.4134 16.5526 1.2065 16.4698 1.04096 16.3043C0.916814 16.1387 0.834019 15.9318 0.834019 15.6835C0.834019 15.2282 1.2479 14.8972 1.74453 14.8972H5.80038C5.92452 14.8972 6.00732 14.8558 6.09007 14.8558L13.1257 6.99236C13.2499 6.86821 13.2499 6.70267 13.2085 6.53713C13.1671 6.37158 13.0016 6.28879 12.8361 6.28879H10.7667C10.6839 6.28879 10.5598 6.33018 10.477 6.41293L7.66276 9.39277C7.57996 9.51691 7.41442 9.59971 7.24887 9.59971C7.08333 9.59971 6.91779 9.51691 6.79364 9.39277C6.5867 9.14443 6.5867 8.77199 6.83504 8.52365L10.5184 5.00583H14.9054C15.0709 5.00583 15.2779 5.08863 15.402 5.21278L18.4232 8.02707C18.8784 8.44095 19.582 8.39955 19.9959 7.98567L22.148 5.7922C22.3549 5.58526 22.7688 5.58526 22.9757 5.7922L23.0171 5.8336C23.224 6.0405 23.224 6.41298 23.0171 6.61992Z" fill="#B063A3"/>
<path d="M19.0438 5.37822C20.4095 5.37822 21.527 4.26082 21.527 2.89502C21.527 1.52923 20.4095 0.411865 19.0438 0.411865C17.678 0.411865 16.5605 1.52927 16.5605 2.89507C16.5605 4.26086 17.678 5.37822 19.0438 5.37822ZM19.0438 1.23958C19.9543 1.23958 20.6992 1.98455 20.6992 2.89502C20.6992 3.80554 19.9542 4.55046 19.0438 4.55046C18.1333 4.55046 17.3883 3.80549 17.3883 2.89502C17.3883 1.98455 18.1333 1.23958 19.0438 1.23958Z" fill="#B063A3"/>
</g>
</svg>
