<svg width="24" height="24" viewBox="0 0 24 24" fill="none" xmlns="http://www.w3.org/2000/svg">
<path d="M18.2351 9.0435L17.7962 8.3956C17.6873 8.23491 17.4688 8.19291 17.3082 8.3018C17.1476 8.41064 17.1056 8.62913 17.2144 8.78977L17.6534 9.43772C17.8594 9.74189 17.9684 10.0969 17.9684 10.4643V11.6214H6.0319V10.4643C6.0319 10.0969 6.14084 9.74189 6.3469 9.43772L8.06759 6.89803H15.9326L16.2987 7.43827C16.4076 7.59895 16.626 7.64095 16.7867 7.53206C16.9474 7.42322 16.9894 7.20474 16.8805 7.0441L16.4699 6.43809V5.03798H16.8759C17.2883 5.03798 17.6238 4.70245 17.6238 4.29005V0.747938C17.6239 0.335531 17.2884 0 16.876 0H7.12427C6.71187 0 6.37634 0.335531 6.37634 0.747938V4.29C6.37634 4.70241 6.71187 5.03794 7.12427 5.03794H7.5303V6.43805L5.76509 9.04346C5.47985 9.46444 5.3291 9.95574 5.3291 10.4642V22.1317C5.3291 23.1618 6.16723 24 7.1974 24H16.8028C17.833 24 18.6711 23.1618 18.6711 22.1317V10.4642C18.6711 9.95574 18.5203 9.46444 18.2351 9.0435ZM15.7672 6.19519H8.23305V5.03794H15.7672V6.19519ZM7.12427 4.33519C7.09938 4.33519 7.07909 4.31494 7.07909 4.29V0.747938C7.07909 0.723047 7.09934 0.70275 7.12427 0.70275H16.8759C16.9008 0.70275 16.9211 0.723 16.9211 0.747938V4.29C16.9211 4.31489 16.9009 4.33519 16.8759 4.33519H16.1186H7.88168H7.12427ZM17.9683 19.4445H10.2623C10.0682 19.4445 9.9109 19.6019 9.9109 19.7959C9.9109 19.99 10.0682 20.1473 10.2623 20.1473H17.9684V22.1317C17.9684 22.7744 17.4455 23.2972 16.8028 23.2972H7.19745C6.55474 23.2972 6.0319 22.7744 6.0319 22.1317V20.1473H8.67593C8.86999 20.1473 9.0273 19.99 9.0273 19.7959C9.0273 19.6019 8.86999 19.4445 8.67593 19.4445H6.0319V12.3241H17.9684V19.4445H17.9683Z" fill="#B063A3"/>
<path d="M8.67559 3.52698C8.86965 3.52698 9.02697 3.36966 9.02697 3.1756V1.86212C9.02697 1.66805 8.86965 1.51074 8.67559 1.51074C8.48153 1.51074 8.32422 1.66805 8.32422 1.86212V3.1756C8.32422 3.36962 8.48153 3.52698 8.67559 3.52698Z" fill="#B063A3"/>
<path d="M10.3377 3.52698C10.5318 3.52698 10.6891 3.36966 10.6891 3.1756V1.86212C10.6891 1.66805 10.5318 1.51074 10.3377 1.51074C10.1436 1.51074 9.98633 1.66805 9.98633 1.86212V3.1756C9.98628 3.36962 10.1436 3.52698 10.3377 3.52698Z" fill="#B063A3"/>
<path d="M11.9998 3.52698C12.1939 3.52698 12.3512 3.36966 12.3512 3.1756V1.86212C12.3512 1.66805 12.1939 1.51074 11.9998 1.51074C11.8058 1.51074 11.6484 1.66805 11.6484 1.86212V3.1756C11.6484 3.36962 11.8058 3.52698 11.9998 3.52698Z" fill="#B063A3"/>
<path d="M13.6619 3.52698C13.856 3.52698 14.0133 3.36966 14.0133 3.1756V1.86212C14.0133 1.66805 13.856 1.51074 13.6619 1.51074C13.4679 1.51074 13.3105 1.66805 13.3105 1.86212V3.1756C13.3105 3.36962 13.4679 3.52698 13.6619 3.52698Z" fill="#B063A3"/>
<path d="M15.324 3.52698C15.5181 3.52698 15.6754 3.36966 15.6754 3.1756V1.86212C15.6754 1.66805 15.5181 1.51074 15.324 1.51074C15.13 1.51074 14.9727 1.66805 14.9727 1.86212V3.1756C14.9726 3.36962 15.13 3.52698 15.324 3.52698Z" fill="#B063A3"/>
</svg>
