<svg width="24" height="24" viewBox="0 0 24 24" fill="none" xmlns="http://www.w3.org/2000/svg">
<g clip-path="url(#clip0_3828_47316)">
<path d="M12.3298 12.2966L13.0491 12.5711C13.0904 12.5868 13.1327 12.5943 13.1744 12.5943C13.316 12.5943 13.4494 12.5081 13.5029 12.3679C13.5721 12.1865 13.4812 11.9833 13.2998 11.9141L12.5805 11.6396C12.3992 11.5705 12.196 11.6613 12.1267 11.8428C12.0575 12.0242 12.1484 12.2273 12.3298 12.2966Z" fill="#B063A3"/>
<path d="M22.7177 13.5388H22.5265C22.8618 13.3207 23.1517 13.0527 23.3306 12.7248C23.5341 12.3517 23.5735 11.9467 23.4479 11.5211C23.3322 11.1292 23.1091 10.8291 22.7843 10.626C22.942 10.2262 23.0247 9.79622 23.0247 9.36398C23.0247 7.47206 21.4855 5.93287 19.5936 5.93287C18.6776 5.93287 17.8105 6.29629 17.1691 6.93778L15.5448 4.6095C15.4879 4.52789 15.3991 4.47422 15.3004 4.46184C15.2017 4.44942 15.1023 4.47937 15.027 4.54439C14.5855 4.92501 14.2276 5.38809 13.9696 5.90301C13.608 5.93822 13.2693 6.09553 13.0036 6.26118C12.9434 5.69864 12.8001 4.88939 12.4598 4.23482C12.3701 4.06256 12.158 3.99557 11.9856 4.08511C11.8133 4.17468 11.7463 4.38693 11.8359 4.55925C12.3293 5.50809 12.3442 6.93028 12.3442 6.94434C12.345 7.08632 12.4311 7.21397 12.5625 7.26778C12.6056 7.28545 12.6509 7.29403 12.6957 7.29403C12.7875 7.29403 12.8776 7.25808 12.945 7.19048C12.9493 7.18612 13.2693 6.87229 13.6624 6.7034C13.6165 6.86943 13.5792 7.03842 13.5528 7.21022C13.4228 8.0564 13.5428 8.91825 13.891 9.69023L10.7364 11.1021C10.0194 9.86043 9.27553 9.27426 8.52319 9.35869C8.31028 9.38264 8.13947 9.43608 8.00166 9.50517C7.43531 8.6025 7.21416 7.89918 7.40934 7.60401C7.48266 7.49315 7.70597 7.15575 8.38041 7.3079C8.78053 7.39814 9.11977 7.61062 9.12248 7.61236C9.2422 7.68876 9.39609 7.68558 9.51262 7.60439C9.62911 7.5232 9.68531 7.37986 9.65508 7.24111C9.60736 7.02225 9.54867 6.64547 9.52514 6.2197C9.52505 6.20967 9.52458 6.19964 9.52364 6.18965C9.48858 5.50284 9.54703 4.69617 9.89095 4.21757C10.0704 3.96782 10.314 3.82917 10.6355 3.79368C10.7346 3.78276 10.8297 3.783 10.9184 3.79443C11.1111 3.81956 11.2871 3.6832 11.3119 3.49059C11.3367 3.29803 11.2007 3.12182 11.0081 3.09703C10.8642 3.07847 10.7129 3.07772 10.5585 3.09478C10.0349 3.15253 9.61819 3.39225 9.32001 3.80718C9.02864 4.21261 8.86205 4.77557 8.82145 5.48442C8.27395 5.13117 7.63669 4.94114 6.96783 4.94114C5.07591 4.94114 3.53672 6.48032 3.53672 8.37225C3.53672 9.03815 3.72741 9.68123 4.08783 10.2368C4.06439 10.4276 4.07025 10.6223 4.09462 10.8069C3.41053 10.6103 2.31952 10.4034 1.54481 10.7738C1.12861 10.9728 0.849375 11.3048 0.714844 11.7605C0.48375 12.5435 0.832547 13.1257 1.31906 13.5387H1.28236C0.57525 13.5388 0 14.114 0 14.8211V14.8967C0 15.6037 0.57525 16.179 1.28231 16.179H2.44495L5.2643 18.9267C5.06002 19.1422 4.9343 19.4329 4.9343 19.7526V19.7625C4.9343 20.41 5.46211 20.9173 6.13589 20.9173H17.8642C18.5379 20.9173 19.0658 20.4101 19.0658 19.7625V19.7526C19.0658 19.4329 18.94 19.1422 18.7358 18.9267L21.5551 16.179H22.7177C23.4248 16.179 24 15.6037 24 14.8967V14.8211C24 14.114 23.4248 13.5388 22.7177 13.5388ZM22.7133 12.3881C22.4774 12.8206 21.8063 13.2257 20.8721 13.4996C20.8407 13.5088 20.8118 13.5223 20.7853 13.5388H14.2497C14.9248 12.5275 15.1507 11.296 14.876 10.1121C15.1245 9.89376 15.3544 9.79467 15.5609 9.81792C15.906 9.85678 15.9782 9.99304 16.002 10.0378C16.1505 10.3181 15.947 10.8875 15.8254 11.1187C15.7403 11.2791 15.7912 11.4779 15.943 11.5775C16.0948 11.6771 16.2974 11.6448 16.4107 11.5029C16.9823 10.7868 17.8678 9.92915 18.4885 9.6314C18.5149 9.62325 18.5406 9.61167 18.5652 9.59695C18.7423 9.52298 18.8941 9.50058 19.0053 9.54853C19.1794 9.62362 19.4082 9.78304 19.3857 10.2989C19.3703 10.6514 19.2415 10.9724 19.2405 10.9748C19.1864 11.1061 19.2166 11.257 19.3171 11.3574C19.4176 11.4578 19.5686 11.4878 19.6998 11.4336C20.1726 11.2383 21.564 10.81 22.3145 11.1688C22.5465 11.2798 22.6966 11.4601 22.7734 11.7202C22.8453 11.9636 22.8256 12.1821 22.7133 12.3881ZM11.9452 13.2867L11.6307 12.584C11.5514 12.4068 11.3435 12.3274 11.1662 12.4067C10.989 12.486 10.9096 12.694 10.989 12.8712L11.2877 13.5388H10.1803L10.3092 13.2009C10.3784 13.0195 10.2875 12.8163 10.1061 12.7471C9.9247 12.6779 9.72145 12.7688 9.65227 12.9502L9.42764 13.5387H7.79194C7.78636 13.5311 7.64719 13.3621 7.58827 13.2812L14.2017 10.3215C14.4351 11.419 14.153 12.5938 13.4277 13.4669C13.4091 13.4894 13.3941 13.5135 13.3819 13.5387H11.9583C11.9843 13.4588 11.9822 13.3695 11.9452 13.2867ZM18.3887 8.68593C18.6318 8.25342 19.089 7.98089 19.5936 7.98089C20.3562 7.98089 20.9766 8.60133 20.9766 9.36393C20.9766 9.7837 20.7891 10.176 20.4622 10.4402C20.4491 10.4509 20.4372 10.4625 20.426 10.4745C20.2982 10.5042 20.1779 10.536 20.0681 10.5675C20.1492 9.95193 20.0277 9.22364 19.2838 8.90283C19.0573 8.80518 18.8033 8.79511 18.5193 8.87315L18.3887 8.68593ZM19.5936 6.63595C21.0978 6.63595 22.3215 7.85972 22.3215 9.36393C22.3215 9.71723 22.2552 10.057 22.126 10.378C21.9051 10.3362 21.6732 10.3239 21.4417 10.3319C21.5961 10.0374 21.6797 9.70692 21.6797 9.36393C21.6797 8.21362 20.7438 7.27776 19.5935 7.27776C18.9447 7.27776 18.3472 7.57617 17.9578 8.0684L17.579 7.5254C18.0961 6.95901 18.8233 6.63595 19.5936 6.63595ZM15.2031 5.34857L17.8704 9.17189C17.6086 9.33445 17.3265 9.55359 17.0226 9.83034C16.9262 9.91804 16.8329 10.0069 16.7439 10.0944C16.726 9.96225 16.6885 9.83212 16.6243 9.71043C16.5014 9.47747 16.2308 9.18576 15.6395 9.1192C15.279 9.0787 14.9177 9.19406 14.5612 9.46242C14.2467 8.7982 14.135 8.05083 14.2477 7.317C14.3616 6.5759 14.6966 5.88975 15.2031 5.34857ZM7.50183 10.0282C7.45983 10.1268 7.43288 10.2296 7.41872 10.3339C7.32975 10.2463 7.23647 10.1575 7.14009 10.0698C6.65419 9.62733 6.22397 9.33183 5.84372 9.18037C5.84011 9.17456 5.83678 9.16861 5.8328 9.16293C5.67052 8.93048 5.58473 8.65706 5.58473 8.37229C5.58473 7.60968 6.20517 6.98925 6.96778 6.98925C6.97973 6.98925 6.99155 6.99023 7.00345 6.99056C6.93956 7.0567 6.879 7.13123 6.82284 7.21617C6.43148 7.80792 6.65386 8.72826 7.50183 10.0282ZM4.2398 8.37229C4.2398 6.86807 5.46356 5.64431 6.96778 5.64431C7.66777 5.64431 8.32472 5.90503 8.83177 6.38076C8.84039 6.49884 8.85089 6.61115 8.86252 6.71418C8.59889 6.62297 8.3055 6.56189 8.01544 6.56836C7.69791 6.38357 7.33823 6.28612 6.96773 6.28612C5.81742 6.28612 4.88156 7.22198 4.88156 8.37229C4.88156 8.62242 4.92581 8.86668 5.01094 9.09651C4.96594 9.10875 4.92178 9.12375 4.8788 9.14231C4.704 9.21768 4.56394 9.31579 4.45242 9.42942C4.31269 9.09722 4.2398 8.73918 4.2398 8.37229ZM2.64647 13.5128C1.63298 13.0893 1.20994 12.5667 1.38914 11.9597C1.46583 11.6998 1.61573 11.5195 1.84739 11.4086C2.59495 11.0504 3.98902 11.4781 4.46278 11.673C4.59375 11.7271 4.74417 11.6969 4.84467 11.597C4.94517 11.4971 4.97569 11.3463 4.92234 11.215C4.92108 11.2118 4.79217 10.8908 4.77684 10.5383C4.75439 10.0225 4.98314 9.86306 5.15723 9.78797C5.65866 9.57178 6.9862 10.7842 7.75195 11.7424C7.86511 11.884 8.06719 11.916 8.21883 11.8169C8.37052 11.7177 8.4218 11.5192 8.33747 11.3588C8.21559 11.127 8.01202 10.5576 8.16056 10.2773C8.18428 10.2325 8.25652 10.0963 8.6017 10.0574C9.02437 10.0095 9.55941 10.4921 10.0907 11.391L6.92634 12.8072C6.8355 12.8478 6.76617 12.9251 6.73552 13.0197C6.70486 13.1144 6.71573 13.2176 6.76542 13.3038C6.81155 13.3838 6.86123 13.4618 6.91238 13.5388H2.69606C2.68041 13.5291 2.66405 13.5201 2.64647 13.5128ZM18.3626 19.7625C18.3626 20.059 18.1118 20.2141 17.8641 20.2141H6.13584C5.88811 20.2141 5.63737 20.059 5.63737 19.7625V19.7526C5.63737 19.4777 5.86102 19.2541 6.13584 19.2541H17.8641C18.1389 19.2541 18.3626 19.4777 18.3626 19.7526V19.7625ZM23.2969 14.8967C23.2969 15.216 23.037 15.4758 22.7177 15.4758H6.72563C6.53147 15.4758 6.37406 15.6332 6.37406 15.8274C6.37406 16.0215 6.53147 16.179 6.72563 16.179H20.5477L18.1138 18.551H17.8641H6.13584H5.88614L3.45234 16.179H5.31938C5.51353 16.179 5.67094 16.0215 5.67094 15.8274C5.67094 15.6332 5.51353 15.4758 5.31938 15.4758H1.28231C0.962953 15.4758 0.703125 15.216 0.703125 14.8967V14.8211C0.703125 14.5017 0.962953 14.2419 1.28231 14.2419H22.7177C23.037 14.2419 23.2969 14.5017 23.2969 14.8211V14.8967Z" fill="#B063A3"/>
<path d="M15.3826 8.49491C15.3873 8.49491 15.3919 8.49481 15.3966 8.49463L16.0582 8.46866C16.2522 8.46106 16.4033 8.29761 16.3957 8.1036C16.3881 7.90958 16.2244 7.75921 16.0306 7.7661L15.369 7.79207C15.175 7.79966 15.0239 7.96311 15.0315 8.15713C15.0389 8.34645 15.1948 8.49491 15.3826 8.49491Z" fill="#B063A3"/>
</g>
</svg>
