<svg width="54" height="54" viewBox="0 0 54 54" fill="none" xmlns="http://www.w3.org/2000/svg">
<g clip-path="url(#clip0_3828_47820)">
<path d="M53.1561 52.3125H29.8455C29.8455 48.7363 29.7085 52.3696 30.693 32.6851C32.8886 32.4892 35.0481 31.4628 36.6159 29.6667C40.6976 24.995 46.1933 17.9025 46.6755 17.279L47.2162 16.7397C48.4985 16.9023 49.3521 16.0895 49.3521 15.0731V13.214C49.3521 12.3636 48.7193 11.6601 47.9002 11.5449L47.5578 10.2906C47.3319 9.46036 46.7003 8.83272 45.8685 8.61166C44.5697 8.26635 43.4156 9.09281 43.3275 9.70864L43.068 11.5269C41.7026 11.5269 32.937 11.5269 32.044 11.5269C32.1777 11.2965 32.1685 11.298 32.6629 10.1767C33.1285 9.11611 33.3924 7.94816 33.3924 6.7282C33.3924 5.41849 32.7324 4.22891 31.6192 3.46089C31.6192 2.52729 31.7248 1.64061 30.8523 0.765118C29.2041 -0.877133 26.3852 0.302954 26.3852 2.61746V3.461C25.2723 4.2286 24.6118 5.41807 24.6118 6.72831C24.6118 7.91409 24.8572 9.07435 25.3419 10.178C25.84 11.3075 25.8288 11.3004 25.9604 11.527C25.9494 11.527 25.4081 11.5268 11.1174 11.5268C9.84538 11.5268 9.39862 11.08 8.31936 10.0007C7.98977 9.6712 7.45568 9.6712 7.12609 10.0007C6.7966 10.3302 6.7966 10.8644 7.12609 11.1938C8.29911 12.3669 9.14655 13.2143 11.1175 13.2143C37.2347 13.2143 11.0622 13.2145 42.8274 13.2145L42.745 13.7914L41.3038 15.0739H34.3219C33.7429 15.0739 33.3314 15.6468 33.5273 16.1993C32.9528 18.2745 32.6693 18.8691 32.6059 22.8139L31.3409 23.9396H27.844C27.378 23.9396 27.0003 24.3174 27.0003 24.7834C27.0003 25.2493 27.378 25.6271 27.844 25.6271C31.8682 25.6271 31.8392 25.6906 32.1467 25.4733C32.2051 25.4323 31.7656 25.8206 38.8586 19.5089L41.0435 21.6938C39.2413 23.9389 37.1523 26.4888 35.3454 28.5569C33.989 30.1107 32.0096 31.0334 29.889 31.0334C29.4394 31.0334 29.0688 31.386 29.0463 31.8351L28.3769 45.2196H25.7891C25.1066 39.6391 24.2778 36.601 24.2778 31.8782C24.2778 27.0967 25.4126 26.4806 25.4126 24.7834C25.4126 18.9985 25.1222 18.5243 24.4771 16.1974C24.6715 15.6452 24.2599 15.0739 23.6818 15.0739H22.7769C22.3109 15.0739 21.9331 15.4517 21.9331 15.9177C21.9331 16.3836 22.3109 16.7614 22.7769 16.7614H22.8823C23.4728 18.8763 23.725 19.2878 23.725 24.7834C23.725 26.5107 21.423 27.7082 23.3953 40.3876C23.7727 42.8148 24.2373 45.803 24.5601 49.8508L23.425 50.1345C22.3181 50.4104 21.479 51.256 21.1827 52.3127H0.843748C0.377788 52.3127 0 52.6905 0 53.1565C0 53.6225 0.377788 54.0002 0.843748 54.0002H53.1561C53.6221 54.0002 53.9999 53.6225 53.9999 53.1565C53.9999 52.6905 53.6221 52.3125 53.1561 52.3125ZM28.0726 2.61725C28.0726 1.45045 29.9317 1.26514 29.9317 2.75214C29.3321 2.63296 28.7065 2.62611 28.0726 2.75214V2.61725ZM27.0614 5.07235C27.5079 4.6664 27.5415 4.84084 27.8056 4.59278C28.5547 4.26593 29.4484 4.26541 30.1985 4.59278C30.4571 4.83568 30.5007 4.67062 30.9427 5.07235C31.8418 5.88983 31.8126 6.93481 31.5571 8.13536C31.3764 8.98491 31.1465 9.43294 30.6614 10.5334C30.0809 11.8532 27.9231 11.8532 27.3425 10.5328C26.779 9.2547 26.2991 8.33354 26.2991 6.7281C26.2991 6.1072 26.57 5.51922 27.0614 5.07235ZM47.6646 15.0732H47.5358C47.0706 15.0732 46.6921 14.6947 46.6921 14.2294V14.0578C46.6921 13.5926 47.0706 13.2141 47.5358 13.2141H47.6646C47.6657 15.0977 47.6752 15.0732 47.6646 15.0732ZM35.1222 16.7612H39.4071L34.337 21.2731C34.4345 19.0659 34.642 18.4838 35.1222 16.7612ZM40.1211 18.3849C44.3575 14.615 44.3101 14.7667 44.3717 14.3356L44.9496 10.2865C45.3069 10.1106 45.8057 10.279 45.9296 10.7344L46.2431 11.8828C44.802 12.7425 44.6232 14.7702 45.6514 15.9171C45.1248 16.4424 45.8877 15.6114 42.1032 20.3671L40.1211 18.3849ZM23.0278 52.3125C23.4283 51.7656 23.8242 51.774 25.6606 51.3149C26.0586 51.2153 26.3274 50.8439 26.2974 50.4347C26.2042 49.1627 26.0969 47.9916 25.9819 46.9069H28.2922C28.1233 50.2845 28.1582 48.8815 28.1582 52.3125H23.0278Z" fill="white"/>
<path d="M6.8804 16.7611H16.0351C16.501 16.7611 16.8788 16.3834 16.8788 15.9174C16.8788 15.4514 16.501 15.0736 16.0351 15.0736H6.8804C6.00311 15.0736 5.59579 14.0678 6.17661 13.487C6.35306 13.3112 6.58688 13.2142 6.83494 13.2142C7.3009 13.2142 7.67869 12.8364 7.67869 12.3705C7.67869 11.9045 7.3009 11.5267 6.83494 11.5267C6.13716 11.5267 5.4802 11.7984 4.98439 12.2928C3.33475 13.9422 4.52265 16.7611 6.8804 16.7611Z" fill="white"/>
<path d="M19.4108 16.7613C19.8767 16.7613 20.2503 16.3835 20.2503 15.9175C20.2503 15.4516 19.8683 15.0738 19.4023 15.0738C18.9364 15.0738 18.5586 15.4516 18.5586 15.9175C18.5586 16.3695 18.9189 16.7613 19.4108 16.7613Z" fill="white"/>
</g>
</svg>
