<svg width="60" height="60" viewBox="0 0 60 60" fill="none" xmlns="http://www.w3.org/2000/svg">
<g clip-path="url(#clip0_3828_47848)">
<path d="M31.1716 18.8866C31.5217 19.1288 31.7137 19.3087 32.0735 19.3087C32.9891 19.3087 33.363 18.123 32.6079 17.6002L32.2387 17.3447C31.8128 17.0501 31.2291 17.1565 30.9343 17.5822C30.6396 18.0078 30.7459 18.5918 31.1716 18.8866Z" fill="white"/>
<path d="M59.0595 45.0313H57.9569C57.5607 43.2705 56.0229 41.7262 53.673 41.7262L53.529 41.5822C54.6964 40.8453 55.578 39.73 56.0215 38.4206C58.6401 39.0649 60.8315 36.3261 59.6908 33.9387C58.9523 32.3978 58.6209 31.2427 57.13 30.7291C55.8981 30.305 54.584 30.6871 53.7395 31.605C51.3952 29.602 48.1458 29.2604 45.4465 30.4624C42.9293 25.7767 39.6449 22.4706 35.6595 19.7138C35.2338 19.4192 34.6499 19.5256 34.3553 19.9514C34.0607 20.3772 34.1672 20.9612 34.5929 21.2556C38.3838 23.8782 41.4635 26.983 43.8314 31.4215C43.7522 31.4816 43.6732 31.542 43.5963 31.6049L41.9332 29.823C41.646 29.5154 41.2004 29.4443 40.8406 29.6179C40.2704 29.8926 40.1318 30.6414 40.5622 31.1025C43.2522 33.9838 42.7468 33.4514 43.2473 33.952C43.3783 34.0783 51.183 41.8912 51.281 41.9856C52.662 43.3666 52.7708 43.6011 53.2848 43.6011C53.924 43.6011 54.7265 43.5299 55.4925 44.2939C55.708 44.5098 55.8769 44.7598 55.9941 45.0313H52.9778C51.8171 45.0313 50.7655 44.3751 50.2508 43.3461C50.1358 43.1162 50.9226 43.8576 40.8212 34.8311C40.7839 34.798 41.1505 35.1024 37.4352 32.0258C37.0364 31.6957 36.4455 31.751 36.1151 32.15C35.7837 32.5502 35.842 33.1412 36.2396 33.4704C38.4081 35.2662 38.149 35.0252 38.0606 35.0449C35.8523 35.537 33.8246 33.8442 33.8246 31.6465C33.8246 31.1586 34.1458 31.6742 27.1635 23.5287C26.9785 23.0468 26.4558 22.8159 25.9909 22.9708C25.9791 22.9747 15.0671 31.2863 9.92668 35.1975L8.62679 32.802C18.9156 18.5219 18.2808 19.4256 18.345 19.2732C18.624 18.6116 19.6644 16.5763 20.7484 15.9253C22.7527 14.721 25.5114 14.7647 26.3951 15.4295L25.936 19.1032C25.8027 20.1703 27.2921 20.5747 27.7234 19.5987C27.7992 19.4276 27.7717 19.5348 28.1167 16.7738C28.2879 16.8932 28.4686 16.9532 28.6686 16.9532C29.599 16.9532 29.9555 15.7444 29.1866 15.2343L28.0418 14.4409C26.572 12.5599 22.3566 12.7715 19.7828 14.318C18.1071 15.3244 16.9251 17.8425 16.6609 18.4437L6.81411 32.11L0.995809 37.5503C-0.0126556 38.4933 -0.285923 40.0143 0.331624 41.2492C1.44286 43.4716 1.68835 44.14 2.561 45.0313H0.937452C0.419744 45.0313 0 45.451 0 45.9688C0 46.4865 0.419744 46.9062 0.937452 46.9062H59.0595C59.5772 46.9062 59.997 46.4865 59.997 45.9688C59.997 45.451 59.5772 45.0313 59.0595 45.0313ZM57.2239 33.1298L57.9995 34.7482C58.6023 36.01 56.9775 37.2376 55.9598 36.3396C55.8381 36.2272 55.7433 36.1192 55.6589 35.9418C54.8583 34.271 54.6362 34.0379 54.8135 33.415C55.1531 32.2671 56.7156 32.0663 57.2239 33.1298ZM47.9805 31.6869L48.7495 33.4941C48.9521 33.9704 49.5029 34.1925 49.9791 33.9896C50.4556 33.7869 50.6774 33.2364 50.4747 32.7599L50.0636 31.794C51.1732 32.0488 52.1017 32.5812 52.9102 33.3896C52.86 33.7948 52.8904 34.2326 53.012 34.6535C53.1171 35.0174 53.9778 36.9069 54.3674 37.3818C54.0931 38.6451 53.2377 39.6733 52.1539 40.2071L50.1823 38.2355C50.4227 37.6564 50.7693 37.1517 51.1783 36.7425C51.5444 36.3764 51.5444 35.7829 51.1783 35.4168C50.8121 35.0507 50.2187 35.0507 49.8525 35.4168C49.4349 35.8345 49.062 36.3299 48.7803 36.8334L44.9047 32.9576C45.8084 32.2555 46.8613 31.821 47.9805 31.6869ZM2.27637 38.9199L7.27651 34.2447L8.4741 36.4519L5.26497 39.813C5.05381 40.0341 4.96381 40.3444 5.02369 40.6441L5.86986 44.8745C4.6807 44.5493 3.67106 43.7357 3.09992 42.5935L2.00861 40.4107C1.75983 39.9129 1.86987 39.3 2.27637 38.9199ZM6.95789 40.7548L10.2482 37.3087L26.1406 25.2163L31.9616 32.007C32.1472 34.7943 34.4686 37.005 37.2954 37.005C38.0404 37.005 38.444 36.8802 39.9304 36.5494C50.7209 46.1916 48.1054 43.7522 49.1145 45.0312H7.81331L6.95789 40.7548Z" fill="white"/>
</g>
</svg>
