<svg width="54" height="54" viewBox="0 0 54 54" fill="none" xmlns="http://www.w3.org/2000/svg">
<g clip-path="url(#clip0_3828_47834)">
<path d="M53.1562 52.3125H35.6698C35.3629 51.043 34.3771 50.0175 33.0646 49.6894L31.1812 49.2182L33.5461 37.7464C33.9839 35.6196 32.8328 33.3688 30.598 32.5741C25.2905 30.7325 27.1399 31.5607 22.1894 30.4261C23.8839 29.3718 26.2675 27.8365 27.0018 27.1029C27.8525 26.251 30.4414 23.6583 30.4414 21.1812C30.4414 20.4825 30.229 19.7101 29.8089 18.8788L31.5939 17.0938C31.9234 16.7644 31.9234 16.2302 31.5939 15.9007C31.2644 15.5712 30.7303 15.5711 30.4006 15.9007L26.379 19.9222C25.8458 20.4555 26.2308 21.3626 26.9756 21.3626C27.4354 21.3626 27.5654 21.1223 28.5311 20.1567C28.6763 20.5367 28.7538 20.8832 28.7538 21.1812C28.7538 22.3616 27.7626 23.9528 25.8045 25.9136C25.1043 26.6131 21.9357 28.6227 19.8201 29.9001L16.1325 29.4395C15.6708 29.382 15.2485 29.7098 15.1907 30.1722C15.1329 30.6346 15.461 31.0562 15.9234 31.114L19.8521 31.6047C23.0338 32.385 24.3439 32.6104 25.2123 32.7599C27.2881 33.1171 28.4807 33.6699 30.0747 34.179C31.3949 34.648 32.1761 36.032 31.8932 37.4059L30.7977 42.7199H27.9542L28.4099 38.7244C28.4635 38.2544 28.1199 37.8313 27.6478 37.7885C22.9381 37.361 21.2458 37.3686 17.8677 37.3907C16.8437 37.3981 14.8542 36.8629 13.9988 36.4199C11.9342 35.3506 11.2963 32.0856 12.2425 30.0661C12.2817 29.9822 12.3047 29.8998 12.3156 29.8141C12.6862 26.8345 19.9519 22.9228 22.5621 14.3498C23.1927 14.7654 23.8814 15.0854 24.6051 15.3015L23.1823 16.7243C22.8529 17.0538 22.8529 17.588 23.1823 17.9175C23.5118 18.2469 24.046 18.247 24.3756 17.9175L35.395 6.89808C37.0119 5.28145 37.9023 3.13116 37.9023 0.84375C37.9023 0.377789 37.5245 0 37.0586 0C36.5926 0 36.2148 0.377789 36.2148 0.84375C36.2148 2.68049 35.4999 4.40701 34.2017 5.70512L30.4414 9.4654C30.4414 7.52351 30.5974 6.29279 29.7237 4.77383C28.3594 2.29099 25.0111 1.15035 22.2024 2.57291C20.9286 0.369879 17.5658 0.641461 16.7089 3.06703L16.1323 4.70486C15.431 6.68978 16.9964 8.78217 19.1821 8.64802C19.3003 10.3356 19.9909 11.906 21.1481 13.1532C18.8244 22.0019 10.9091 25.8899 10.6438 29.5045C9.44989 32.1452 10.2983 36.4037 13.2226 37.9183C14.2737 38.4626 16.5413 39.0852 17.8786 39.0781C20.9588 39.058 22.5231 39.0412 26.6351 39.3931C26.5024 40.5566 25.6456 48.0697 25.5689 48.7421C25.2025 50.2069 24.8096 51.1266 25.3825 52.3123H0.84375C0.377789 52.3123 0 52.6901 0 53.156C0 53.622 0.377789 53.9998 0.84375 53.9998H53.1562C53.6222 53.9998 54 53.622 54 53.156C54 52.6901 53.6222 52.3125 53.1562 52.3125ZM18.5487 6.8947C17.8587 6.66309 17.4864 5.93831 17.7238 5.26627L18.3004 3.62844C18.7658 2.31071 20.7752 2.54992 20.9054 3.92755C20.9277 4.29606 20.9193 4.22402 20.2615 6.09103C20.0251 6.7578 19.2673 7.13707 18.5487 6.8947ZM20.8494 8.02839C21.258 7.7163 21.5704 7.30266 21.7601 6.88078C21.8341 6.71646 22.437 5.03782 22.511 4.73808C22.5495 4.58219 22.5748 4.4241 22.586 4.29637C24.3151 3.16586 26.7016 3.51432 27.9816 5.18991C27.1374 6.37284 25.7737 7.01473 24.3895 7.01473C23.9236 7.01473 23.5458 7.39252 23.5458 7.85848C23.5458 8.32539 23.9244 8.70223 24.39 8.70223C26.0738 8.70223 27.6215 8.02069 28.7156 6.92835C28.7672 7.28452 28.7538 7.09499 28.7538 11.1529L26.0202 13.8865C24.8977 13.734 23.8738 13.282 23.0438 12.6181L23.7715 10.8116C23.9455 10.3794 23.7364 9.8878 23.3041 9.71367C22.872 9.53944 22.3798 9.74879 22.2057 10.1811L21.7805 11.2364C21.1177 10.2257 20.8494 9.17399 20.8494 8.02839ZM28.0652 52.3125C27.2272 52.3125 26.6124 51.525 26.8155 50.7127C27.3681 48.5039 27.1266 49.9775 27.7618 44.4076H30.45L29.3651 49.6701C29.2738 50.1131 29.5479 50.5492 29.9868 50.6589L32.6552 51.3266C33.2042 51.4638 33.6451 51.8321 33.885 52.3126H28.0652V52.3125Z" fill="white"/>
<path d="M32.9326 13.3696L32.7754 13.5268C32.4459 13.8562 32.4459 14.3904 32.7754 14.7199C33.1051 15.0495 33.6391 15.0494 33.9687 14.7199L34.1259 14.5628C34.4553 14.2333 34.4553 13.6991 34.1259 13.3696C33.7963 13.0401 33.2622 13.0401 32.9326 13.3696Z" fill="white"/>
<path d="M40.1906 2.1028C41.075 1.21803 42.6102 1.83829 42.6102 3.10507C42.6102 3.47822 42.4589 3.84346 42.195 4.10734L35.3067 10.9955C34.7735 11.5288 35.1585 12.4359 35.9034 12.4359C36.1192 12.4359 36.3353 12.3535 36.5 12.1888L43.3883 5.30062C44.5898 4.09891 44.6117 2.13328 43.3882 0.909424C41.2736 -1.20459 37.7751 0.880737 38.9971 2.1027C39.3269 2.43229 39.861 2.43229 40.1906 2.1028Z" fill="white"/>
</g>
</svg>
