<svg width="58" height="58" viewBox="0 0 58 58" fill="none" xmlns="http://www.w3.org/2000/svg">
<g clip-path="url(#clip0_3828_47854)">
<path d="M41.9044 25.6744L46.9659 24.3791C47.3438 24.9723 48.0729 25.9922 48.6271 26.5269C48.8543 26.743 48.741 26.2184 47.3309 28.9677C47.2516 29.121 47.3495 28.9062 47.085 28.3245C46.7957 27.6808 46.267 27.1397 45.5837 26.8543C43.3407 25.9174 43.2229 28.39 44.5516 28.4518C45.0736 28.476 45.5312 28.9486 45.5312 29.5363C45.5312 29.9711 45.5313 31.2699 45.5313 38.1973C45.5313 38.6976 45.937 39.1032 46.4373 39.1032C52.0582 39.1032 52.2777 39.4489 54.8254 36.9011C55.1793 36.5473 55.1793 35.9737 54.8255 35.6199C54.4717 35.2661 53.8982 35.266 53.5444 35.6199C51.594 37.57 51.7912 37.2914 47.3432 37.2914V32.3419C48.5882 30.9612 49.1083 29.073 50.2049 27.673C51.2499 28.2346 52.4198 28.5285 53.6318 28.5285C55.5043 28.5285 57.0278 27.0361 57.0278 25.2015C57.0278 20.7979 57.2133 19.9735 56.3506 18.4434C54.9356 16.0096 51.9129 15.1729 49.4538 16.3451C48.1678 14.339 45.0724 14.6815 44.2789 16.9278L43.7552 18.4158C43.0991 20.2718 44.5133 22.2203 46.5298 22.1883C46.5424 22.3289 46.559 22.4685 46.5802 22.6074L41.455 23.9191C40.9703 24.0431 40.6779 24.5366 40.8019 25.0213C40.926 25.506 41.4196 25.7985 41.9044 25.6744ZM54.4791 18.907C53.7676 19.8476 52.6238 20.4217 51.3898 20.4217C50.8894 20.4217 50.4838 20.8274 50.4838 21.3277C50.4838 21.828 50.8894 22.2336 51.3898 22.2336C52.7698 22.2336 54.134 21.7435 55.2105 20.7782C55.2183 20.9105 55.2159 20.5791 55.2159 25.2015C55.2159 26.0369 54.5053 26.7166 53.6318 26.7166C52.3833 26.7166 51.2454 26.3035 50.3459 25.6155C50.329 25.6027 50.2883 25.7219 50.9566 24.0632C51.1436 23.5992 50.919 23.0713 50.4549 22.8842C49.9904 22.6974 49.4629 22.922 49.276 23.3859L48.9924 24.0896C48.5526 23.3341 48.3117 22.4866 48.3117 21.55C48.6491 21.2792 48.9404 20.9112 49.1281 20.494C49.1341 20.4806 49.8197 18.7239 49.8823 18.1721C51.3509 17.2513 53.3489 17.5203 54.4791 18.907ZM45.4639 19.0185L45.9877 17.5304C46.3602 16.476 47.9776 16.663 48.0844 17.7665C48.0937 17.9177 48.0825 18.0417 48.0306 18.1889C47.4922 19.717 47.4868 20.001 46.9913 20.2568C46.1443 20.6927 45.1493 19.9093 45.4639 19.0185Z" fill="white"/>
<path d="M38.0562 26.6295C38.8006 26.6295 39.2288 26.04 39.0852 25.4662C38.9641 24.9808 38.4728 24.6858 37.9866 24.807L37.8371 24.8444C36.8058 25.1022 36.9943 26.6295 38.0562 26.6295Z" fill="white"/>
<path d="M57.6975 41.4002C58.6423 39.5094 57.2582 37.2912 55.1532 37.2912C54.6528 37.2912 54.2472 37.6968 54.2472 38.1971C54.2472 38.6974 54.6528 39.1031 55.1532 39.1031C55.4289 39.1031 55.6885 39.2104 55.8819 39.4032C56.5282 40.0519 56.0699 41.165 55.1532 41.165H46.4371C44.8006 41.165 43.4693 39.8336 43.4693 38.1971C43.4693 36.5614 43.4693 32.9415 43.4693 31.3247C43.4693 30.8236 43.0624 30.4182 42.5628 30.4182C42.0625 30.4182 41.6568 30.8239 41.6568 31.3242V32.1111C41.499 32.1066 42.2485 32.0232 30.8462 33.422L10.5426 35.2686V33.0088C23.3679 28.0758 22.5967 28.3857 22.7306 28.2968C23.5795 27.7458 25.4902 26.7718 26.6507 26.7718C27.7858 26.7718 29.2858 27.5314 30.0356 28.014V30.4229C30.0356 30.9232 30.4413 31.3289 30.9416 31.3289C31.4419 31.3289 31.8476 30.9232 31.8476 30.4229V28.2474L34.7882 27.4946C35.1939 27.4048 35.497 27.0428 35.497 26.61C35.497 26.1097 35.0908 25.704 34.5905 25.704C34.4275 25.704 34.6415 25.6618 31.1241 26.5623C30.2642 25.9919 28.356 24.9599 26.6508 24.9599C25.6755 24.9599 24.4786 25.3196 23.0939 26.0285C20.7894 27.2056 24.5917 25.6637 9.37546 31.5164L2.24017 33.1018C0.929458 33.3932 0.0140904 34.5344 0.0140904 35.8771C0.0140904 39.2545 -0.146492 40.0296 0.61656 41.2182C-0.336406 41.5575 -0.0955318 42.9769 0.920059 42.9769H57.0901C57.9191 42.9769 58.309 41.9543 57.6975 41.4002ZM1.82591 35.8771C1.82591 35.3902 2.15795 34.9763 2.63313 34.8706L8.73053 33.5156V35.5174L4.61607 36.3402C4.25742 36.4119 3.97702 36.6923 3.90534 37.051L3.10911 41.0324C2.3593 40.7437 1.82591 40.0157 1.82591 39.1656V35.8771ZM4.93044 41.165L5.56371 37.9986C11.1616 36.8791 6.31431 37.4726 31.0235 35.2253C31.1109 35.2174 41.6079 33.9216 41.6573 33.9262V38.1971C41.6573 39.3179 42.0461 40.349 42.6944 41.165C41.8106 41.165 8.99077 41.165 4.93044 41.165Z" fill="white"/>
</g>
</svg>
