<svg width="56" height="56" viewBox="0 0 56 56" fill="none" xmlns="http://www.w3.org/2000/svg">
<g clip-path="url(#clip0_3828_47841)">
<path d="M36.6625 40.4667L44.3694 27.5303L47.8642 23.9865C49.3289 24.7633 51.2467 24.2793 52.1117 22.7202C56.0433 15.6346 56.0001 15.9299 56.0001 15.0596C56.0001 12.9772 53.567 11.7976 52.1321 13.0402C39.1344 24.3835 42.3476 21.5749 38.1813 25.2284C37.6108 22.8698 34.428 22.2743 34.428 23.844C34.428 24.3273 34.8198 24.719 35.303 24.719C35.6269 24.719 35.9318 24.8452 36.1594 25.072C36.9291 25.8445 36.3678 27.1421 35.2496 27.1421H14.4375C13.9543 27.1421 13.5625 27.5339 13.5625 28.0171C13.5625 28.5004 13.9543 28.8921 14.4375 28.8921H19.3249L26.9679 35.5797L26.2367 37.5283C25.8878 38.4585 27.1175 39.1447 27.7338 38.3881C27.8607 38.2327 27.8159 38.3012 28.7419 35.8331L41.4361 24.7017C42.3859 26.4513 42.1037 25.9316 42.6668 26.9689C34.5849 40.5346 35.1007 39.6547 35.0571 39.7676C34.9935 39.9336 33.4532 43.8349 29.7499 43.8349C26.3652 43.8349 26.2307 44.1158 25.5926 43.1748C25.2148 42.6189 17.6578 38.0375 14.5033 35.0691C14.1513 34.7378 13.5977 34.7547 13.2664 35.1066C12.9353 35.4584 12.9521 36.0122 13.304 36.3434C15.3171 38.2379 16.3097 38.8051 23.6382 43.8783H0.874998C0.39178 43.8783 0 44.2701 0 44.7533C0 45.2366 0.39178 45.6283 0.874998 45.6283H55.1249C55.6081 45.6283 55.9999 45.2366 55.9999 44.7533C55.9999 44.2701 55.6081 43.8783 55.1249 43.8783H34.2275C35.7526 42.5478 36.5013 40.8618 36.6625 40.4667ZM53.28 14.361C53.5437 14.1328 54.25 14.4319 54.25 15.0584C54.25 15.3561 54.4573 14.8863 50.5815 21.8713C50.1317 22.6816 49.0376 22.85 48.3654 22.2101C48.0194 21.8808 47.4741 21.8896 47.139 22.2295L43.8795 25.5347L42.7857 23.5195L53.28 14.361ZM34.0032 28.8921L27.9994 34.1569L21.9825 28.8921H34.0032Z" fill="white"/>
<path d="M10.9878 32.2417C10.5796 32.5004 10.4584 33.0411 10.717 33.4492C10.7802 33.549 10.8423 33.645 10.9046 33.735C11.1776 34.1306 11.7223 34.2337 12.1217 33.9579C12.5195 33.6834 12.6192 33.1384 12.3446 32.7407C12.2951 32.6688 12.2457 32.5921 12.1953 32.5125C11.9366 32.1043 11.3961 31.9831 10.9878 32.2417Z" fill="white"/>
<path d="M3.15372 17.8867C3.36132 20.5945 5.06068 22.8962 7.47776 24.013C7.75152 25.9153 8.34554 28.1263 9.13719 30.1677C9.27161 30.5142 9.60258 30.7265 9.95324 30.7265C10.5674 30.7265 10.9911 30.1079 10.7688 29.5349C10.1371 27.9058 9.64043 26.1696 9.34807 24.5989C10.4805 24.799 11.4191 24.7842 12.302 24.3502C13.3961 24.7876 13.0118 24.7218 14.3369 24.7127C14.4211 24.7224 14.0821 24.719 30.2651 24.719C32.5355 24.719 33.5181 23.7362 34.8783 22.3762C35.22 22.0345 35.22 21.4805 34.8782 21.1388C34.5365 20.7969 33.9825 20.7972 33.6408 21.1388C32.3842 22.3955 31.8106 22.9691 30.2652 22.9691C11.287 22.9691 14.1418 22.9642 13.797 22.9666C14.42 21.9061 14.2692 21.4548 14.2692 16.6716C14.2692 12.6906 9.94241 9.9538 6.17346 11.8248C4.87846 9.66494 1.57413 9.97152 0.731723 12.3567C0.194254 13.8833 -0.355355 14.8735 0.29652 16.2107C0.834754 17.3143 1.96952 17.9408 3.15372 17.8867ZM11.7513 14.4523C10.9426 15.5618 9.64797 16.1877 8.29643 16.1877C7.81321 16.1877 7.42143 16.5795 7.42143 17.0627C7.42143 17.546 7.81321 17.9377 8.29643 17.9377C9.91343 17.9377 11.4113 17.3013 12.4948 16.256C12.5296 16.5524 12.5192 16.3159 12.5192 21.2358C12.5192 22.1915 11.7084 22.969 10.7118 22.969C9.30038 22.969 8.02518 22.4853 7.03763 21.7057L7.73621 19.9718C7.97136 19.3884 7.53135 18.7589 6.90999 18.7695C6.56885 18.7753 6.24849 18.9815 6.11308 19.3177L5.73235 20.2627C5.18088 19.3909 4.87977 18.3854 4.87977 17.3235C4.87977 17.2375 4.86938 17.2605 4.9314 17.2101C5.36671 16.8563 5.68182 16.3987 5.85911 15.8993C6.4189 14.3104 6.53297 14.0641 6.57738 13.6042C8.23201 12.5366 10.5091 12.8585 11.7513 14.4523ZM1.81749 14.5416L2.38186 12.9385C2.56047 12.4329 3.0508 12.1155 3.577 12.1155C4.43505 12.1155 5.05236 12.9233 4.77291 13.7152C4.20361 15.3311 4.17988 15.6714 3.66505 15.966C2.62522 16.5536 1.44955 15.5831 1.81749 14.5416Z" fill="white"/>
</g>
</svg>
