<svg width="54" height="54" viewBox="0 0 54 54" fill="none" xmlns="http://www.w3.org/2000/svg">
<g clip-path="url(#clip0_3828_47827)">
<path d="M53.1562 52.3125H46.3457C46.0494 51.2564 45.2107 50.4109 44.1043 50.1345L42.6694 49.7756L44.6096 40.3658C45.011 38.4166 43.8575 36.5033 42.0648 35.9008C37.2428 34.2275 39.4985 35.1953 33.7744 33.8067C33.1713 32.4587 33.7766 30.684 34.3154 29.1054C35.0816 26.8608 36.114 24.5068 30.4772 20.3218C31.9932 20.1127 33.1636 18.8344 33.1636 17.2928V13.4136C33.1636 10.973 31.2473 8.90842 28.7304 8.70782V2.66245C28.7304 1.20087 27.557 0 26.1131 0C23.5343 0 22.699 3.46075 24.3401 3.46075C24.806 3.46075 25.1838 3.08296 25.1838 2.617C25.1838 2.08765 25.6195 1.67822 26.121 1.6875C26.6294 1.69151 27.0429 2.12889 27.0429 2.66245V20.3501C27.0429 21.0961 27.9414 21.4707 28.4731 20.956C30.4575 22.3605 33.249 24.4108 33.249 26.5569C33.249 28.1056 30.6641 32.0115 32.4867 34.9763C32.5833 35.1333 32.7331 35.2595 32.9094 35.3256C33.0532 35.3796 35.4739 35.9775 37.5134 36.3285C38.5667 36.5098 38.8867 36.5873 41.5233 37.499C42.5627 37.8606 43.179 38.9468 42.957 40.025L42.0688 44.3325H39.9779L40.3392 41.1667C40.3927 40.6967 40.049 40.2736 39.577 40.2307C35.0905 39.8237 33.8058 39.8993 31.4111 39.8993C30.5503 39.8993 28.9305 39.4466 28.2747 39.107C26.6991 38.2914 26.2808 36.0269 26.6681 34.5693C29.6706 34.9445 29.4566 34.9206 29.5325 34.9206C29.9519 34.9206 30.3153 34.6083 30.3687 34.1814C30.4265 33.719 30.0984 33.2973 29.6361 33.2394L26.8901 32.8963C26.8337 32.2946 26.7439 31.3384 26.639 30.224C26.5952 29.76 26.1833 29.4192 25.7198 29.463C25.2559 29.5068 24.9152 29.9182 24.9589 30.3822C25.0745 31.6094 25.1716 32.6444 25.226 33.2253C23.0959 34.6292 23.96 33.973 14.2837 42.107L8.70149 45.8313C7.67327 46.5173 7.26701 47.8014 7.71367 48.954C8.92276 52.0748 8.858 51.9569 9.07274 52.3125H0.84375C0.377789 52.3125 0 52.6903 0 53.1562C0 53.6222 0.377789 54 0.84375 54H53.1562C53.6222 54 54 53.6222 54 53.1562C54 52.6903 53.6222 52.3125 53.1562 52.3125ZM31.4761 17.2927C31.4761 18.0493 30.8317 18.6648 30.0396 18.6648C29.5925 18.6648 29.1543 18.6055 28.7304 18.4908C28.7304 14.0959 28.7013 14.5415 28.7982 14.5265C29.8202 14.3687 30.7456 13.9201 31.4727 13.2735C31.4776 13.3752 31.4761 13.1022 31.4761 17.2927ZM30.7975 11.5299C30.3139 12.1643 29.5966 12.6384 28.746 12.8207C28.7225 12.8257 28.7303 13.0078 28.7303 10.4032C29.5657 10.5049 30.2975 10.9203 30.7975 11.5299ZM38.5642 41.836C37.5547 50.6847 37.8148 48.9779 37.3721 50.7481C37.24 51.2768 37.2755 51.8192 37.464 52.3124H13.7705L13.1821 48.9311L16.4889 46.8251C21.7135 44.0767 25.8099 42.5489 28.7413 41.0927C31.6764 42.0127 31.4355 41.2344 38.5642 41.836ZM24.8463 35.5169C24.8117 37.2243 25.461 39.0706 26.8011 40.149C24.1866 41.3547 20.7267 42.7451 16.5145 44.9098L15.7915 43.0441C22.4176 37.4727 23.8183 36.2635 24.8463 35.5169ZM10.3749 51.1518L9.28705 48.3445C9.12843 47.9351 9.27271 47.479 9.63795 47.2353L14.3799 44.0716L15.0315 45.7528L11.8012 47.81C11.5139 47.993 11.3648 48.3308 11.4232 48.6663L12.0576 52.3125C11.3619 52.3125 10.6601 51.888 10.3749 51.1518ZM39.9111 52.3125C39.3067 52.3125 38.8624 51.7448 39.0093 51.1575C39.4683 49.3215 39.2729 50.5117 39.7853 46.0201H41.7209L40.8534 50.2273C40.7621 50.6702 41.0362 51.1065 41.4751 51.2162C43.6857 51.7691 44.095 51.7582 44.5009 52.3125H39.9111Z" fill="white"/>
<path d="M23.4967 14.5518V20.3503C23.4967 20.9992 23.736 21.6161 24.1619 22.0919C24.2044 22.5099 24.259 23.0662 24.3224 23.7136C24.3676 24.1758 24.779 24.5166 25.2443 24.4712C25.708 24.4257 26.0472 24.013 26.0019 23.5492C25.8045 21.5337 25.8431 21.3848 25.5666 21.1085C25.4758 21.0178 25.1843 20.8086 25.1843 20.3504C25.1843 17.9042 25.1843 11.2317 25.1843 8.83383C25.1843 5.63918 25.393 5.13599 23.1642 2.90733C22.8347 2.57785 22.3005 2.57785 21.9711 2.90733C21.6415 3.23681 21.6415 3.77101 21.9711 4.1005C23.6046 5.734 23.4968 5.83852 23.4968 7.99968C22.5804 8.16727 21.7847 8.80324 21.4638 9.71302C21.0073 11.0093 20.5254 11.8888 21.0984 13.0646C21.5623 14.0165 22.5203 14.5502 23.4967 14.5518ZM22.5755 11.636C23.0642 10.2481 23.0703 9.99388 23.4967 9.76238V12.8625C22.8308 12.8613 22.3629 12.2383 22.5755 11.636Z" fill="white"/>
<path d="M25.3429 26.1599C24.8936 26.2365 24.5611 26.6658 24.6587 27.1693C24.7472 27.6249 25.1883 27.9257 25.6478 27.8368C26.0829 27.7523 26.4007 27.3377 26.3166 26.8496C26.2381 26.3902 25.8016 26.081 25.3429 26.1599Z" fill="white"/>
</g>
</svg>
