<svg xmlns="http://www.w3.org/2000/svg" viewBox="0 0 26.73 36.46"><defs><style>.cls-1{fill:#323e48;}.cls-2{fill:#f4cb19;}</style></defs><g id="Layer_2" data-name="Layer 2"><g id="Layer_1-2" data-name="Layer 1"><path class="cls-1" d="M20,23.09a6.69,6.69,0,1,0,6.69,6.69A6.7,6.7,0,0,0,20,23.09Zm0,12.15a5.47,5.47,0,1,1,5.46-5.46A5.47,5.47,0,0,1,20,35.24Z"/><path class="cls-1" d="M22.71,29.78a.64.64,0,0,1-.64.63h-1.4v1.4a.63.63,0,0,1-1.26,0v-1.4H18a.64.64,0,1,1,0-1.27h1.4v-1.4a.63.63,0,1,1,1.26,0v1.4h1.4A.63.63,0,0,1,22.71,29.78Z"/><path class="cls-2" d="M24.11,13.92A6.91,6.91,0,0,0,23,11.58L19.46,6.76V.61A.61.61,0,0,0,18.84,0H5.43a.6.6,0,0,0-.6.61V6.75L1.27,11.58a6.76,6.76,0,0,0-1,2.18A5.57,5.57,0,0,0,0,15.54V31A3,3,0,0,0,3,34H10.6a.61.61,0,0,0,.6-.62.6.6,0,0,0-.6-.61H3A1.83,1.83,0,0,1,1.21,31V26.86h9.34a.6.6,0,0,0,.61-.6.61.61,0,0,0-.61-.62H1.21v-11l.76.07H23.07v5.61a.61.61,0,1,0,1.21,0V15.53A7.36,7.36,0,0,0,24.11,13.92ZM6,1.22h12.2V6.31H6ZM1.39,13.49l4.37-6H18.52l4.29,6Z"/></g></g></svg>