<svg xmlns="http://www.w3.org/2000/svg" viewBox="0 0 36.47 17.02"><defs><style>.cls-1{fill:#f4cb19;}.cls-2{fill:#323e48;}</style></defs><g id="Layer_2" data-name="Layer 2"><g id="Layer_1-2" data-name="Layer 1"><path class="cls-1" d="M28,0a8.45,8.45,0,0,0-5.52,2.05l-.06,0a17.67,17.67,0,0,1-4.13.57,17.6,17.6,0,0,1-4.13-.57l-.07,0A8.51,8.51,0,1,0,8.52,17,8.45,8.45,0,0,0,14,15l.07,0a17.6,17.6,0,0,1,4.13-.57,17.67,17.67,0,0,1,4.13.57l.06,0A8.51,8.51,0,1,0,28,0ZM13.52,14a6.73,6.73,0,0,1-.58.48c-.18.14-.36.27-.55.39A7.4,7.4,0,1,1,8.52,1.11,7.47,7.47,0,0,1,12.39,2.2a5.23,5.23,0,0,1,.56.4c.22.17.41.32.58.48a7.39,7.39,0,0,1,0,10.87Zm7.21-.48a16.05,16.05,0,0,0-2.49-.22,16.07,16.07,0,0,0-2.5.22l-.34.06.19-.29a8.46,8.46,0,0,0,0-9.44l-.2-.29.35.05a15.81,15.81,0,0,0,2.5.21,16,16,0,0,0,2.5-.21l.34-.05-.2.29a8.46,8.46,0,0,0,0,9.44l.2.29ZM28,15.91a7.41,7.41,0,0,1-3.86-1.09c-.19-.12-.38-.25-.56-.39a6.41,6.41,0,0,1-.58-.49A7.36,7.36,0,0,1,23,3.08c.17-.16.35-.31.58-.49a5.58,5.58,0,0,1,.56-.39A7.4,7.4,0,1,1,28,15.91Z"/><path class="cls-2" d="M11.31,10.89a.48.48,0,0,1-.17.37.62.62,0,0,1-.45.14H7.59A.83.83,0,0,1,7,11.22a.84.84,0,0,1-.18-.6V5.75A.87.87,0,0,1,7,5.19.61.61,0,0,1,7.44,5a.58.58,0,0,1,.46.2.78.78,0,0,1,.17.56v4.63h2.62a.7.7,0,0,1,.46.14A.47.47,0,0,1,11.31,10.89Z"/><path class="cls-2" d="M30.57,10.58a5,5,0,0,0-.37-.73,5.23,5.23,0,0,0-.56-.75,2.26,2.26,0,0,0-.39-.37L29,8.55l.28-.08a2.17,2.17,0,0,0,.91-.53,1.56,1.56,0,0,0,.4-1.12,1.62,1.62,0,0,0-.12-.64,1.47,1.47,0,0,0-.35-.54,1.59,1.59,0,0,0-.51-.36,2,2,0,0,0-.55-.15c-.18,0-.44,0-.74,0H26.24a.81.81,0,0,0-.58.18.8.8,0,0,0-.18.59v4.86a.87.87,0,0,0,.16.58.56.56,0,0,0,.46.19.59.59,0,0,0,.46-.18.9.9,0,0,0,.17-.59v-2h.46a1.37,1.37,0,0,1,.58.1,1,1,0,0,1,.44.34,3.49,3.49,0,0,1,.5.72L29.38,11l.13.2a.84.84,0,0,0,.23.23.54.54,0,0,0,.37.11.71.71,0,0,0,.31-.06.51.51,0,0,0,.2-.18.48.48,0,0,0,.09-.26A1.2,1.2,0,0,0,30.57,10.58Zm-1.9-2.86a3.4,3.4,0,0,1-.78.08H26.73V6h1.2a2.3,2.3,0,0,1,.89.1.87.87,0,0,1,.37.29.86.86,0,0,1,.14.48.81.81,0,0,1-.17.54A.89.89,0,0,1,28.67,7.72Z"/></g></g></svg>