<svg xmlns="http://www.w3.org/2000/svg" viewBox="0 0 36.47 36.47"><defs><style>.cls-1{fill:#f4cb19;}.cls-2{fill:#323e48;}</style></defs><g id="Layer_2" data-name="Layer 2"><g id="Layer_1-2" data-name="Layer 1"><path class="cls-1" d="M18.23,0A18.24,18.24,0,1,0,36.47,18.24,18.26,18.26,0,0,0,18.23,0Zm0,35.21a17,17,0,1,1,17-17A17,17,0,0,1,18.23,35.21Z"/><path class="cls-2" d="M25.77,25.78a.64.64,0,0,1-.89,0L17.6,18.5V8.24a.64.64,0,0,1,.63-.63.63.63,0,0,1,.63.63V18l6.91,6.91A.62.62,0,0,1,25.77,25.78Z"/></g></g></svg>