<svg xmlns="http://www.w3.org/2000/svg" viewBox="0 0 36.47 21.29"><defs><style>.cls-1{fill:#323e48;}.cls-2{fill:#f4cb19;}</style></defs><g id="Layer_2" data-name="Layer 2"><g id="Layer_1-2" data-name="Layer 1"><path class="cls-1" d="M3.28,8.34V13a.61.61,0,0,1-.92.53A.59.59,0,0,1,2.05,13v-1.7H.62A.61.61,0,0,1,.08,11a.62.62,0,0,1,0-.62A.61.61,0,0,1,.62,10H2.05V8.34a.6.6,0,0,1,.17-.44.65.65,0,0,1,.88,0A.63.63,0,0,1,3.28,8.34Z"/><path class="cls-2" d="M6.76,4.3V17a.62.62,0,0,1-.93.53.64.64,0,0,1-.3-.53V4.3a.62.62,0,0,1,.18-.44.65.65,0,0,1,.44-.18.59.59,0,0,1,.43.19A.56.56,0,0,1,6.76,4.3Z"/><path class="cls-2" d="M30.92,4.3V17a.62.62,0,0,1-.3.53.62.62,0,0,1-.93-.53V4.3a.63.63,0,0,1,.19-.44.62.62,0,0,1,.43-.18.63.63,0,0,1,.44.19A.58.58,0,0,1,30.92,4.3Z"/><path class="cls-2" d="M27.44.61V20.67a.59.59,0,0,1-.3.53.62.62,0,0,1-.62,0,.6.6,0,0,1-.31-.53V11.25h-16v9.42a.61.61,0,0,1-.3.53.64.64,0,0,1-.63,0,.61.61,0,0,1-.3-.53V.61A.6.6,0,0,1,9.33.08a.62.62,0,0,1,.62,0,.61.61,0,0,1,.3.53V10h16V.61a.57.57,0,0,1,.18-.43.63.63,0,0,1,.87,0A.6.6,0,0,1,27.44.61Z"/><path class="cls-1" d="M36.39,11a.65.65,0,0,1-.54.3H34.4V13a.6.6,0,0,1-.3.53.62.62,0,0,1-.62,0,.61.61,0,0,1-.31-.53V8.34a.62.62,0,0,1,.31-.54.64.64,0,0,1,.62,0,.61.61,0,0,1,.3.54V10h1.45a.62.62,0,0,1,.53.3A.65.65,0,0,1,36.39,11Z"/></g></g></svg>