<svg xmlns="http://www.w3.org/2000/svg" viewBox="0 0 32.99 36.47"><defs><style>.cls-1{fill:#f4cb19;}.cls-2{fill:#323e48;}</style></defs><g id="Layer_2" data-name="Layer 2"><g id="Layer_1-2" data-name="Layer 1"><path class="cls-1" d="M31.29,2l0,0A5.77,5.77,0,0,0,27,0H6a5.74,5.74,0,0,0-4.3,1.92A6,6,0,0,0,0,6.53l1.9,24.39a6,6,0,0,0,6,5.55H25.05a6,6,0,0,0,6-5.55L33,6.52A5.91,5.91,0,0,0,31.29,2ZM29.83,30.76A4.77,4.77,0,0,1,28.32,34,4.85,4.85,0,0,1,25,35.24H17.11V22.3a.61.61,0,0,0-.31-.53.62.62,0,0,0-.62,0,.6.6,0,0,0-.3.53V35.24H7.94a4.81,4.81,0,0,1-4.79-4.48L1.25,6.37A4.9,4.9,0,0,1,2.54,2.82,4.45,4.45,0,0,1,6,1.23H27a4.51,4.51,0,0,1,3.44,1.63,4.7,4.7,0,0,1,1.26,3.49Z"/><path class="cls-2" d="M17.1,5.54v5a.61.61,0,0,1-.61.61.61.61,0,0,1-.61-.61v-5a.62.62,0,0,1,.61-.61A.61.61,0,0,1,17.1,5.54Z"/><path class="cls-2" d="M11.75,12.82a.62.62,0,0,1-.81-.29L8.84,8a.66.66,0,0,1,0-.46.61.61,0,0,1,.32-.35.58.58,0,0,1,.26,0,.59.59,0,0,1,.55.35L12,12A.61.61,0,0,1,11.75,12.82Z"/><path class="cls-2" d="M24.14,8l-2.09,4.5a.62.62,0,0,1-.81.29.61.61,0,0,1-.3-.81L23,7.52a.63.63,0,0,1,.34-.32.78.78,0,0,1,.21,0,.62.62,0,0,1,.26.06.6.6,0,0,1,.31.35A.57.57,0,0,1,24.14,8Z"/></g></g></svg>