<svg xmlns="http://www.w3.org/2000/svg" viewBox="0 0 36.47 19.72"><defs><style>.cls-1{fill:#f4cb19;}.cls-2{fill:#323e48;}</style></defs><g id="Layer_2" data-name="Layer 2"><g id="Layer_1-2" data-name="Layer 1"><path class="cls-1" d="M35.84,9,30,.89A2,2,0,0,0,28.48,0a2,2,0,0,0-1.6.62l-1.35,1.4a.62.62,0,0,0,0,.87.63.63,0,0,0,.87,0l1.35-1.4a.85.85,0,0,1,.65-.24A.8.8,0,0,1,29,1.6l4.4,6.11H22.15a3.27,3.27,0,0,0-2.29,1,3.53,3.53,0,0,0-.56.77l0,.08H17.21l-.05-.08a3.19,3.19,0,0,0-2.84-1.72H3.15L7.48,1.56a.84.84,0,0,1,.59-.32h.06a.83.83,0,0,1,.57.22L10.22,3a.64.64,0,0,0,.45.17.6.6,0,0,0,.59-.62.58.58,0,0,0-.18-.43L9.56.57A2,2,0,0,0,6.49.86L1,8.59l-.08.07A3.2,3.2,0,0,0,0,11a8.76,8.76,0,0,0,15,6.19,8.71,8.71,0,0,0,2.57-6.21v-.19h1.39V11a8.77,8.77,0,0,0,17.54,0A3.19,3.19,0,0,0,35.84,9ZM14.09,16.28a7.47,7.47,0,0,1-5.32,2.2,7.56,7.56,0,0,1-5.34-2.22,7.48,7.48,0,0,1-2.2-5.33,2,2,0,0,1,2-2h11.1a2,2,0,0,1,2,2A7.5,7.5,0,0,1,14.09,16.28Zm18.93,0a7.54,7.54,0,0,1-12.86-5.35,2,2,0,0,1,.58-1.41,2,2,0,0,1,1.41-.58h11.1a2,2,0,0,1,2,2A7.5,7.5,0,0,1,33,16.28Z"/><path class="cls-2" d="M31.41,14.7a.63.63,0,0,1-.86-.16.61.61,0,0,1,.17-.85,3.38,3.38,0,0,0,1.37-1.54l.08-.2H26.78a.62.62,0,0,1-.62-.62.61.61,0,0,1,.62-.61h6a.61.61,0,0,1,.6.47C33.41,11.26,33.82,13.08,31.41,14.7Z"/><path class="cls-2" d="M14.26,11.33a.62.62,0,0,1-.61.62h-6A.61.61,0,0,1,7,11.33a.61.61,0,0,1,.61-.61h6A.61.61,0,0,1,14.26,11.33Z"/></g></g></svg>