<svg xmlns="http://www.w3.org/2000/svg" viewBox="0 0 172.11 67.29"><defs><style>.cls-1,.cls-2,.cls-4{fill:none;stroke-miterlimit:10;}.cls-1{stroke:#f4cb19;}.cls-2,.cls-4{stroke:#323e48;}.cls-2{stroke-width:0.75px;stroke-dasharray:5.55 5.55;}.cls-3{fill:#323e48;}</style></defs><g id="Layer_2" data-name="Layer 2"><g id="Layer_1-2" data-name="Layer 1"><path class="cls-1" d="M40.15,66.79A32.51,32.51,0,1,1,72.66,34.28,32.5,32.5,0,0,1,40.15,66.79Z"/><path class="cls-2" d="M72.49,10.11a39.85,39.85,0,0,1-.8,47.67"/><polygon class="cls-3" points="71.54 55.81 71.8 57.59 73.58 57.33 72.93 58.19 71.15 58.45 70.89 56.67 71.54 55.81"/><path class="cls-2" d="M7.9,58.45a39.85,39.85,0,0,1,.8-47.67"/><polygon class="cls-3" points="8.85 12.76 8.59 10.98 6.81 11.24 7.46 10.37 9.23 10.11 9.49 11.89 8.85 12.76"/><path class="cls-4" d="M57,40.72C51,40.72,46,36.3,44.49,34.78a.7.7,0,0,1,0-1C46,32.27,51,27.84,57,27.84s11,4.43,12.49,5.94a.7.7,0,0,1,0,1C67.93,36.3,62.92,40.72,57,40.72Z"/><path class="cls-3" d="M53.7,29.1A5.19,5.19,0,1,1,50,30.62,5.15,5.15,0,0,1,53.7,29.1m0-1a6.18,6.18,0,1,0,4.37,1.81A6.16,6.16,0,0,0,53.7,28.1Z"/><circle class="cls-3" cx="51.55" cy="32.13" r="3.13"/><path class="cls-4" d="M23.33,40.72c-5.94,0-10.95-4.42-12.49-5.94a.7.7,0,0,1,0-1c1.54-1.51,6.55-5.94,12.49-5.94s11,4.43,12.49,5.94a.7.7,0,0,1,0,1C34.28,36.3,29.27,40.72,23.33,40.72Z"/><path class="cls-3" d="M20.05,29.1a5.19,5.19,0,1,1-3.66,1.52,5.15,5.15,0,0,1,3.66-1.52m0-1a6.18,6.18,0,1,0,4.37,1.81,6.16,6.16,0,0,0-4.37-1.81Z"/><circle class="cls-3" cx="17.9" cy="32.13" r="3.13"/><circle class="cls-3" cx="40.15" cy="1.77" r="1.77"/><path class="cls-1" d="M131.92,66.79a32.51,32.51,0,1,1,32.51-32.51A32.5,32.5,0,0,1,131.92,66.79Z"/><path class="cls-2" d="M164.71,10.81a39.83,39.83,0,0,1-1.83,47.64"/><polygon class="cls-3" points="164.47 12.77 164.82 11.01 166.58 11.36 165.98 10.46 164.22 10.11 163.87 11.88 164.47 12.77"/><path class="cls-2" d="M99.13,57.75A39.83,39.83,0,0,1,101,10.11"/><polygon class="cls-3" points="99.37 55.79 99.02 57.55 97.26 57.2 97.86 58.1 99.62 58.45 99.97 56.69 99.37 55.79"/><path class="cls-4" d="M115.09,27.84c6.09,0,11.19,4.64,12.6,6a.57.57,0,0,1,0,.8c-1.41,1.41-6.51,6-12.6,6s-11.19-4.64-12.59-6a.56.56,0,0,1,0-.79C103.9,32.48,109,27.84,115.09,27.84Z"/><path class="cls-3" d="M118.37,29.1a5.19,5.19,0,1,1-3.66,1.52,5.15,5.15,0,0,1,3.66-1.52m0-1a6.18,6.18,0,1,0,4.37,1.81,6.16,6.16,0,0,0-4.37-1.81Z"/><circle class="cls-3" cx="120.53" cy="36.44" r="3.13"/><path class="cls-4" d="M148.75,27.84c6.08,0,11.18,4.64,12.59,6a.57.57,0,0,1,0,.8c-1.41,1.41-6.51,6-12.59,6s-11.2-4.64-12.6-6a.56.56,0,0,1,0-.79C137.55,32.48,142.66,27.84,148.75,27.84Z"/><path class="cls-3" d="M152,29.1a5.19,5.19,0,1,1-3.66,1.52A5.15,5.15,0,0,1,152,29.1m0-1a6.18,6.18,0,1,0,4.37,1.81A6.16,6.16,0,0,0,152,28.1Z"/><circle class="cls-3" cx="154.18" cy="36.44" r="3.13"/><circle class="cls-3" cx="131.92" cy="1.77" r="1.77"/></g></g></svg>