<svg xmlns="http://www.w3.org/2000/svg" viewBox="0 0 131.52 56.32"><defs><style>.cls-1,.cls-3,.cls-4{fill:none;stroke-miterlimit:10;}.cls-1,.cls-3{stroke:#323e48;}.cls-2{fill:#323e48;}.cls-3{stroke-width:0.75px;stroke-dasharray:5.55 5.55;}.cls-4{stroke:#f4cb19;}</style></defs><g id="Layer_2" data-name="Layer 2"><g id="Layer_1-2" data-name="Layer 1"><path class="cls-1" d="M16,15.88A24.25,24.25,0,0,1,20,20.76a16,16,0,0,1,2.52,8.1,16.49,16.49,0,0,1-3.09,9,23.27,23.27,0,0,1-3.35,4"/><path class="cls-1" d="M19.26,37.84a17.15,17.15,0,0,1-2.89-9,16.91,16.91,0,0,1,2.33-8.1c.33-.56.56-.88.56-.88"/><path class="cls-1" d="M19.26,10,.67,28.56a.55.55,0,0,0,0,.8l18.4,18.4"/><path class="cls-2" d="M22.47,28.86a16.56,16.56,0,0,1-3.08,9h-.13a17.15,17.15,0,0,1-2.89-9,16.91,16.91,0,0,1,2.33-8.1H20A16,16,0,0,1,22.47,28.86Z"/><line class="cls-3" x1="31.07" y1="28.86" x2="102.88" y2="50.02"/><polygon class="cls-2" points="101.09 50.81 102.67 49.95 101.81 48.37 102.84 48.68 103.7 50.26 102.12 51.12 101.09 50.81"/><line class="cls-3" x1="31.07" y1="28.86" x2="102.88" y2="7.9"/><polygon class="cls-2" points="101.8 9.53 102.67 7.96 101.09 7.09 102.12 6.79 103.7 7.66 102.84 9.23 101.8 9.53"/><line class="cls-1" x1="84.52" y1="0.5" x2="131.52" y2="0.5"/><line class="cls-1" x1="84.52" y1="55.82" x2="131.52" y2="55.82"/><path class="cls-4" d="M109.56,6.11a37.64,37.64,0,0,1,0,45.7"/><circle class="cls-2" cx="109.36" cy="51.7" r="1.77"/><circle class="cls-2" cx="109.36" cy="6.02" r="1.77"/></g></g></svg>