<svg xmlns="http://www.w3.org/2000/svg" viewBox="0 0 63.6 53.22"><defs><style>.cls-1,.cls-3,.cls-4{fill:none;stroke-miterlimit:10;}.cls-1{stroke:#f4cb19;}.cls-2{fill:#323e48;}.cls-3,.cls-4{stroke:#323e48;}.cls-3{stroke-width:0.75px;stroke-dasharray:5 5;}</style></defs><g id="Layer_2" data-name="Layer 2"><g id="Layer_1-2" data-name="Layer 1"><line class="cls-1" x1="31.8" y1="53.22" x2="31.8" y2="37.59"/><circle class="cls-2" cx="31.8" cy="36.73" r="1.77"/><line class="cls-3" x1="40.9" y1="13.14" x2="63.1" y2="0.32"/><polygon class="cls-2" points="42.83 13.5 41.09 13.03 41.56 11.29 40.62 11.84 40.16 13.57 41.9 14.04 42.83 13.5"/><line class="cls-3" x1="22.7" y1="13.14" x2="0.5" y2="0.32"/><polygon class="cls-2" points="22.04 11.29 22.51 13.03 20.77 13.5 21.71 14.04 23.44 13.57 22.98 11.84 22.04 11.29"/><path class="cls-4" d="M50.34,33.21c-6.08,0-11.18-4.63-12.59-6a.57.57,0,0,1,0-.8c1.41-1.4,6.51-6,12.59-6s11.19,4.64,12.59,6a.55.55,0,0,1,0,.8C61.53,28.58,56.42,33.21,50.34,33.21Z"/><path class="cls-2" d="M47.07,21.59a5.19,5.19,0,1,1-5.19,5.18,5.19,5.19,0,0,1,5.19-5.18m0-1a6.19,6.19,0,1,0,6.18,6.18,6.19,6.19,0,0,0-6.18-6.18Z"/><circle class="cls-2" cx="44.02" cy="27.77" r="3.13"/><path class="cls-4" d="M13.26,20.33c6.08,0,11.18,4.64,12.59,6a.55.55,0,0,1,0,.8c-1.41,1.41-6.51,6-12.59,6S2.08,28.58.67,27.17a.55.55,0,0,1,0-.8C2.08,25,7.18,20.33,13.26,20.33Z"/><path class="cls-2" d="M16.54,21.59a5.19,5.19,0,1,1-5.19,5.18,5.19,5.19,0,0,1,5.19-5.18m0-1a6.19,6.19,0,1,0,6.18,6.18,6.19,6.19,0,0,0-6.18-6.18Z"/><circle class="cls-2" cx="19.58" cy="27.77" r="3.13"/></g></g></svg>