<svg xmlns="http://www.w3.org/2000/svg" viewBox="0 0 141.31 52.9"><defs><style>.cls-1,.cls-3,.cls-4{fill:none;stroke:#323e48;stroke-miterlimit:10;}.cls-1{stroke-width:0.75px;stroke-dasharray:5.55 5.55;}.cls-2{fill:#323e48;}.cls-4{stroke-linecap:round;}</style></defs><g id="Layer_2" data-name="Layer 2"><g id="Layer_1-2" data-name="Layer 1"><line class="cls-1" x1="30.03" y1="37.89" x2="30.03" y2="52.04"/><polygon class="cls-2" points="28.75 50.54 30.03 51.82 31.3 50.54 31.3 51.62 30.03 52.9 28.75 51.62 28.75 50.54"/><line class="cls-1" x1="30.03" y1="15.01" x2="30.03" y2="0.86"/><polygon class="cls-2" points="31.3 2.35 30.03 1.08 28.75 2.35 28.75 1.27 30.03 0 31.3 1.27 31.3 2.35"/><line class="cls-1" x1="111.23" y1="52.9" x2="111.23" y2="38.74"/><polygon class="cls-2" points="112.5 40.24 111.23 38.97 109.96 40.24 109.96 39.16 111.23 37.89 112.5 39.16 112.5 40.24"/><line class="cls-1" x1="111.23" x2="111.23" y2="14.15"/><polygon class="cls-2" points="109.96 12.66 111.23 13.93 112.5 12.66 112.5 13.74 111.23 15.01 109.96 13.74 109.96 12.66"/><path class="cls-3" d="M13.26,20c6.08,0,11.18,4.63,12.59,6a.55.55,0,0,1,0,.8c-1.41,1.4-6.51,6-12.59,6S2.08,28.25.67,26.85a.55.55,0,0,1,0-.8C2.08,24.64,7.18,20,13.26,20Z"/><path class="cls-2" d="M13.26,21.26A5.19,5.19,0,1,1,9.6,22.78a5.13,5.13,0,0,1,3.66-1.52m0-1a6.19,6.19,0,1,0,4.37,1.82,6.17,6.17,0,0,0-4.37-1.82Z"/><circle class="cls-2" cx="13.26" cy="26.45" r="3.13"/><path class="cls-3" d="M46.91,20c6.08,0,11.18,4.63,12.59,6a.55.55,0,0,1,0,.8c-1.41,1.4-6.51,6-12.59,6s-11.18-4.64-12.59-6a.55.55,0,0,1,0-.8C35.73,24.64,40.83,20,46.91,20Z"/><path class="cls-2" d="M46.91,21.26a5.19,5.19,0,1,1-3.66,1.52,5.17,5.17,0,0,1,3.66-1.52m0-1a6.19,6.19,0,1,0,4.37,1.82,6.17,6.17,0,0,0-4.37-1.82Z"/><circle class="cls-2" cx="46.91" cy="26.45" r="3.13"/><path class="cls-4" d="M107.6,26.45s-5.81,6.44-13,6.44-13-6.44-13-6.44"/><line class="cls-4" x1="94.62" y1="32.89" x2="94.62" y2="36.07"/><line class="cls-4" x1="100.53" y1="31.7" x2="101.87" y2="34.58"/><line class="cls-4" x1="88.72" y1="31.7" x2="87.38" y2="34.58"/><line class="cls-4" x1="105.34" y1="28.65" x2="107.15" y2="30.8"/><line class="cls-4" x1="83.91" y1="28.65" x2="82.1" y2="30.8"/><path class="cls-4" d="M140.81,26.45s-5.81,6.44-13,6.44-13-6.44-13-6.44"/><line class="cls-4" x1="127.83" y1="32.89" x2="127.83" y2="36.07"/><line class="cls-4" x1="133.74" y1="31.7" x2="135.08" y2="34.58"/><line class="cls-4" x1="121.93" y1="31.7" x2="120.59" y2="34.58"/><line class="cls-4" x1="138.55" y1="28.65" x2="140.36" y2="30.8"/><line class="cls-4" x1="117.12" y1="28.65" x2="115.31" y2="30.8"/></g></g></svg>