<svg xmlns="http://www.w3.org/2000/svg" viewBox="0 0 158.91 53.56"><defs><style>.cls-1,.cls-3,.cls-4,.cls-5{fill:none;stroke-miterlimit:10;}.cls-1{stroke:#f4cb19;}.cls-2{fill:#323e48;}.cls-3,.cls-4,.cls-5{stroke:#323e48;}.cls-3,.cls-4{stroke-width:0.75px;}.cls-4{stroke-dasharray:4.95 4.95;}</style></defs><g id="Layer_2" data-name="Layer 2"><g id="Layer_1-2" data-name="Layer 1"><line class="cls-1" x1="3.13" y1="26.78" x2="155.73" y2="26.78"/><circle class="cls-2" cx="155.72" cy="26.78" r="1.77"/><circle class="cls-2" cx="3.13" cy="26.78" r="1.77"/><line class="cls-3" x1="157.5" y1="46.62" x2="155" y2="46.62"/><line class="cls-4" x1="150.05" y1="46.62" x2="93.17" y2="46.62"/><line class="cls-3" x1="90.7" y1="46.62" x2="88.2" y2="46.62"/><polygon class="cls-2" points="156 45.35 157.28 46.62 156 47.9 157.08 47.9 158.35 46.62 157.08 45.35 156 45.35"/><line class="cls-3" x1="1.36" y1="6.94" x2="3.86" y2="6.94"/><line class="cls-4" x1="8.8" y1="6.94" x2="65.68" y2="6.94"/><line class="cls-3" x1="68.16" y1="6.94" x2="70.66" y2="6.94"/><polygon class="cls-2" points="2.85 8.21 1.58 6.94 2.85 5.67 1.77 5.67 0.5 6.94 1.77 8.21 2.85 8.21"/><path class="cls-5" d="M145.65,13.38c-6.08,0-11.18-4.64-12.59-6a.57.57,0,0,1,0-.8c1.41-1.41,6.51-6,12.59-6s11.19,4.63,12.6,6a.57.57,0,0,1,0,.8C156.84,8.74,151.73,13.38,145.65,13.38Z"/><path class="cls-2" d="M142.38,1.76a5.18,5.18,0,1,1-5.19,5.18,5.19,5.19,0,0,1,5.19-5.18m0-1a6.18,6.18,0,1,0,6.18,6.18A6.18,6.18,0,0,0,142.38.76Z"/><circle class="cls-2" cx="139.33" cy="6.94" r="3.13"/><path class="cls-5" d="M112,13.38c-6.08,0-11.18-4.64-12.59-6a.57.57,0,0,1,0-.8c1.41-1.41,6.51-6,12.59-6s11.19,4.63,12.6,6a.57.57,0,0,1,0,.8C123.19,8.74,118.08,13.38,112,13.38Z"/><path class="cls-2" d="M108.73,1.76a5.18,5.18,0,1,1-5.19,5.18,5.19,5.19,0,0,1,5.19-5.18m0-1a6.18,6.18,0,1,0,6.18,6.18A6.18,6.18,0,0,0,108.73.76Z"/><circle class="cls-2" cx="105.68" cy="6.94" r="3.13"/><path class="cls-5" d="M13.2,40.19c5.94,0,11,4.42,12.49,5.93a.71.71,0,0,1,0,1c-1.54,1.51-6.55,5.93-12.49,5.93S2.25,48.64.71,47.13a.71.71,0,0,1,0-1C2.25,44.61,7.26,40.19,13.2,40.19Z"/><path class="cls-2" d="M16.48,41.44a5.19,5.19,0,1,1-5.19,5.18,5.19,5.19,0,0,1,5.19-5.18m0-1a6.19,6.19,0,1,0,6.18,6.18,6.19,6.19,0,0,0-6.18-6.18Z"/><circle class="cls-2" cx="19.53" cy="46.62" r="3.13"/><path class="cls-5" d="M46.85,40.19c5.94,0,10.95,4.42,12.49,5.93a.71.71,0,0,1,0,1c-1.54,1.51-6.55,5.93-12.49,5.93s-11-4.42-12.49-5.93a.71.71,0,0,1,0-1C35.9,44.61,40.91,40.19,46.85,40.19Z"/><path class="cls-2" d="M50.13,41.44A5.19,5.19,0,1,1,45,46.62a5.19,5.19,0,0,1,5.18-5.18m0-1a6.19,6.19,0,1,0,6.18,6.18,6.18,6.18,0,0,0-6.18-6.18Z"/><circle class="cls-2" cx="53.18" cy="46.62" r="3.13"/></g></g></svg>