<svg xmlns="http://www.w3.org/2000/svg" viewBox="0 0 117.97 58.42"><defs><style>.cls-1,.cls-3{fill:none;stroke-miterlimit:10;}.cls-1{stroke:#323e48;}.cls-2{fill:#323e48;}.cls-3{stroke:#f4cb19;}</style></defs><g id="Layer_2" data-name="Layer 2"><g id="Layer_1-2" data-name="Layer 1"><polygon class="cls-1" points="117.47 57.87 65.36 52.87 65.36 5.55 117.47 0.55 117.47 57.87"/><line class="cls-1" x1="82.25" y1="20.78" x2="82.25" y2="54.93"/><path class="cls-1" d="M82.25,42.58s-.8-5.53-9.56-8.53"/><path class="cls-1" d="M82.25,36.8s.81-7.63,9.57-10.63"/><ellipse class="cls-1" cx="82.25" cy="31.54" rx="13.2" ry="15.19"/><path class="cls-1" d="M16,17.93A24.25,24.25,0,0,1,20,22.81a16,16,0,0,1,2.52,8.1,16.49,16.49,0,0,1-3.09,9,23.27,23.27,0,0,1-3.35,4"/><path class="cls-1" d="M19.26,39.89a17.15,17.15,0,0,1-2.89-9,16.91,16.91,0,0,1,2.33-8.1c.33-.56.56-.88.56-.88"/><path class="cls-1" d="M19.26,12,.67,30.61a.55.55,0,0,0,0,.8l18.4,18.4"/><path class="cls-2" d="M22.47,30.91a16.56,16.56,0,0,1-3.08,9h-.13a17.15,17.15,0,0,1-2.89-9,16.91,16.91,0,0,1,2.33-8.1H20A16,16,0,0,1,22.47,30.91Z"/><line class="cls-3" x1="27.36" y1="28.01" x2="73.56" y2="19.47"/><line class="cls-3" x1="27.36" y1="34.54" x2="112.09" y2="41.29"/><circle class="cls-2" cx="73.56" cy="19.47" r="1.77"/><circle class="cls-2" cx="112.09" cy="41.29" r="1.77"/></g></g></svg>