<svg xmlns="http://www.w3.org/2000/svg" viewBox="0 0 159.03 80.49"><defs><style>.cls-1,.cls-3,.cls-4,.cls-5,.cls-6{fill:none;stroke-miterlimit:10;}.cls-1{stroke:#f4cb19;}.cls-2{fill:#323e48;}.cls-3,.cls-4,.cls-5,.cls-6{stroke:#323e48;}.cls-3,.cls-4,.cls-5{stroke-width:0.75px;}.cls-4{stroke-dasharray:5.6 5.6;}.cls-5{stroke-dasharray:5.66 5.66;}</style></defs><g id="Layer_2" data-name="Layer 2"><g id="Layer_1-2" data-name="Layer 1"><polygon class="cls-1" points="53.94 22.34 53.94 52.65 104.45 22.34 104.45 52.65 53.94 22.34"/><circle class="cls-2" cx="79.2" cy="37.5" r="1.77"/><circle class="cls-2" cx="104.45" cy="22.34" r="1.77"/><circle class="cls-2" cx="104.45" cy="52.65" r="1.77"/><circle class="cls-2" cx="53.94" cy="22.34" r="1.77"/><circle class="cls-2" cx="53.94" cy="52.65" r="1.77"/><line class="cls-3" x1="44.02" y1="21.43" x2="44.02" y2="23.93"/><line class="cls-4" x1="44.02" y1="29.53" x2="44.02" y2="49.12"/><line class="cls-3" x1="44.02" y1="51.92" x2="44.02" y2="54.42"/><polygon class="cls-2" points="42.75 22.92 44.02 21.65 45.29 22.92 45.29 21.84 44.02 20.57 42.75 21.84 42.75 22.92"/><line class="cls-3" x1="60.35" y1="61.07" x2="62.49" y2="59.78"/><line class="cls-5" x1="67.34" y1="56.87" x2="74.63" y2="52.5"/><line class="cls-3" x1="77.05" y1="51.05" x2="79.2" y2="49.76"/><polygon class="cls-2" points="62.28 61.39 60.54 60.96 60.97 59.21 60.05 59.77 59.61 61.51 61.36 61.95 62.28 61.39"/><path class="cls-6" d="M46.91,67.11c-6.08,0-11.18,4.63-12.59,6a.55.55,0,0,0,0,.8c1.41,1.4,6.51,6,12.59,6s11.18-4.64,12.59-6a.55.55,0,0,0,0-.8C58.09,71.74,53,67.11,46.91,67.11Z"/><path class="cls-2" d="M43.63,68.37A5.18,5.18,0,1,1,40,69.88a5.14,5.14,0,0,1,3.66-1.51m0-1A6.18,6.18,0,1,0,48,69.18a6.16,6.16,0,0,0-4.38-1.81Z"/><circle class="cls-2" cx="41.48" cy="75.7" r="3.13"/><path class="cls-6" d="M13.26,67.11c-6.08,0-11.18,4.63-12.59,6a.55.55,0,0,0,0,.8c1.41,1.4,6.51,6,12.59,6s11.18-4.64,12.59-6a.55.55,0,0,0,0-.8C24.44,71.74,19.34,67.11,13.26,67.11Z"/><path class="cls-2" d="M10,68.37a5.18,5.18,0,1,1-3.66,1.51A5.14,5.14,0,0,1,10,68.37m0-1a6.18,6.18,0,1,0,4.38,1.81A6.16,6.16,0,0,0,10,67.37Z"/><circle class="cls-2" cx="7.83" cy="75.7" r="3.13"/><path class="cls-6" d="M112.12,13.38c6.08,0,11.18-4.64,12.59-6a.55.55,0,0,0,0-.8c-1.41-1.41-6.51-6-12.59-6s-11.18,4.63-12.59,6a.55.55,0,0,0,0,.8C100.94,8.74,106,13.38,112.12,13.38Z"/><path class="cls-2" d="M115.4,1.76a5.18,5.18,0,1,1-3.67,1.51,5.18,5.18,0,0,1,3.67-1.51m0-1a6.18,6.18,0,1,0,4.37,1.81A6.16,6.16,0,0,0,115.4.76Z"/><circle class="cls-2" cx="117.55" cy="4.78" r="3.13"/><path class="cls-6" d="M145.77,13.38c6.08,0,11.18-4.64,12.59-6a.55.55,0,0,0,0-.8c-1.41-1.41-6.51-6-12.59-6s-11.18,4.63-12.59,6a.55.55,0,0,0,0,.8C134.59,8.74,139.69,13.38,145.77,13.38Z"/><path class="cls-2" d="M149.05,1.76a5.18,5.18,0,1,1-3.67,1.51,5.18,5.18,0,0,1,3.67-1.51m0-1a6.18,6.18,0,0,0-4.37,10.55,6.18,6.18,0,0,0,8.74,0A6.18,6.18,0,0,0,149.05.76Z"/><circle class="cls-2" cx="151.2" cy="4.78" r="3.13"/></g></g></svg>