<svg xmlns="http://www.w3.org/2000/svg" viewBox="0 0 178.87 64.99"><defs><style>.cls-1,.cls-3,.cls-4{fill:none;stroke-miterlimit:10;}.cls-1{stroke:#f4cb19;}.cls-2{fill:#323e48;}.cls-3,.cls-4{stroke:#323e48;}.cls-3{stroke-width:0.75px;stroke-dasharray:5 5;}</style></defs><g id="Layer_2" data-name="Layer 2"><g id="Layer_1-2" data-name="Layer 1"><line class="cls-1" x1="89.43" y1="62.36" x2="89.43" y2="2.63"/><circle class="cls-2" cx="89.43" cy="1.77" r="1.77"/><circle class="cls-2" cx="89.43" cy="63.22" r="1.77"/><line class="cls-3" x1="99.36" y1="64.13" x2="99.36" y2="32.49"/><polygon class="cls-2" points="100.63 62.64 99.36 63.91 98.08 62.64 98.08 63.72 99.36 64.99 100.63 63.72 100.63 62.64"/><line class="cls-3" x1="79.51" y1="0.86" x2="79.51" y2="32.49"/><polygon class="cls-2" points="78.24 2.35 79.51 1.08 80.78 2.35 80.78 1.27 79.51 0 78.24 1.27 78.24 2.35"/><path class="cls-4" d="M46.91,38.93c-6.08,0-11.18-4.63-12.59-6a.55.55,0,0,1,0-.8c1.41-1.4,6.51-6,12.59-6s11.18,4.64,12.59,6a.55.55,0,0,1,0,.8C58.09,34.3,53,38.93,46.91,38.93Z"/><path class="cls-2" d="M46.91,27.05a5.19,5.19,0,1,1-5.18,5.19,5.19,5.19,0,0,1,5.18-5.19m0-1a6.19,6.19,0,1,0,6.18,6.19,6.19,6.19,0,0,0-6.18-6.19Z"/><circle class="cls-2" cx="46.91" cy="29.19" r="3.13"/><path class="cls-4" d="M13.26,38.93c-6.08,0-11.18-4.63-12.59-6a.55.55,0,0,1,0-.8c1.41-1.4,6.51-6,12.59-6s11.18,4.64,12.59,6a.55.55,0,0,1,0,.8C24.44,34.3,19.34,38.93,13.26,38.93Z"/><path class="cls-2" d="M13.26,27.05a5.19,5.19,0,1,1-5.18,5.19,5.19,5.19,0,0,1,5.18-5.19m0-1a6.19,6.19,0,1,0,6.18,6.19,6.19,6.19,0,0,0-6.18-6.19Z"/><circle class="cls-2" cx="13.26" cy="29.19" r="3.13"/><path class="cls-4" d="M132,26.05c6.08,0,11.18,4.64,12.59,6a.57.57,0,0,1,0,.8c-1.41,1.41-6.51,6-12.59,6s-11.19-4.63-12.59-6a.55.55,0,0,1,0-.8C120.77,30.69,125.88,26.05,132,26.05Z"/><path class="cls-2" d="M132,27.57a5.18,5.18,0,1,1-5.19,5.18A5.18,5.18,0,0,1,132,27.57m0-1a6.18,6.18,0,1,0,6.18,6.18A6.19,6.19,0,0,0,132,26.57Z"/><circle class="cls-2" cx="131.96" cy="35.8" r="3.13"/><path class="cls-4" d="M165.61,26.05c6.08,0,11.18,4.64,12.59,6a.57.57,0,0,1,0,.8c-1.41,1.41-6.51,6-12.59,6s-11.19-4.63-12.59-6a.55.55,0,0,1,0-.8C154.42,30.69,159.53,26.05,165.61,26.05Z"/><path class="cls-2" d="M165.61,27.57a5.18,5.18,0,1,1-5.18,5.18,5.18,5.18,0,0,1,5.18-5.18m0-1a6.18,6.18,0,1,0,6.18,6.18,6.18,6.18,0,0,0-6.18-6.18Z"/><circle class="cls-2" cx="165.61" cy="35.8" r="3.13"/></g></g></svg>