<svg xmlns="http://www.w3.org/2000/svg" viewBox="0 0 29.41 36.35"><defs><style>.cls-1{fill:#f4cb19;}.cls-2{fill:#323e48;}</style></defs><g id="Layer_2" data-name="Layer 2"><g id="Layer_1-2" data-name="Layer 1"><path class="cls-1" d="M13.4,13A19.55,19.55,0,0,1,11,3.66V1.22h1.43a.61.61,0,0,0,.62-.61A.62.62,0,0,0,12.45,0h-9a.61.61,0,0,0-.61.61.61.61,0,0,0,.61.61H4.9V3.66A19.55,19.55,0,0,1,2.52,13,20.74,20.74,0,0,0,0,22.88V34.1a2.24,2.24,0,0,0,2.24,2.25H13.68a2.25,2.25,0,0,0,2.25-2.25V22.88A20.58,20.58,0,0,0,13.4,13ZM6.11,3.86a1.41,1.41,0,0,0,0-.2V1.22H9.8V3.76a.45.45,0,0,1,0,.12v.2H6.11ZM14.7,34.11a1,1,0,0,1-1,1H2.24a1,1,0,0,1-1-1V22.88c0-.24,0-.5,0-.74l0-.36.16-1.59A19.41,19.41,0,0,1,3.6,13.57,20.88,20.88,0,0,0,6,5.5V5.31H9.89v.2a20.83,20.83,0,0,0,2.44,8.06,19.63,19.63,0,0,1,2.18,6.62l.16,1.6s0,.77,0,1.09Z"/><path class="cls-1" d="M27.16,7.35H21.44A2.24,2.24,0,0,0,19.2,9.6v11a5.12,5.12,0,0,0,4.31,5l.18,0v9.43H21.44a.61.61,0,1,0,0,1.22h5.72a.61.61,0,1,0,0-1.22H24.91V25.7l.17,0a5.14,5.14,0,0,0,4.33-5V9.6A2.25,2.25,0,0,0,27.16,7.35Zm1,13.27a3.88,3.88,0,1,1-7.76,0V9.6a1,1,0,0,1,1-1h5.72a1,1,0,0,1,1,1Z"/><path class="cls-2" d="M12.3,26.11a.61.61,0,0,1-.61.61H4.24a.6.6,0,0,1-.43-.18.64.64,0,0,1-.18-.43.61.61,0,0,1,.61-.61h7.45A.61.61,0,0,1,12.3,26.11Z"/><path class="cls-2" d="M12.3,30.15a.61.61,0,0,1-.61.61H4.24a.6.6,0,0,1-.43-.18.62.62,0,0,1-.18-.43.61.61,0,0,1,.61-.61h7.45A.61.61,0,0,1,12.3,30.15Z"/></g></g></svg>