<svg xmlns="http://www.w3.org/2000/svg" viewBox="0 0 32.35 36.47"><defs><style>.cls-1{fill:#323e48;}.cls-2{fill:#f4cb19;}</style></defs><g id="Layer_2" data-name="Layer 2"><g id="Layer_1-2" data-name="Layer 1"><path class="cls-1" d="M15.64,8.09A4.11,4.11,0,0,1,14.43,11a.63.63,0,0,1-.44.18h0a.6.6,0,0,1-.43-.18.6.6,0,0,1-.19-.44.61.61,0,0,1,.19-.44,2.87,2.87,0,0,0,.84-2A3,3,0,0,0,13.55,6a4.08,4.08,0,0,1-1.22-2.92A4.14,4.14,0,0,1,13.55.18.6.6,0,0,1,14,0a.67.67,0,0,1,.44.18.67.67,0,0,1,.18.44.64.64,0,0,1-.18.45,2.83,2.83,0,0,0-.85,2,2.85,2.85,0,0,0,.85,2.05A4.13,4.13,0,0,1,15.64,8.09Z"/><path class="cls-1" d="M9.59,8.8A3,3,0,0,1,8.67,11a.58.58,0,0,1-.42.18A.66.66,0,0,1,7.8,11a.63.63,0,0,1-.18-.44.65.65,0,0,1,.18-.44,1.87,1.87,0,0,0,0-2.67A3.13,3.13,0,0,1,7.79,3a.66.66,0,0,1,.45-.18A.62.62,0,0,1,8.68,3a.62.62,0,0,1,0,.88,1.91,1.91,0,0,0,0,2.67A3.06,3.06,0,0,1,9.59,8.8Z"/><path class="cls-1" d="M21.09,8.8A3.12,3.12,0,0,1,20.17,11a.66.66,0,0,1-.87,0,.61.61,0,0,1,0-.88,1.92,1.92,0,0,0,0-2.67A3.11,3.11,0,0,1,19.3,3a.58.58,0,0,1,.43-.18.61.61,0,0,1,.62.62.62.62,0,0,1-.18.44,1.89,1.89,0,0,0-.54,1.33,1.93,1.93,0,0,0,.54,1.34A3.1,3.1,0,0,1,21.09,8.8Z"/><path class="cls-2" d="M31.52,20a3.92,3.92,0,0,0-3.09-1.51h-.65l0-.36c.07-.63.12-1.22.15-1.76a2.35,2.35,0,0,0-.61-1.71,2.28,2.28,0,0,0-1.67-.71H2.29A2.28,2.28,0,0,0,0,16.33a44.59,44.59,0,0,0,1.57,9.15,12.9,12.9,0,0,0,3.66,5.93l.61.57h-1a2.25,2.25,0,1,0,0,4.49H23.12a2.28,2.28,0,0,0,1.94-1.13,2.31,2.31,0,0,0,0-2.25A2.28,2.28,0,0,0,23.12,32h-1l.61-.57a12.64,12.64,0,0,0,3.31-4.88l.08-.21h2.3a3.92,3.92,0,0,0,2.41-.84,3.8,3.8,0,0,0,1.38-2.14A3.87,3.87,0,0,0,31.52,20ZM25.2,25.15a11.42,11.42,0,0,1-5.47,6.92.64.64,0,0,0-.27.7.65.65,0,0,0,.61.47h3a1,1,0,0,1,0,2H4.87a1,1,0,1,1,0-2h3a.63.63,0,0,0,.61-.47.65.65,0,0,0-.29-.7,11.44,11.44,0,0,1-5.43-6.92,42.91,42.91,0,0,1-1.53-8.88,1,1,0,0,1,.28-.78,1.07,1.07,0,0,1,.77-.33H25.69a1.05,1.05,0,0,1,.77.33,1.07,1.07,0,0,1,.28.78A43.83,43.83,0,0,1,25.2,25.15ZM31,23.05a2.71,2.71,0,0,1-1,1.45,2.56,2.56,0,0,1-1.63.58H26.51l.1-.42a42.69,42.69,0,0,0,1-4.68l.06-.27h.78a2.62,2.62,0,0,1,2.1,1A2.66,2.66,0,0,1,31,23.05Z"/></g></g></svg>