<svg xmlns="http://www.w3.org/2000/svg" viewBox="0 0 36.63 36.86"><defs><style>.cls-1{fill:#231f20;}.cls-2{fill:#323e48;}.cls-3{fill:#f4cb19;}</style></defs><g id="Layer_2" data-name="Layer 2"><g id="Layer_1-2" data-name="Layer 1"><polygon class="cls-1" points="0.04 31.45 0.04 31.45 0.04 31.45 0.04 31.45"/><path class="cls-2" d="M1.38,32a.79.79,0,0,0,.17-.85.65.65,0,0,0-.17-.26.78.78,0,0,0-.26-.17.72.72,0,0,0-.29-.06.77.77,0,0,0-.56.23A.78.78,0,0,0,.27,32a.77.77,0,0,0,.56.23.72.72,0,0,0,.29-.06A.78.78,0,0,0,1.38,32Z"/><path class="cls-2" d="M0,31.45a.85.85,0,0,1,.24-.59.83.83,0,0,1,.59-.24.92.92,0,0,1,.31.07.78.78,0,0,1,.26.17.64.64,0,0,1,.18.27.81.81,0,0,1-.18.9.78.78,0,0,1-.26.17.7.7,0,0,1-.31.07A.82.82,0,0,1,0,31.45Zm1.57,0a.92.92,0,0,0-.05-.28.61.61,0,0,0-.17-.24.67.67,0,0,0-.24-.16.71.71,0,0,0-.28-.06.75.75,0,0,0-.54.21A.76.76,0,0,0,.83,32.2a.94.94,0,0,0,.28-.06A.84.84,0,0,0,1.35,32h0A.77.77,0,0,0,1.57,31.44Z"/><polygon class="cls-2" points="0.04 36.04 0.04 36.04 0.04 36.04 0.04 36.04"/><path class="cls-2" d="M1.38,36.6a.73.73,0,0,0,.17-.26.79.79,0,0,0-.17-.85.65.65,0,0,0-.26-.17.58.58,0,0,0-.29-.06.77.77,0,0,0-.56.23.72.72,0,0,0-.18.25A.79.79,0,0,0,0,36a.71.71,0,0,0,.23.56.77.77,0,0,0,.56.23.72.72,0,0,0,.29-.06A.78.78,0,0,0,1.38,36.6Z"/><path class="cls-2" d="M0,36a.78.78,0,0,1,.06-.31.71.71,0,0,1,.18-.27.83.83,0,0,1,.59-.24.62.62,0,0,1,.31.07.78.78,0,0,1,.26.17.81.81,0,0,1,.18.9.8.8,0,0,1-.18.27h0a.78.78,0,0,1-.26.17.85.85,0,0,1-.31.06.82.82,0,0,1-.59-.23,1.14,1.14,0,0,1-.18-.27A.83.83,0,0,1,0,36Zm1.57,0a.77.77,0,0,0-.22-.54.84.84,0,0,0-.24-.16.61.61,0,0,0-.28-.06.76.76,0,0,0-.54.22.8.8,0,0,0-.16.25A.64.64,0,0,0,.07,36a.68.68,0,0,0,.06.29.8.8,0,0,0,.16.25.79.79,0,0,0,.54.21.71.71,0,0,0,.28-.06.67.67,0,0,0,.24-.16h0a.81.81,0,0,0,.17-.24A.92.92,0,0,0,1.57,36.05Z"/><path class="cls-2" d="M4.69,35.74a.8.8,0,0,0-.06.3.77.77,0,0,0,.06.3.9.9,0,0,0,.17.26.79.79,0,0,0,.56.23.8.8,0,0,0,.3-.06A.85.85,0,0,0,6,36.6a.83.83,0,0,0,.18-.86A.64.64,0,0,0,6,35.49a.7.7,0,0,0-.25-.17.8.8,0,0,0-.3-.06.79.79,0,0,0-.56.23A.85.85,0,0,0,4.69,35.74Z"/><path class="cls-2" d="M4.59,36a.78.78,0,0,1,.06-.31,1.06,1.06,0,0,1,.18-.27.87.87,0,0,1,.59-.24.7.7,0,0,1,.31.07.73.73,0,0,1,.27.17.91.91,0,0,1,.18.27.85.85,0,0,1-.18.9.73.73,0,0,1-.27.17.86.86,0,0,1-.9-.17,1.57,1.57,0,0,1-.18-.27A.83.83,0,0,1,4.59,36Zm1.58,0a.67.67,0,0,0-.06-.28A.76.76,0,0,0,6,35.51a1,1,0,0,0-.24-.16.79.79,0,0,0-.29-.06.75.75,0,0,0-.53.22.85.85,0,0,0-.17.25.82.82,0,0,0,0,.28.88.88,0,0,0,0,.29.85.85,0,0,0,.17.25.76.76,0,0,0,.82.15A.78.78,0,0,0,6,36.57.77.77,0,0,0,6.17,36Z"/><polygon class="cls-2" points="4.63 36.04 4.63 36.04 4.63 36.04 4.63 36.04"/><path class="cls-3" d="M35.71,9.09,27.55.93a3.16,3.16,0,0,0-4.64.17L9,17.15H8.93A2.73,2.73,0,0,0,7,18a2.76,2.76,0,0,0-.8,1.94,2.8,2.8,0,0,0,.18,1l0,.08L6.34,21A6.57,6.57,0,0,0,15.6,30.3l.07-.06.09,0a2.57,2.57,0,0,0,1,.19,2.75,2.75,0,0,0,2.74-2.75v-.07l.05-.05,16-13.86a3.18,3.18,0,0,0,.17-4.64ZM14.51,29.6a5.3,5.3,0,0,1-3.17,1,5.36,5.36,0,0,1-3.79-1.56A5.34,5.34,0,0,1,7,22.13l.1-.14.12.12,7.39,7.39Zm3.31-.82a1.5,1.5,0,0,1-1.07.44,1.46,1.46,0,0,1-1.07-.44L7.85,21a1.51,1.51,0,0,1,1.07-2.58,1.5,1.5,0,0,1,1.07.44l7.83,7.83a1.51,1.51,0,0,1,0,2.13Zm16.91-16L19.19,26.27l-8.82-8.82L23.84,1.9a1.89,1.89,0,0,1,1.4-.66h.07a1.93,1.93,0,0,1,1.37.56L34.84,10a1.91,1.91,0,0,1,.56,1.44A1.88,1.88,0,0,1,34.73,12.79Z"/></g></g></svg>