<svg xmlns="http://www.w3.org/2000/svg" viewBox="0 0 36.43 36.43"><defs><style>.cls-1{fill:#f4cb19;fill-rule:evenodd;}.cls-2{fill:#323e48;}</style></defs><g id="Layer_2" data-name="Layer 2"><g id="Layer_1-2" data-name="Layer 1"><path class="cls-1" d="M36.18,7.77,28.66.25A.76.76,0,0,0,28.13,0h-.05a.84.84,0,0,0-.8.61L25.79,6.07h-.2L25.5,6h-.06l-3.07-.34-.34,0a3.19,3.19,0,0,0-2.25.93L6.6,19.78a3.14,3.14,0,0,0-.92,2.6l.34,3a1.73,1.73,0,0,0,0,.11.35.35,0,0,1,0,.14v.17L.6,27.29a.81.81,0,0,0-.57.59.78.78,0,0,0,.21.78l7.53,7.52a.74.74,0,0,0,.57.25.81.81,0,0,0,.79-.61l1.5-5.48.19,0h0l.13,0h0l3,.33a3.08,3.08,0,0,0,2.59-.92L29.82,16.64a3.08,3.08,0,0,0,.91-2.59l-.36-3.17s0-.05,0-.07V10.6l5.46-1.46a.81.81,0,0,0,.37-1.37ZM9.46,30,8.14,34.84,1.56,28.25l.38-.05,4.6-1.26,2.93,2.93ZM29,15.79,15.79,29a2,2,0,0,1-1.4.57h-.2l-3-.34A2,2,0,0,1,10,28.64L7.8,26.47a2,2,0,0,1-.56-1.19l-.34-3a2,2,0,0,1,.56-1.61L20.64,7.46a2,2,0,0,1,1.61-.56l3,.34a2.11,2.11,0,0,1,1.17.56L28.63,10a2.11,2.11,0,0,1,.56,1.17l.33,3A2,2,0,0,1,29,15.79ZM34.5,8.24,29.88,9.5,26.93,6.55l0-.09L28.27,1.6l6.56,6.55Z"/><path class="cls-2" d="M23.25,14,14,23.25a.63.63,0,0,1-.87,0,.62.62,0,0,1,0-.86l9.21-9.21a.62.62,0,0,1,.87,0A.6.6,0,0,1,23.25,14Z"/></g></g></svg>