<svg xmlns="http://www.w3.org/2000/svg" viewBox="0 0 36.48 36.47"><defs><style>.cls-1{fill:#f4cb19;}.cls-2{fill:#323e48;}</style></defs><g id="Layer_2" data-name="Layer 2"><g id="Layer_1-2" data-name="Layer 1"><path class="cls-1" d="M33.89,2.6A8.78,8.78,0,0,0,30.07.38,11.54,11.54,0,0,0,25.21.15,17.72,17.72,0,0,0,15.6,5.27c-4,4-5.93,9.23-5.06,13.66a1.72,1.72,0,0,1-.76,1.73,3,3,0,0,0-1.35,2.2,4.11,4.11,0,0,0,0,.77l.05.12L4.19,28.07,4,28a2.85,2.85,0,0,0-1-.18,3,3,0,0,0-2.12.88,3,3,0,0,0,0,4.23,2.88,2.88,0,0,0,1.61.83l.2,0,0,.19a3,3,0,0,0,2.95,2.49h0a3,3,0,0,0,2.09-.87,3,3,0,0,0,.7-3.15l-.08-.16L12.72,28l.15.05.45,0h.1l.21,0a3,3,0,0,0,2.19-1.33,1.73,1.73,0,0,1,1.73-.77c4.43.86,9.66-1.08,13.65-5.07a17.63,17.63,0,0,0,5.12-9.6,12.38,12.38,0,0,0,.16-2A9.23,9.23,0,0,0,33.89,2.6ZM7.21,31.74a.62.62,0,0,0-.08.78,1.74,1.74,0,0,1-1.45,2.7,1.79,1.79,0,0,1-1.25-.51A1.68,1.68,0,0,1,4,33.24a.68.68,0,0,0-.2-.53.59.59,0,0,0-.52-.19A1.7,1.7,0,0,1,1.76,32a1.74,1.74,0,0,1-.51-1.24,1.67,1.67,0,0,1,.51-1.23A1.74,1.74,0,0,1,4,29.34a.62.62,0,0,0,.79-.07L9,25l2.47,2.47ZM35.1,11.09l-.17,1.12,0-.09A16.85,16.85,0,0,1,30.33,20c-3.64,3.65-8.56,5.5-12.54,4.73a3.29,3.29,0,0,0-.54,0A2.94,2.94,0,0,0,14.78,26a1.75,1.75,0,0,1-1.28.77h-.17a1.77,1.77,0,0,1-1.24-.51l-1.91-1.92a1.74,1.74,0,0,1-.5-1.4,1.71,1.71,0,0,1,.78-1.28,2.92,2.92,0,0,0,1.3-3c-.78-4,1.08-8.9,4.73-12.55A16.36,16.36,0,0,1,25.4,1.39a10.91,10.91,0,0,1,1.76-.15h0A8,8,0,0,1,33,3.48,8.6,8.6,0,0,1,35.1,11.09Z"/><path class="cls-2" d="M30.59,12.22a.82.82,0,0,1-.83-.82.79.79,0,0,1,.25-.58.77.77,0,0,1,.58-.24.83.83,0,0,1,.58.24.85.85,0,0,1,.24.58A.82.82,0,0,1,30.59,12.22Z"/><path class="cls-2" d="M31.16,8.64a.81.81,0,0,1-1.15,0,.78.78,0,0,1-.25-.58.82.82,0,1,1,1.4.58Z"/><path class="cls-2" d="M27.82,12a.84.84,0,0,1-.58.24.79.79,0,0,1-.58-.25.82.82,0,0,1,1.16-1.16.84.84,0,0,1,.24.58A.92.92,0,0,1,27.82,12Z"/></g></g></svg>